<svg width="76" height="76" viewBox="0 0 76 76" fill="none" xmlns="http://www.w3.org/2000/svg">
<path d="M59.375 3.71094C52.2203 3.71094 46.4609 9.47625 46.4609 16.625C46.4609 23.7797 52.2203 29.5391 59.375 29.5391C66.5297 29.5391 72.2891 23.7797 72.2891 16.625C72.2891 9.47625 66.5297 3.71094 59.375 3.71094ZM65.3867 8.7593L67.6133 10.2407L57.2078 25.843L48.925 17.575L50.825 15.675L56.7922 21.657L65.3867 8.7593ZM45.2289 23.1711L27.6687 35.3281H4.75V40.6719H27.6687L45.2289 52.8289C45.9859 51.1961 47.025 49.7117 48.2719 48.45L33.1906 38L48.2719 27.55C47.025 26.2883 45.9859 24.8039 45.2289 23.1711ZM59.375 46.4609C52.2203 46.4609 46.4609 52.2203 46.4609 59.375C46.4609 66.5297 52.2203 72.2891 59.375 72.2891C66.5297 72.2891 72.2891 66.5297 72.2891 59.375C72.2891 52.2203 66.5297 46.4609 59.375 46.4609ZM53.2 51.3L59.375 57.475L65.55 51.3L67.45 53.2L61.275 59.375L67.45 65.55L65.55 67.45L59.375 61.275L53.2 67.45L51.3 65.55L57.475 59.375L51.3 53.2L53.2 51.3Z" fill="#0000FF"/>
</svg>
