<svg width="76" height="76" viewBox="0 0 76 76" fill="none" xmlns="http://www.w3.org/2000/svg">
<path d="M37.9996 11.4C36.4879 11.4 35.0381 12.0005 33.9691 13.0695C32.9001 14.1384 32.2996 15.5882 32.2996 17.1C32.2996 18.6117 32.9001 20.0615 33.9691 21.1305C35.0381 22.1994 36.4879 22.8 37.9996 22.8C39.5113 22.8 40.9612 22.1994 42.0301 21.1305C43.0991 20.0615 43.6996 18.6117 43.6996 17.1C43.6996 15.5882 43.0991 14.1384 42.0301 13.0695C40.9612 12.0005 39.5113 11.4 37.9996 11.4ZM28.4996 17.1C28.4996 14.5804 29.5005 12.1641 31.2821 10.3825C33.0637 8.60087 35.4801 7.59998 37.9996 7.59998C40.5192 7.59998 42.9355 8.60087 44.7171 10.3825C46.4987 12.1641 47.4996 14.5804 47.4996 17.1C47.4996 19.6195 46.4987 22.0359 44.7171 23.8175C42.9355 25.5991 40.5192 26.6 37.9996 26.6C35.4801 26.6 33.0637 25.5991 31.2821 23.8175C29.5005 22.0359 28.4996 19.6195 28.4996 17.1ZM58.8996 15.2C57.8918 15.2 56.9252 15.6003 56.2126 16.313C55.5 17.0256 55.0996 17.9922 55.0996 19C55.0996 20.0078 55.5 20.9743 56.2126 21.687C56.9252 22.3996 57.8918 22.8 58.8996 22.8C59.9074 22.8 60.874 22.3996 61.5866 21.687C62.2993 20.9743 62.6996 20.0078 62.6996 19C62.6996 17.9922 62.2993 17.0256 61.5866 16.313C60.874 15.6003 59.9074 15.2 58.8996 15.2ZM51.2996 19C51.2996 16.9843 52.1003 15.0512 53.5256 13.626C54.9509 12.2007 56.884 11.4 58.8996 11.4C60.9153 11.4 62.8483 12.2007 64.2736 13.626C65.6989 15.0512 66.4996 16.9843 66.4996 19C66.4996 21.0156 65.6989 22.9487 64.2736 24.374C62.8483 25.7993 60.9153 26.6 58.8996 26.6C56.884 26.6 54.9509 25.7993 53.5256 24.374C52.1003 22.9487 51.2996 21.0156 51.2996 19ZM13.2996 19C13.2996 17.9922 13.7 17.0256 14.4126 16.313C15.1252 15.6003 16.0918 15.2 17.0996 15.2C18.1074 15.2 19.074 15.6003 19.7866 16.313C20.4993 17.0256 20.8996 17.9922 20.8996 19C20.8996 20.0078 20.4993 20.9743 19.7866 21.687C19.074 22.3996 18.1074 22.8 17.0996 22.8C16.0918 22.8 15.1252 22.3996 14.4126 21.687C13.7 20.9743 13.2996 20.0078 13.2996 19ZM17.0996 11.4C15.084 11.4 13.1509 12.2007 11.7256 13.626C10.3003 15.0512 9.49961 16.9843 9.49961 19C9.49961 21.0156 10.3003 22.9487 11.7256 24.374C13.1509 25.7993 15.084 26.6 17.0996 26.6C19.1153 26.6 21.0483 25.7993 22.4736 24.374C23.8989 22.9487 24.6996 21.0156 24.6996 19C24.6996 16.9843 23.8989 15.0512 22.4736 13.626C21.0483 12.2007 19.1153 11.4 17.0996 11.4ZM19.3796 56.9924L18.9996 57C16.984 57 15.0509 56.1993 13.6256 54.774C12.2003 53.3487 11.3996 51.4156 11.3996 49.4V35.15C11.3996 34.898 11.4997 34.6564 11.6779 34.4782C11.856 34.3001 12.0977 34.2 12.3496 34.2H19.0528C19.2048 32.8054 19.6988 31.5096 20.4398 30.4H12.3496C9.72761 30.4 7.59961 32.528 7.59961 35.15V49.4C7.59943 51.0268 7.94746 52.6349 8.6203 54.1161C9.29314 55.5973 10.2752 56.9173 11.5005 57.9875C12.7258 59.0576 14.166 59.8532 15.7243 60.3206C17.2825 60.788 18.9228 60.9165 20.5348 60.6974C20.0243 59.505 19.6372 58.2636 19.3796 56.9924ZM55.4644 60.6974C55.966 60.7658 56.4777 60.8 56.9996 60.8C60.0231 60.8 62.9227 59.5989 65.0606 57.461C67.1985 55.3231 68.3996 52.4234 68.3996 49.4V35.15C68.3996 32.528 66.2716 30.4 63.6496 30.4H55.5594C56.3042 31.5096 56.7944 32.8054 56.9464 34.2H63.6496C63.9016 34.2 64.1432 34.3001 64.3214 34.4782C64.4995 34.6564 64.5996 34.898 64.5996 35.15V49.4C64.5999 50.4302 64.3907 51.4497 63.9847 52.3965C63.5788 53.3434 62.9846 54.1978 62.2382 54.9079C61.4919 55.6181 60.6089 56.169 59.6431 56.5273C58.6772 56.8857 57.6485 57.0439 56.6196 56.9924C56.362 58.2636 55.9749 59.505 55.4644 60.6974ZM27.5496 30.4C24.9276 30.4 22.7996 32.528 22.7996 35.15V53.2C22.7996 57.2313 24.401 61.0974 27.2516 63.948C30.1021 66.7985 33.9683 68.4 37.9996 68.4C42.0309 68.4 45.8971 66.7985 48.7476 63.948C51.5982 61.0974 53.1996 57.2313 53.1996 53.2V35.15C53.1996 32.528 51.0716 30.4 48.4496 30.4H27.5496ZM26.5996 35.15C26.5996 34.898 26.6997 34.6564 26.8779 34.4782C27.056 34.3001 27.2977 34.2 27.5496 34.2H48.4496C48.7016 34.2 48.9432 34.3001 49.1214 34.4782C49.2995 34.6564 49.3996 34.898 49.3996 35.15V53.2C49.3996 56.2234 48.1985 59.1231 46.0606 61.261C43.9227 63.3989 41.0231 64.6 37.9996 64.6C34.9761 64.6 32.0765 63.3989 29.9386 61.261C27.8007 59.1231 26.5996 56.2234 26.5996 53.2V35.15Z" fill="#0000FF"/>
</svg>
