<svg width="76" height="76" viewBox="0 0 76 76" fill="none" xmlns="http://www.w3.org/2000/svg">
<path d="M34.8369 8.70837C35.4668 8.70795 36.0707 8.45733 36.5158 8.01163C36.9609 7.56594 37.2108 6.96168 37.2103 6.33179C37.2099 5.7019 36.9593 5.09798 36.5136 4.65288C36.0679 4.20777 35.4636 3.95795 34.8337 3.95837C28.4497 3.97104 23.3641 4.05021 19.3234 4.70254C15.2067 5.36754 11.9197 6.66587 9.29458 9.29104C6.46041 12.122 5.17791 15.732 4.56358 20.311C3.96191 24.776 3.96191 30.5077 3.96191 37.8164V38.1805C3.96191 45.4892 3.96191 51.2177 4.56358 55.689C5.17791 60.2649 6.46358 63.8749 9.29458 66.709C12.1287 69.54 15.7387 70.8257 20.3146 71.44C24.7827 72.0417 30.5112 72.0417 37.8231 72.0417H38.1841C45.4959 72.0417 51.2244 72.0417 55.6957 71.44C60.2684 70.8225 63.8784 69.54 66.7126 66.7059C69.3346 64.0839 70.6329 60.7937 71.2979 56.6802C71.9534 52.6364 72.0326 47.5507 72.0421 41.1699C72.0427 40.858 71.9819 40.549 71.8631 40.2606C71.7443 39.9723 71.5699 39.7101 71.3498 39.4891C70.9053 39.0428 70.3017 38.7914 69.6718 38.7901C69.0419 38.7889 68.4374 39.0379 67.9911 39.4824C67.5448 39.9269 67.2933 40.5305 67.2921 41.1604C67.2826 47.6204 67.1939 52.3165 66.6081 55.9202C66.0381 59.4542 65.0248 61.674 63.3528 63.3492C61.5478 65.1542 59.1094 66.1865 55.0592 66.7312C50.9426 67.2854 45.5339 67.2885 38.0036 67.2885C30.4732 67.2885 25.0646 67.2854 20.9479 66.7312C16.8977 66.1865 14.4562 65.151 12.6512 63.3492C10.8494 61.5442 9.81391 59.1059 9.26925 55.0525C8.71825 50.9359 8.71191 45.5304 8.71191 37.9969C8.71191 30.4634 8.71825 25.0579 9.26925 20.9412C9.81391 16.8942 10.8526 14.4495 12.6544 12.6477C14.3264 10.9757 16.5494 9.96554 20.0802 9.39237C23.6839 8.80971 28.3769 8.72104 34.8369 8.70837Z" fill="#0000FF"/>
<path d="M50.369 6.33337C50.369 7.64437 51.433 8.70837 52.744 8.70837H63.9318L40.375 32.2684V25.3334C40.375 24.7035 40.1248 24.0994 39.6794 23.654C39.234 23.2086 38.6299 22.9584 38 22.9584C37.3701 22.9584 36.766 23.2086 36.3206 23.654C35.8752 24.0994 35.625 24.7035 35.625 25.3334V38C35.625 39.311 36.689 40.375 38 40.375H50.6667C51.2966 40.375 51.9006 40.1248 52.346 39.6794C52.7914 39.234 53.0417 38.6299 53.0417 38C53.0417 37.3702 52.7914 36.7661 52.346 36.3207C51.9006 35.8753 51.2966 35.625 50.6667 35.625H43.7317L67.2917 12.065V23.256C67.2917 23.8859 67.5419 24.49 67.9873 24.9354C68.4327 25.3808 69.0368 25.631 69.6667 25.631C70.2966 25.631 70.9007 25.3808 71.346 24.9354C71.7914 24.49 72.0417 23.8859 72.0417 23.256V6.33337C72.0417 5.70348 71.7914 5.09939 71.346 4.654C70.9007 4.2086 70.2966 3.95837 69.6667 3.95837H52.744C52.1141 3.95837 51.51 4.2086 51.0646 4.654C50.6192 5.09939 50.369 5.70348 50.369 6.33337Z" fill="#0000FF"/>
</svg>
