<svg width="90" height="90" viewBox="0 0 90 90" fill="none" xmlns="http://www.w3.org/2000/svg">
<path d="M83.9922 69.9501L69.7391 55.697L58.776 51.1677C62.4265 45.9766 64.3822 39.7836 64.375 33.4375C64.375 16.3785 50.4965 2.5 33.4375 2.5C16.3785 2.5 2.5 16.3785 2.5 33.4375C2.5 50.4965 16.3785 64.375 33.4375 64.375C39.8388 64.3823 46.083 62.3929 51.3002 58.6837L55.8178 69.6173L70.0703 83.8711C70.9844 84.7852 72.0695 85.5103 73.2639 86.0051C74.4582 86.4998 75.7382 86.7545 77.0309 86.7545C78.3237 86.7546 79.6037 86.5 80.7981 86.0053C81.9924 85.5106 83.0776 84.7856 83.9918 83.8715C84.9059 82.9575 85.631 81.8723 86.1258 80.678C86.6205 79.4837 86.8752 78.2036 86.8752 76.9109C86.8752 75.6182 86.6207 74.3381 86.126 73.1437C85.6313 71.9494 84.9063 70.8642 83.9922 69.9501ZM8.125 33.4375C8.125 19.4805 19.4805 8.125 33.4375 8.125C47.3945 8.125 58.75 19.4805 58.75 33.4375C58.75 47.3945 47.3945 58.75 33.4375 58.75C19.4805 58.75 8.125 47.3945 8.125 33.4375ZM80.0144 79.8937C79.2226 80.6836 78.1497 81.1272 77.0313 81.1272C75.9128 81.1272 74.8399 80.6836 74.0481 79.8937L60.5882 66.4338L56.388 56.2674L66.5547 60.4676L80.0148 73.9275C80.8046 74.7194 81.2481 75.7922 81.2481 76.9106C81.248 78.0291 80.8044 79.1019 80.0144 79.8937Z" fill="#00DDE2"/>
<path d="M41.9021 34.3389C43.8084 32.839 45.1999 30.7823 45.8829 28.4549C46.5658 26.1274 46.5064 23.6449 45.7128 21.3528C44.9192 19.0607 43.4309 17.073 41.455 15.6661C39.4791 14.2592 37.1138 13.5032 34.6882 13.5032C32.2626 13.5032 29.8973 14.2592 27.9214 15.6661C25.9455 17.073 24.4572 19.0607 23.6636 21.3528C22.87 23.6449 22.8106 26.1274 23.4936 28.4549C24.1766 30.7823 25.568 32.839 27.4743 34.3389C24.2078 35.6476 21.3577 37.8181 19.2277 40.6193C17.0978 43.4204 15.7679 46.747 15.3799 50.2444C15.3518 50.4998 15.3743 50.7581 15.4461 51.0048C15.5178 51.2515 15.6375 51.4816 15.7982 51.682C16.1227 52.0868 16.5947 52.346 17.1104 52.4027C17.6261 52.4595 18.1433 52.309 18.548 51.9845C18.9528 51.6599 19.2121 51.1879 19.2688 50.6722C19.6958 46.8712 21.5082 43.3607 24.3598 40.8115C27.2114 38.2623 30.9022 36.8531 34.7271 36.8531C38.552 36.8531 42.2429 38.2623 45.0945 40.8115C47.9461 43.3607 49.7585 46.8712 50.1854 50.6722C50.2383 51.15 50.4663 51.5912 50.8254 51.9108C51.1845 52.2304 51.6492 52.4057 52.1299 52.4027H52.3438C52.8535 52.3441 53.3194 52.0864 53.6399 51.6857C53.9604 51.2851 54.1096 50.774 54.0549 50.2639C53.665 46.7565 52.328 43.4213 50.1871 40.6159C48.0462 37.8105 45.1822 35.6406 41.9021 34.3389ZM34.6882 32.9583C33.1499 32.9583 31.6462 32.5021 30.3671 31.6475C29.0881 30.7929 28.0912 29.5782 27.5025 28.157C26.9138 26.7358 26.7598 25.1719 27.0599 23.6632C27.36 22.1544 28.1008 20.7685 29.1885 19.6808C30.2762 18.5931 31.6621 17.8523 33.1709 17.5522C34.6796 17.2521 36.2435 17.4061 37.6647 17.9948C39.0859 18.5835 40.3006 19.5804 41.1552 20.8594C42.0098 22.1385 42.466 23.6422 42.466 25.1805C42.466 27.2433 41.6466 29.2216 40.1879 30.6802C38.7293 32.1389 36.751 32.9583 34.6882 32.9583Z" fill="#00DDE2"/>
</svg>
