<svg width="90" height="90" viewBox="0 0 90 90" fill="none" xmlns="http://www.w3.org/2000/svg">
<g clip-path="url(#clip0_362_500)">
<mask id="mask0_362_500" style="mask-type:luminance" maskUnits="userSpaceOnUse" x="10" y="14" width="86" height="60">
<path d="M21.15 72.6C7.95 59.4375 7.95 38.0625 21.15 24.9C34.3125 11.7 55.6875 11.7 68.85 24.9C82.05 38.0625 82.05 59.4375 68.85 72.6" stroke="white" stroke-width="2" stroke-linecap="round" stroke-linejoin="round"/>
<path d="M52.924 65.7432C43.5437 70.1173 32.3808 66.0543 28.0067 56.674C23.6326 47.2937 27.6956 36.1308 37.0758 31.7567C46.4561 27.3826 95.9798 24.9776 95.9798 24.9776C95.9798 24.9776 62.3043 61.3691 52.924 65.7432Z" fill="black"/>
</mask>
<g mask="url(#mask0_362_500)">
<path d="M0 0H90V90H0V0Z" fill="#00DDE2"/>
</g>
<path d="M49.7546 58.9458C44.1128 61.5766 37.435 59.146 34.8042 53.5043C32.1734 47.8625 34.6039 41.1847 40.2457 38.5539C45.8874 35.9231 82.3853 31.3168 82.3853 31.3168C82.3853 31.3168 55.3963 56.315 49.7546 58.9458Z" fill="#00DDE2"/>
</g>
<defs>
<clipPath id="clip0_362_500">
<rect width="90" height="90" fill="white"/>
</clipPath>
</defs>
</svg>
