<svg width="84" height="84" viewBox="0 0 84 84" fill="none" xmlns="http://www.w3.org/2000/svg">
<g clip-path="url(#clip0_373_622)">
<path d="M89.5003 17.3334H89.51M89.5003 7.66675V13.7084M101.584 12.5001C101.584 5.82646 96.1739 0.416748 89.5003 0.416748C82.8267 0.416748 77.417 5.82646 77.417 12.5001C77.417 19.1737 82.8267 24.5834 89.5003 24.5834C96.1739 24.5834 101.584 19.1737 101.584 12.5001Z" stroke="#00DDE2" stroke-width="1.5" stroke-miterlimit="10" stroke-linecap="round" stroke-linejoin="round"/>
<path d="M9.46973 66.0259V50.9098" stroke="#00DDE2" stroke-width="20" stroke-miterlimit="10" stroke-linecap="round" stroke-linejoin="round"/>
<path d="M75.4404 66.0259V50.9098" stroke="#00DDE2" stroke-width="20" stroke-miterlimit="10" stroke-linecap="round" stroke-linejoin="round"/>
<mask id="mask0_373_622" style="mask-type:luminance" maskUnits="userSpaceOnUse" x="0" y="0" width="84" height="84">
<path d="M0 7.62939e-06H84V84H0V7.62939e-06Z" fill="white"/>
</mask>
<g mask="url(#mask0_373_622)">
<path d="M29.8184 82.7695V76.9248" stroke="#00DDE2" stroke-width="20" stroke-miterlimit="10" stroke-linecap="round" stroke-linejoin="round"/>
<path d="M55.0918 82.7695V76.9248" stroke="#00DDE2" stroke-width="20" stroke-miterlimit="10" stroke-linecap="round" stroke-linejoin="round"/>
</g>
<path d="M9.46289 66.0225V55.3282" stroke="#00DDE2" stroke-width="20" stroke-miterlimit="10" stroke-linecap="round" stroke-linejoin="round"/>
<path d="M75.4346 66.0225V55.3282" stroke="#00DDE2" stroke-width="20" stroke-miterlimit="10" stroke-linecap="round" stroke-linejoin="round"/>
<mask id="mask1_373_622" style="mask-type:luminance" maskUnits="userSpaceOnUse" x="0" y="0" width="84" height="84">
<path d="M0 7.62939e-06H84V84H0V7.62939e-06Z" fill="white"/>
</mask>
<g mask="url(#mask1_373_622)">
<path d="M48.0069 57.7192L47.909 57.6674C47.0657 57.2216 46.5381 56.346 46.5381 55.3922V53.3795" stroke="#00DDE2" stroke-width="3" stroke-miterlimit="10" stroke-linecap="round" stroke-linejoin="round"/>
<path d="M37.463 52.9769V55.3924C37.463 56.3463 36.9355 57.2219 36.0923 57.6676L35.9941 57.7195" stroke="#00DDE2" stroke-width="3" stroke-miterlimit="10" stroke-linecap="round" stroke-linejoin="round"/>
<path d="M29.8125 82.7664V76.9216" stroke="#00DDE2" stroke-width="3" stroke-miterlimit="10" stroke-linecap="round" stroke-linejoin="round"/>
<path d="M55.0859 82.7664V76.9216" stroke="#00DDE2" stroke-width="3" stroke-miterlimit="10" stroke-linecap="round" stroke-linejoin="round"/>
<path d="M49.5188 57.7416L51.0604 58.4336C51.9402 58.8287 52.1525 59.9822 51.471 60.6647L47.2021 64.9402C46.6607 65.4673 45.8082 65.4998 45.2283 65.0153L42 62.3104L47.588 57.9545C48.1451 57.5382 48.8842 57.4566 49.5188 57.7416Z" stroke="#00DDE2" stroke-width="3" stroke-miterlimit="10" stroke-linecap="round" stroke-linejoin="round"/>
<path d="M34.4814 57.7416L32.9399 58.4336C32.06 58.8287 31.8477 59.9822 32.5293 60.6647L36.7982 64.9402C37.3396 65.4673 38.192 65.4998 38.772 65.0153L42.0003 62.3104L36.4124 57.9545C35.8551 57.5382 35.116 57.4566 34.4814 57.7416Z" stroke="#00DDE2" stroke-width="3" stroke-miterlimit="10" stroke-linecap="round" stroke-linejoin="round"/>
<path d="M62.2715 70.688C61.5029 63.1949 55.2288 59.8855 51.2314 58.5255" stroke="#00DDE2" stroke-width="3" stroke-miterlimit="10" stroke-linecap="round" stroke-linejoin="round"/>
<path d="M32.7696 58.5256C28.5056 59.9763 21.6514 63.6449 21.6514 72.2432V79.4383C21.6514 81.2763 23.1414 82.7664 24.9795 82.7664H59.0209C60.8589 82.7664 62.3489 81.2763 62.3489 79.4383V76.3883" stroke="#00DDE2" stroke-width="3" stroke-miterlimit="10" stroke-linecap="round" stroke-linejoin="round"/>
<path d="M50.7016 30.9005H50.6095C50.0999 30.9005 49.6867 30.4874 49.6867 29.9776C49.6867 28.4689 48.4636 27.2456 46.9547 27.2456H38.2589C34.389 27.2456 31.252 30.3828 31.252 34.2528V38.8833C31.252 39.5635 31.6823 40.1692 32.3246 40.3928L34.0507 40.9938C34.654 41.2039 35.284 40.7554 35.283 40.1165L35.2792 36.8512C35.2726 35.2632 36.5389 33.9704 38.1078 33.9637L38.1419 33.9635C38.6221 33.9615 39.0971 34.036 39.5507 34.1817C40.3546 34.4401 41.1876 34.5966 42.0318 34.593H42.6538C43.4981 34.5966 44.3309 34.4401 45.1348 34.1817C45.5884 34.036 46.0634 33.9615 46.5436 33.9635L46.5777 33.9637C48.1466 33.9704 49.413 35.2632 49.4063 36.8512L49.4032 40.1167C49.4024 40.7555 50.0324 41.2039 50.6354 40.9938L52.3609 40.3928C53.0032 40.1692 53.4337 39.5635 53.4337 38.8834V33.6324C53.4337 32.1237 52.2104 30.9005 50.7016 30.9005Z" stroke="#00DDE2" stroke-width="3" stroke-miterlimit="10" stroke-linecap="round" stroke-linejoin="round"/>
<path d="M31.3966 39.545C30.8307 39.9707 30.4634 40.646 30.4639 41.4087L30.4655 43.5235C30.4665 44.8111 31.5108 45.8542 32.7983 45.8535L33.3971 45.8532C33.4575 48.2349 34.456 50.5234 36.2489 52.0726C37.6925 53.32 39.7186 54.4056 42.3894 54.4243C45.0599 54.3826 47.077 53.28 48.5101 52.0205C50.29 50.4556 51.2693 48.1589 51.31 45.7767L51.9232 45.7741C52.8187 45.7703 53.5416 45.0326 53.5378 44.1261L53.5302 40.6303C53.5288 40.2738 53.4138 39.9451 53.222 39.6769" stroke="#00DDE2" stroke-width="3" stroke-miterlimit="10" stroke-linecap="round" stroke-linejoin="round"/>
<path d="M5.25566 36.6959C3.01259 38.8689 1.30273 41.9336 1.30273 46.2281V62.0549C1.30273 64.2462 3.0792 66.0227 5.27059 66.0227H23.1073" stroke="#00DDE2" stroke-width="3" stroke-miterlimit="10" stroke-linecap="round" stroke-linejoin="round"/>
<path d="M31.4261 32.7027C29.2263 31.8947 27.5603 31.6522 27.5603 31.6522C24.9719 36.265 18.3319 36.265 15.7437 31.6522C15.7437 31.6522 13.1267 32.032 10.1211 33.431" stroke="#00DDE2" stroke-width="3" stroke-miterlimit="10" stroke-linecap="round" stroke-linejoin="round"/>
<path d="M60.8939 66.0227H78.7306C80.9218 66.0227 82.6983 64.2462 82.6983 62.0549V46.2281C82.6983 33.7482 68.2578 31.6523 68.2578 31.6523C66.1546 37.0302 58.5445 37.0302 56.4412 31.6523C56.4412 31.6523 55.0735 31.8514 53.1807 32.4896" stroke="#00DDE2" stroke-width="3" stroke-miterlimit="10" stroke-linecap="round" stroke-linejoin="round"/>
<path d="M71.0504 4.88529H70.9582C70.4527 4.88529 70.0337 4.47858 70.0355 3.9731C70.0412 2.4593 68.8158 1.23047 67.3035 1.23047H58.6077C54.7378 1.23047 51.6006 4.36767 51.6006 8.23758V12.8682C51.6006 13.5483 52.0311 14.154 52.6734 14.3776L52.7866 14.417H55.5766C59.7086 14.417 63.2535 12.0717 65.7511 9.74876C67.1622 8.43626 69.4691 9.39094 69.5249 11.3174C69.5259 11.3467 69.5265 11.3763 69.527 11.406C69.5594 13.0618 70.902 14.417 72.5581 14.417H72.5968L72.7097 14.3778C73.352 14.154 73.7823 13.5484 73.7823 12.8682V7.61742C73.7823 6.10854 72.5592 4.88529 71.0504 4.88529Z" stroke="#00DDE2" stroke-width="3" stroke-miterlimit="10" stroke-linecap="round" stroke-linejoin="round"/>
<path d="M31.0429 4.92717C30.1432 4.92717 29.3399 4.36345 29.0339 3.51738L28.7933 2.85162C28.4873 2.00555 27.684 1.44183 26.7843 1.44183H11.6733C10.8123 1.44183 10.1143 2.13992 10.1143 3.00108V5.35324C10.1143 8.20137 12.4229 10.5101 15.2709 10.5101H25.1189C26.6585 10.5101 28.0763 11.3478 28.8192 12.6964C29.5619 14.0451 30.9797 14.8828 32.5195 14.8828C32.8837 14.883 33.1791 14.5875 33.1791 14.2231V7.06343C33.1791 5.88366 32.2227 4.92717 31.0429 4.92717Z" stroke="#00DDE2" stroke-width="3" stroke-miterlimit="10" stroke-linecap="round" stroke-linejoin="round"/>
<path d="M13.0487 10.0075C13.0259 10.2664 13.0124 10.5323 13.0136 10.8096L13.0208 12.545L13.0237 13.271L12.4449 13.2713C11.1569 13.272 10.1134 14.3167 10.1143 15.6048L10.1159 17.7194C10.1167 19.007 11.1611 20.0501 12.4487 20.0494L13.0475 20.0492C13.1079 22.4309 14.1064 24.7193 15.8993 26.2687C17.3429 27.5161 19.369 28.6015 22.0398 28.6204C24.7102 28.5787 26.7274 27.476 28.1603 26.2164C29.9404 24.6517 30.9197 22.355 30.9604 19.9728L31.5736 19.9702C32.4691 19.9664 33.1919 19.2284 33.1882 18.322L33.1805 14.8263C33.1801 14.6979 33.1634 14.5737 33.1355 14.4539" stroke="#00DDE2" stroke-width="3" stroke-miterlimit="10" stroke-linecap="round" stroke-linejoin="round"/>
<path d="M51.7452 13.5299C51.1793 13.9558 50.812 14.631 50.8125 15.3938L50.8141 17.5084C50.815 18.7959 51.8594 19.839 53.1469 19.8384L53.7458 19.8382C53.8061 22.2198 54.8045 24.5083 56.5975 26.0575C58.0411 27.3049 60.0673 28.3905 62.738 28.4092C65.4085 28.3677 67.4256 27.2648 68.8587 26.0053C70.6386 24.4407 71.6179 22.1438 71.6586 19.7618L72.2719 19.7592C73.1673 19.7552 73.8902 19.0174 73.8864 18.111L73.8789 14.6151C73.8774 14.2586 73.7624 13.93 73.5706 13.6618" stroke="#00DDE2" stroke-width="3" stroke-miterlimit="10" stroke-linecap="round" stroke-linejoin="round"/>
<path d="M57.8112 26.9618V29.3773C57.8112 30.3311 57.2837 31.2068 56.4404 31.6523" stroke="#00DDE2" stroke-width="3" stroke-miterlimit="10" stroke-linecap="round" stroke-linejoin="round"/>
<path d="M68.2575 31.6523C67.4142 31.2066 66.8867 30.331 66.8867 29.3771V27.3644" stroke="#00DDE2" stroke-width="3" stroke-miterlimit="10" stroke-linecap="round" stroke-linejoin="round"/>
<path d="M17.1139 27.1729V29.3771C17.1139 30.331 16.5864 31.2066 15.7432 31.6523" stroke="#00DDE2" stroke-width="3" stroke-miterlimit="10" stroke-linecap="round" stroke-linejoin="round"/>
<path d="M27.5602 31.6523C26.7169 31.2066 26.1895 30.331 26.1895 29.3771V27.5757" stroke="#00DDE2" stroke-width="3" stroke-miterlimit="10" stroke-linecap="round" stroke-linejoin="round"/>
</g>
</g>
<defs>
<clipPath id="clip0_373_622">
<rect width="84" height="84" fill="white"/>
</clipPath>
</defs>
</svg>
