<svg width="110" height="97" viewBox="0 0 110 97" fill="none" xmlns="http://www.w3.org/2000/svg">
<g clip-path="url(#clip0_389_774)">
<g clip-path="url(#clip1_389_774)">
<path d="M74.8713 93.6489H7.33795C3.88914 93.6489 1.17125 90.7067 1.43913 87.2632L4.46167 48.4085C4.70171 45.3238 7.27107 42.9431 10.3605 42.9431H13.1888" stroke="#00DDE2" stroke-width="3" stroke-miterlimit="10" stroke-linecap="round" stroke-linejoin="round"/>
<path d="M84.2257 42.9431H86.6394C89.7288 42.9431 92.2982 45.3236 92.5382 48.4085L95.5607 87.2632C95.8286 90.7067 93.1107 93.6489 89.6619 93.6489H80.707" stroke="#00DDE2" stroke-width="3" stroke-miterlimit="10" stroke-linecap="round" stroke-linejoin="round"/>
<path d="M21.7876 40.3354H16.6777C14.7784 40.3354 13.1986 41.7982 13.0497 43.6946L9.13574 93.575" stroke="#00DDE2" stroke-width="3" stroke-miterlimit="10" stroke-linecap="round" stroke-linejoin="round"/>
<path d="M67.382 40.3354H29.2939" stroke="#00DDE2" stroke-width="3" stroke-miterlimit="10" stroke-linecap="round" stroke-linejoin="round"/>
<path d="M88.2793 93.575L84.3652 43.6946C84.2164 41.7984 82.6364 40.3354 80.7371 40.3354H75.0605" stroke="#00DDE2" stroke-width="3" stroke-miterlimit="10" stroke-linecap="round" stroke-linejoin="round"/>
<path d="M27.8246 24.3428L25.2198 26.7092C23.5117 28.261 22.5392 30.4644 22.543 32.7742L22.5557 52.1427" stroke="#00DDE2" stroke-width="3" stroke-miterlimit="10" stroke-linecap="round" stroke-linejoin="round"/>
<path d="M38.6263 17.4819C36.3224 17.667 34.1348 18.6097 32.4111 20.1756" stroke="#00DDE2" stroke-width="3" stroke-miterlimit="10" stroke-linecap="round" stroke-linejoin="round"/>
<path d="M74.8586 52.1426L74.8713 32.7741C74.8751 30.4645 73.9026 28.2611 72.1945 26.7093L65.0031 20.1758C63.2715 18.6028 61.0715 17.6586 58.7559 17.4797" stroke="#00DDE2" stroke-width="3" stroke-miterlimit="10" stroke-linecap="round" stroke-linejoin="round"/>
<path d="M58.373 23.019H59.2248C59.7869 23.019 60.3284 23.2301 60.742 23.6105L66.7514 29.1367C67.5344 29.8566 68.1204 30.629 68.1202 32.1823L68.0753 52.1427" stroke="#00DDE2" stroke-width="3" stroke-miterlimit="10" stroke-linecap="round" stroke-linejoin="round"/>
<path d="M29.2939 52.1427V32.1823C29.2939 30.7552 29.8991 29.8318 30.704 29.1185L36.9507 23.5829C37.3607 23.2195 37.8892 23.019 38.4368 23.019" stroke="#00DDE2" stroke-width="3" stroke-miterlimit="10" stroke-linecap="round" stroke-linejoin="round"/>
<path d="M56.9848 24.8383H40.0155C39.2485 24.8383 38.627 24.2167 38.627 23.4498V16.7393C38.627 15.9724 39.2485 15.3508 40.0155 15.3508H56.9848C57.7517 15.3508 58.3733 15.9724 58.3733 16.7393V23.4498C58.3733 24.2167 57.7515 24.8383 56.9848 24.8383Z" stroke="#00DDE2" stroke-width="3" stroke-miterlimit="10" stroke-linecap="round" stroke-linejoin="round"/>
<path d="M12.3864 52.1426H85.0284L85.5253 58.4741H11.8896L12.3864 52.1426Z" stroke="#00DDE2" stroke-width="3" stroke-miterlimit="10" stroke-linecap="round" stroke-linejoin="round"/>
<path d="M25.061 83.1726C23.6452 83.1726 22.6006 81.8514 22.9245 80.4733C24.8395 72.3276 32.2826 66.1973 40.8464 66.1973H56.1544C64.7181 66.1973 72.1613 72.3276 74.0763 80.4733C74.4003 81.8516 73.3556 83.1726 71.9398 83.1726H25.061Z" stroke="#00DDE2" stroke-width="3" stroke-miterlimit="10" stroke-linecap="round" stroke-linejoin="round"/>
</g>
</g>
<path fill-rule="evenodd" clip-rule="evenodd" d="M89.0417 18.9271C89.0417 18.1504 89.272 17.3911 89.7035 16.7453C90.135 16.0995 90.7483 15.5962 91.4659 15.2989C92.1835 15.0017 92.9731 14.9239 93.7349 15.0755C94.4967 15.227 95.1964 15.601 95.7456 16.1502C96.2948 16.6994 96.6688 17.3992 96.8204 18.1609C96.9719 18.9227 96.8941 19.7123 96.5969 20.4299C96.2997 21.1475 95.7963 21.7608 95.1505 22.1923C94.5047 22.6238 93.7455 22.8542 92.9688 22.8542H85.1146C84.8742 22.8542 84.6437 22.7587 84.4738 22.5887C84.3038 22.4188 84.2083 22.1883 84.2083 21.9479C84.2083 21.7076 84.3038 21.4771 84.4738 21.3071C84.6437 21.1371 84.8742 21.0417 85.1146 21.0417H92.9688C93.387 21.0417 93.7958 20.9177 94.1435 20.6853C94.4913 20.4529 94.7623 20.1227 94.9224 19.7363C95.0824 19.3499 95.1243 18.9247 95.0427 18.5146C94.9611 18.1044 94.7597 17.7276 94.464 17.4318C94.1683 17.1361 93.7915 16.9347 93.3813 16.8531C92.9711 16.7715 92.5459 16.8134 92.1595 16.9735C91.7731 17.1335 91.4429 17.4045 91.2105 17.7523C90.9782 18.1 90.8542 18.5089 90.8542 18.9271V19.3585C90.8542 19.5988 90.7587 19.8293 90.5887 19.9993C90.4188 20.1692 90.1883 20.2647 89.9479 20.2647C89.7076 20.2647 89.4771 20.1692 89.3071 19.9993C89.1371 19.8293 89.0417 19.5988 89.0417 19.3585V18.9271ZM98.7083 21.3438C98.7083 20.3281 99.0095 19.3352 99.5738 18.4907C100.138 17.6462 100.94 16.9879 101.879 16.5992C102.817 16.2106 103.849 16.1089 104.846 16.307C105.842 16.5052 106.757 16.9943 107.475 17.7125C108.193 18.4307 108.682 19.3457 108.88 20.3419C109.079 21.3381 108.977 22.3706 108.588 23.309C108.2 24.2474 107.541 25.0494 106.697 25.6137C105.852 26.178 104.859 26.4792 103.844 26.4792H83.9062C83.6659 26.4792 83.4354 26.3837 83.2654 26.2137C83.0955 26.0438 83 25.8133 83 25.5729C83 25.3326 83.0955 25.1021 83.2654 24.9321C83.4354 24.7621 83.6659 24.6667 83.9062 24.6667H103.844C104.501 24.6667 105.143 24.4718 105.69 24.1067C106.236 23.7415 106.662 23.2226 106.914 22.6154C107.165 22.0082 107.231 21.3401 107.103 20.6955C106.975 20.0509 106.658 19.4588 106.193 18.9941C105.729 18.5294 105.137 18.2129 104.492 18.0847C103.847 17.9565 103.179 18.0223 102.572 18.2738C101.965 18.5253 101.446 18.9512 101.081 19.4976C100.716 20.0441 100.521 20.6865 100.521 21.3438V21.9479C100.521 22.1883 100.425 22.4188 100.255 22.5887C100.085 22.7587 99.8549 22.8542 99.6146 22.8542C99.3742 22.8542 99.1437 22.7587 98.9738 22.5887C98.8038 22.4188 98.7083 22.1883 98.7083 21.9479V21.3438ZM85.4167 29.1979C85.4167 28.9576 85.5121 28.7271 85.6821 28.5571C85.8521 28.3871 86.0826 28.2917 86.3229 28.2917H103.844C104.859 28.2917 105.852 28.5929 106.697 29.1571C107.541 29.7214 108.2 30.5235 108.588 31.4618C108.977 32.4002 109.079 33.4328 108.88 34.429C108.682 35.4251 108.193 36.3402 107.475 37.0584C106.757 37.7766 105.842 38.2657 104.846 38.4638C103.849 38.662 102.817 38.5603 101.879 38.1716C100.94 37.7829 100.138 37.1247 99.5738 36.2802C99.0095 35.4357 98.7083 34.4428 98.7083 33.4271V32.8229C98.7083 32.5826 98.8038 32.3521 98.9738 32.1821C99.1437 32.0121 99.3742 31.9167 99.6146 31.9167C99.8549 31.9167 100.085 32.0121 100.255 32.1821C100.425 32.3521 100.521 32.5826 100.521 32.8229V33.4271C100.521 34.0843 100.716 34.7267 101.081 35.2732C101.446 35.8197 101.965 36.2456 102.572 36.4971C103.179 36.7486 103.847 36.8144 104.492 36.6862C105.137 36.5579 105.729 36.2415 106.193 35.7767C106.658 35.312 106.975 34.7199 107.103 34.0754C107.231 33.4308 107.165 32.7626 106.914 32.1555C106.662 31.5483 106.236 31.0293 105.69 30.6642C105.143 30.2991 104.501 30.1042 103.844 30.1042H86.3229C86.0826 30.1042 85.8521 30.0087 85.6821 29.8387C85.5121 29.6688 85.4167 29.4383 85.4167 29.1979Z" fill="#00DDE2"/>
<defs>
<clipPath id="clip0_389_774">
<rect width="97" height="97" fill="white"/>
</clipPath>
<clipPath id="clip1_389_774">
<rect width="97" height="97" fill="white" transform="translate(0 6)"/>
</clipPath>
</defs>
</svg>
