<svg width="90" height="90" viewBox="0 0 90 90" fill="none" xmlns="http://www.w3.org/2000/svg">
<path d="M52.7747 6.28255C53.0507 5.55657 53.8628 5.1927 54.5888 5.46692C59.6513 7.39173 63.979 10.7615 67.1044 15.2105C70.3019 19.7632 71.9911 25.121 71.9911 30.7038C71.9911 35.304 70.8485 39.7355 68.6636 43.6958L70.2192 43.2898C70.9733 43.0929 71.7397 43.5429 71.9349 44.2952C72.1317 45.0458 71.6817 45.8158 70.9294 46.0109L65.8897 47.3292C65.772 47.3591 65.6524 47.3749 65.5347 47.3749C65.2552 47.3749 64.981 47.2923 64.7454 47.1324C64.4097 46.9056 64.1882 46.5435 64.139 46.1409L63.4991 40.9712C63.4042 40.2013 63.9509 39.4982 64.7226 39.4032C65.4942 39.3083 66.1956 39.855 66.2905 40.6267L66.4452 41.88C68.2399 38.4505 69.1786 34.6484 69.1786 30.7056C69.1786 20.7282 62.9138 11.6421 53.5886 8.09661C52.8644 7.82063 52.4987 7.00852 52.7747 6.28255ZM62.2616 49.6407C61.7712 49.0396 60.8853 48.9499 60.2823 49.4404C55.9845 52.9507 50.5563 54.8843 44.9999 54.8843C36.6802 54.8843 29.0003 50.5847 24.6022 43.6923L25.7624 44.1845C26.4778 44.4868 27.3022 44.1529 27.6063 43.4374C27.9087 42.722 27.5747 41.8976 26.8593 41.5935L22.0622 39.5615C21.6896 39.4032 21.2659 39.4138 20.9003 39.5913C20.5347 39.7689 20.264 40.0941 20.1567 40.4843L18.7769 45.5081C18.5712 46.257 19.0124 47.0304 19.7612 47.2361C19.886 47.2695 20.0108 47.287 20.1339 47.287C20.7509 47.287 21.3169 46.8775 21.4892 46.2534L21.9163 44.696C26.7679 52.6835 35.5095 57.6968 44.9981 57.6968C51.2015 57.6968 57.2606 55.5382 62.0595 51.6183C62.6624 51.1279 62.7521 50.2419 62.2616 49.6407ZM19.7384 36.2023C19.8122 36.2023 19.8878 36.197 19.9634 36.1847C20.7298 36.0616 21.2519 35.3392 21.1288 34.5728C20.9231 33.2966 20.8194 31.9941 20.8194 30.7056C20.8194 17.7259 31.1009 7.10344 43.947 6.54973L42.945 7.30559C42.3245 7.77317 42.2015 8.65559 42.6708 9.2761C42.9468 9.64173 43.3687 9.83508 43.794 9.83508C44.0894 9.83508 44.3864 9.74192 44.6395 9.55032L48.7968 6.41087C49.1202 6.16653 49.3224 5.79387 49.3522 5.38958C49.3821 4.98528 49.2345 4.58801 48.9497 4.29973L45.2899 0.594265C44.7433 0.0423116 43.8538 0.0370381 43.3019 0.58196C42.7499 1.12688 42.7446 2.01809 43.2896 2.57005L44.4251 3.71966C29.8071 4.02727 18.0087 16.0138 18.0087 30.7056C18.0087 32.1435 18.1247 33.5954 18.3532 35.0193C18.464 35.7101 19.0599 36.2023 19.7384 36.2023ZM86.8868 34.6202V61.3443C86.8868 63.7542 85.9868 65.9462 84.2097 67.857L77.7444 74.8109C76.0517 76.632 75.4452 78.5181 75.7282 81.1794L76.3188 81.3376C76.9271 81.5011 77.4351 81.8913 77.7515 82.438C78.0679 82.9847 78.1522 83.621 77.9888 84.2292L76.9587 88.0736C76.6757 89.1265 75.7194 89.8243 74.677 89.8243C74.4749 89.8243 74.271 89.798 74.0671 89.7435L53.2651 84.1695C52.6569 84.006 52.1489 83.6158 51.8325 83.0691C51.5161 82.5224 51.4317 81.8861 51.5952 81.2779L52.6253 77.4335C52.9628 76.1749 54.2601 75.4279 55.5169 75.7636L55.7366 75.8234L55.0933 70.8962C54.7118 67.98 55.3921 65.563 57.0585 63.9089L68.9466 52.114C70.6956 50.379 73.2233 49.9027 75.403 50.6779V34.6202C75.403 33.0909 76.0024 31.6513 77.0888 30.5632C78.1751 29.4769 79.6165 28.8775 81.144 28.8775C84.3099 28.8792 86.8868 31.4544 86.8868 34.6202ZM75.1552 83.9374L55.2251 78.5972L54.4288 81.5697L74.3589 86.9099L75.1552 83.9374ZM84.0743 34.6202C84.0743 33.0048 82.7595 31.6917 81.144 31.69C80.3671 31.69 79.6323 31.9958 79.0769 32.5513C78.5214 33.1068 78.2155 33.8415 78.2155 34.6185V52.7152C80.1105 55.155 79.9312 58.69 77.6847 60.9189L71.3354 67.2189C70.7835 67.7655 69.894 67.762 69.3474 67.2118C68.8007 66.6599 68.8042 65.7704 69.3544 65.2238L75.7036 58.9238C77.0308 57.6072 77.0396 55.4556 75.7229 54.1302C74.4063 52.8031 72.2548 52.7943 70.9276 54.1109L59.0396 65.9058C58.0042 66.9324 57.6157 68.488 57.8829 70.5306L58.6774 76.6109L72.8577 80.4113C72.7628 77.4423 73.6663 75.0693 75.6843 72.8966L82.1495 65.9427C83.445 64.5505 84.0743 63.0458 84.0743 61.346V34.6202ZM38.4046 81.2779C38.7421 82.5365 37.9915 83.8337 36.7347 84.1695L15.9345 89.7435C15.7306 89.798 15.5249 89.8243 15.3245 89.8243C14.2821 89.8243 13.3259 89.1283 13.0429 88.0736L12.0128 84.2292C11.8493 83.621 11.9337 82.9847 12.2501 82.438C12.5665 81.8913 13.0745 81.5011 13.6827 81.3376L14.2733 81.1794C14.5563 78.5181 13.9499 76.632 12.2571 74.8109L5.79189 67.857C4.01475 65.9462 3.11475 63.756 3.11475 61.3443V34.6202C3.11475 31.4544 5.68994 28.8792 8.85752 28.8775C10.3868 28.8775 11.8265 29.4751 12.9128 30.5632C13.9991 31.6495 14.5985 33.0909 14.5985 34.6202V50.6779C16.7765 49.9027 19.306 50.3808 21.055 52.114L32.9431 63.9089C34.6095 65.563 35.2897 67.9782 34.9083 70.8962L34.2649 75.8234L34.4847 75.7636C35.7415 75.4261 37.0388 76.1749 37.3763 77.4335L38.4046 81.2779ZM17.1421 80.4113L31.3224 76.6109L32.1169 70.5306C32.3841 68.488 31.9938 66.9324 30.9603 65.9058L19.0722 54.1109C17.745 52.7943 15.5952 52.8031 14.2769 54.1302C12.9603 55.4574 12.969 57.6072 14.2962 58.9238L20.6454 65.2238C21.1974 65.7704 21.2009 66.6616 20.6524 67.2118C20.1058 67.7638 19.2146 67.7673 18.6644 67.2189L12.3151 60.9189C10.0687 58.69 9.88936 55.1533 11.7843 52.7152V34.6185C11.7843 33.8415 11.4784 33.1068 10.9229 32.5513C10.3675 31.9958 9.63272 31.69 8.85576 31.69C7.24033 31.69 5.92549 33.0048 5.92549 34.6202V61.3443C5.92549 63.0441 6.55479 64.5488 7.85029 65.9409L14.3155 72.8949C16.3353 75.0675 17.2388 77.4406 17.1421 80.4113ZM35.571 81.5697L34.7747 78.5972L14.8446 83.9374L15.6409 86.9099L35.571 81.5697ZM44.9999 12.8286C49.8831 12.8286 53.8558 16.8013 53.8558 21.6845C53.8558 24.8503 52.1858 27.6312 49.6792 29.1974C55.3833 31.0659 59.6776 36.2427 60.147 42.4988C60.1962 43.1544 59.9694 43.8066 59.5229 44.2865C59.0765 44.7663 58.4436 45.0423 57.7862 45.0423H32.2136C31.5562 45.0423 30.9216 44.7663 30.4769 44.2865C30.0321 43.8066 29.8036 43.1544 29.8528 42.497C30.3222 36.2409 34.6165 31.0642 40.3206 29.1956C37.8157 27.6294 36.1458 24.8486 36.1458 21.6827C36.144 16.8013 40.1167 12.8286 44.9999 12.8286ZM44.9999 31.2593C38.721 31.2593 33.4089 36.0406 32.7005 42.2316H57.2976C56.5909 36.0423 51.2788 31.2593 44.9999 31.2593ZM44.9999 15.6411C41.6671 15.6411 38.9565 18.3517 38.9565 21.6845C38.9565 25.0173 41.6671 27.7279 44.9999 27.7279C48.3327 27.7279 51.0433 25.0173 51.0433 21.6845C51.0433 18.3517 48.3327 15.6411 44.9999 15.6411Z" fill="black"/>
</svg>
