<svg width="90" height="90" viewBox="0 0 90 90" fill="none" xmlns="http://www.w3.org/2000/svg">
<path d="M78.3691 76.5144C78.1856 75.6808 77.6899 74.9701 76.9733 74.5134L68.5707 69.1586C70.9492 62.8753 68.9195 55.6115 63.4051 51.5093L69.5644 42.7953C70.366 42.108 70.765 41.3532 70.765 40.5254C70.765 38.7718 69.0144 37.3629 65.4132 36.2183C62.697 35.3548 58.9768 34.6536 54.606 34.1766V32.8543H68.2663C68.9446 32.8543 69.4945 32.3045 69.4945 31.6262V21.0178C69.4945 16.7934 66.0578 13.3567 61.8336 13.3567H61.7677C63.1205 11.9374 63.9535 10.0188 63.9535 7.90799C63.9535 3.54914 60.4073 0.00292969 56.0484 0.00292969C51.6868 0.00292969 48.1383 3.54914 48.1383 7.90799C48.1383 10.0188 48.972 11.9374 50.3255 13.3567H50.2582C49.5361 13.3567 48.8319 13.4555 48.1534 13.6513C46.8275 11.141 44.1909 9.42533 41.1599 9.42533C38.1293 9.42533 35.4931 11.1404 34.1668 13.6501C33.4894 13.4551 32.7868 13.3567 32.0662 13.3567H31.9954C33.3482 11.9374 34.1812 10.0188 34.1812 7.90799C34.1812 3.54914 30.635 0.00292969 26.2762 0.00292969C21.9172 0.00292969 18.371 3.54914 18.371 7.90799C18.371 10.0188 19.2042 11.9374 20.557 13.3567H20.4912C16.2669 13.3567 12.8302 16.7934 12.8302 21.0178V31.6262C12.8302 32.3045 13.38 32.8543 14.0583 32.8543H27.7137V34.1766C23.3429 34.6535 19.6227 35.3548 16.9065 36.2183C13.3053 37.3629 11.5547 38.7718 11.5547 40.5254C11.5547 41.3532 11.9537 42.108 12.7553 42.7953L31.4858 69.2926V88.7686C31.4858 89.172 31.6839 89.5498 32.016 89.7792C32.2241 89.923 32.4681 89.997 32.7144 89.997C32.8608 89.997 33.0079 89.9708 33.1487 89.9175L50.0404 83.5296C50.5182 83.3489 50.8342 82.8915 50.8342 82.3807V78.6395C51.9545 78.9006 53.1013 79.0349 54.2579 79.0349C55.3657 79.0349 56.4821 78.9136 57.59 78.6682C60.1492 78.1013 62.4653 76.9132 64.377 75.2257L73.0168 80.7335C73.532 81.059 74.1173 81.2267 74.7143 81.2267C74.9456 81.2267 75.1789 81.2014 75.4102 81.1504C76.2447 80.9665 76.9538 80.4703 77.4043 79.7572L77.9459 78.9076C78.4018 78.1957 78.5521 77.3456 78.3691 76.5144ZM30.1703 35.291C30.1703 35.2898 30.1703 35.2887 30.1703 35.2877V30.4403C30.1703 27.5705 32.505 25.2358 35.3746 25.2358H46.9498C49.8168 25.2358 52.1493 27.5705 52.1493 30.4403V35.2877V35.291V39.8204H30.1703V35.291ZM50.5948 7.90816C50.5948 4.90389 53.0413 2.45947 56.0484 2.45947C59.0527 2.45947 61.497 4.90371 61.497 7.90816C61.497 10.9126 59.0527 13.3569 56.0484 13.3569C53.0412 13.3569 50.5948 10.9126 50.5948 7.90816ZM50.2582 15.8132H61.8334C64.703 15.8132 67.0378 18.1479 67.0378 21.0178V30.3978H54.6046C54.5815 26.1929 51.157 22.7791 46.9496 22.7791H46.8788C48.2314 21.3598 49.0646 19.4412 49.0646 17.3304C49.0646 16.8707 49.023 16.4211 48.9474 15.9827C49.3714 15.8714 49.8093 15.8132 50.2582 15.8132ZM41.1599 11.8819C44.1642 11.8819 46.6085 14.3261 46.6085 17.3306C46.6085 20.3348 44.1642 22.7793 41.1599 22.7793C38.1555 22.7793 35.7113 20.335 35.7113 17.3306C35.7113 14.3261 38.1555 11.8819 41.1599 11.8819ZM20.8277 7.90816C20.8277 4.90389 23.2719 2.45947 26.2764 2.45947C29.2806 2.45947 31.7249 4.90371 31.7249 7.90816C31.7249 10.9126 29.2806 13.3569 26.2764 13.3569C23.2719 13.3569 20.8277 10.9126 20.8277 7.90816ZM15.2867 21.0178C15.2867 18.1479 17.6214 15.8132 20.4912 15.8132H32.0662C32.5136 15.8132 32.9499 15.8709 33.3721 15.9816C33.2964 16.4204 33.2547 16.8705 33.2547 17.3306C33.2547 19.4413 34.0879 21.36 35.4405 22.7793H35.3746C31.1647 22.7793 27.7378 26.1931 27.7148 30.398H15.2867V21.0178ZM27.7139 36.6472V41.0486C27.7139 41.7269 28.2638 42.2767 28.9421 42.2767H53.3776C54.056 42.2767 54.6058 41.7269 54.6058 41.0486V36.6472C65.6171 37.8711 68.2563 40.0355 68.3085 40.524C68.2992 40.6052 68.196 40.7622 67.9409 40.9709C67.9198 40.9856 67.897 40.9967 67.8766 41.013C67.6862 41.164 67.4538 41.315 67.1826 41.4653C66.1288 42.0408 64.1866 42.7826 60.7615 43.4673C55.6751 44.4844 48.9922 45.059 41.8747 45.0952C41.8657 45.0952 41.8567 45.0954 41.8478 45.0954C41.6189 45.0964 41.3895 45.0971 41.1598 45.0971C40.93 45.0971 40.7006 45.0966 40.4718 45.0954C40.4626 45.0954 40.4537 45.0952 40.4445 45.0952C33.327 45.059 26.6439 44.4844 21.5577 43.4673C18.1486 42.7858 16.209 42.0477 15.1519 41.4739C14.874 41.3208 14.6367 41.1669 14.4428 41.013C14.4201 40.9951 14.3951 40.9825 14.3716 40.9665C14.1214 40.7608 14.02 40.6065 14.0109 40.5267C14.0633 40.0357 16.7026 37.8711 27.7139 36.6472ZM48.3773 81.532L33.9422 86.9911V68.9023C33.9422 68.6483 33.8636 68.4006 33.717 68.1934L17.286 44.949C18.3291 45.264 19.5153 45.5575 20.8489 45.8302C21.3803 45.9388 21.9291 46.0423 22.4932 46.1413C22.5591 46.1529 22.6263 46.1641 22.6925 46.1756C22.8114 46.196 22.9302 46.2165 23.0504 46.2366C23.1828 46.2587 23.3167 46.2805 23.4509 46.3021C23.4959 46.3093 23.5409 46.3165 23.586 46.3237C27.2235 46.9038 31.5117 47.2995 36.1716 47.4651C36.1992 47.4662 36.227 47.467 36.2548 47.4681C36.4617 47.4753 36.6691 47.4823 36.8774 47.4885C36.9245 47.4899 36.9716 47.4911 37.0187 47.4925C37.3675 47.5027 37.7181 47.5117 38.0708 47.5192C38.1558 47.5212 38.2407 47.5233 38.326 47.5249C38.4555 47.5275 38.5858 47.5294 38.7159 47.5317C38.8656 47.5344 39.0154 47.5368 39.1657 47.5389C39.2822 47.5405 39.3988 47.5419 39.5157 47.5433C39.6922 47.5454 39.8692 47.547 40.0462 47.5484C40.1416 47.5491 40.2371 47.55 40.3329 47.5505C40.608 47.5521 40.8836 47.5532 41.1599 47.5532C41.4363 47.5532 41.7119 47.5521 41.987 47.5505C42.0828 47.55 42.1781 47.5491 42.2737 47.5484C42.4507 47.547 42.6275 47.5454 42.8042 47.5433C42.9211 47.5419 43.0378 47.5405 43.1544 47.5389C43.3045 47.5368 43.4542 47.5344 43.6038 47.5317C43.7339 47.5294 43.8642 47.5275 43.9939 47.5249C44.0835 47.5231 44.1727 47.5208 44.262 47.5189C44.6091 47.5113 44.9544 47.5025 45.298 47.4925C45.3463 47.4911 45.3949 47.4899 45.4432 47.4883C45.6508 47.482 45.8575 47.4751 46.0639 47.4679C46.0927 47.4669 46.1215 47.4658 46.1502 47.4649C50.8044 47.2993 55.0876 46.9044 58.7221 46.3255C58.7759 46.3169 58.8293 46.3085 58.8829 46.2998C59.0098 46.2793 59.1362 46.2587 59.2615 46.2378C59.3951 46.2155 59.5271 46.1928 59.659 46.1701C59.7126 46.1608 59.7669 46.1518 59.8202 46.1423C60.3865 46.043 60.9378 45.939 61.4713 45.83C62.8051 45.5573 63.9913 45.2638 65.0344 44.9488L61.3208 50.2024C54.3827 46.5952 45.6896 48.8297 41.4099 55.5459L41.4101 55.5458C39.2165 58.9865 38.4946 63.0748 39.3768 67.0575C40.2591 71.04 42.6398 74.4412 46.0806 76.6344C46.8189 77.1053 47.5874 77.5068 48.3779 77.8408V81.532H48.3773ZM57.0583 76.2698C53.7158 77.0101 50.2863 76.4043 47.4009 74.5635C44.5131 72.7228 42.515 69.8684 41.7748 66.5265C41.0344 63.1845 41.6404 59.7538 43.481 56.8664H43.4811C45.9213 53.037 50.071 50.9428 54.3071 50.9428C56.6621 50.9428 59.0441 51.5903 61.1733 52.9468C67.1332 56.7462 68.8915 64.685 65.0926 70.6443C63.2541 73.5315 60.401 75.5293 57.0583 76.2698ZM75.8755 77.5849L75.3299 78.4411C75.1947 78.655 74.9908 78.7274 74.8811 78.7517C74.6892 78.7941 74.4925 78.7607 74.3327 78.6596L66.1109 73.4183C66.4861 72.9569 66.84 72.4738 67.1643 71.9644C67.2842 71.7764 67.3971 71.5856 67.5078 71.3942L75.6531 76.5854C75.8156 76.6887 75.9281 76.8513 75.9704 77.0429C76.0119 77.2319 75.9789 77.4237 75.8755 77.5849ZM65.3844 61.2973C64.7285 58.3321 62.9565 55.8005 60.3955 54.1687C57.8344 52.5369 54.7923 52.0003 51.8285 52.6575C48.8655 53.3149 46.3349 55.0875 44.7032 57.6488C43.071 60.2078 42.5335 63.2494 43.1895 66.2134C43.8455 69.1781 45.6174 71.7095 48.1784 73.3413C50.0267 74.5189 52.1257 75.1264 54.2657 75.1262C55.0906 75.1262 55.9221 75.0359 56.747 74.853C59.7114 74.1963 62.2414 72.4252 63.8707 69.866C65.5027 67.3048 66.0404 64.2617 65.3844 61.2973ZM61.7989 68.5465C60.5217 70.5522 58.5389 71.9402 56.2156 72.4549C53.8912 72.9696 51.5057 72.5489 49.4983 71.2696C47.4909 69.9906 46.1022 68.0065 45.5879 65.6827C45.0737 63.3594 45.4952 60.9753 46.7746 58.9695C46.7746 58.9693 46.7747 58.9691 46.7747 58.9689C48.0541 56.9608 50.0378 55.5711 52.3604 55.056C53.0072 54.9126 53.6587 54.8416 54.3056 54.8416C55.9816 54.8416 57.627 55.3176 59.0754 56.2406C61.083 57.5196 62.4717 59.5038 62.9858 61.828C63.5002 64.152 63.0786 66.5379 61.7989 68.5465ZM59.2628 61.3908L53.632 68.3917C53.4043 68.6749 53.063 68.8426 52.6995 68.8498C52.6914 68.8499 52.6831 68.8499 52.6748 68.8499C52.3203 68.8499 51.9828 68.6968 51.7494 68.4293L48.371 64.5575C47.9251 64.0464 47.9778 63.2706 48.489 62.8247C49 62.3787 49.7757 62.4315 50.2218 62.9426L52.6363 65.7096L57.3482 59.8512C57.7736 59.3226 58.5468 59.2389 59.075 59.664C59.604 60.089 59.6878 60.8621 59.2628 61.3908Z" fill="#0000FF"/>
</svg>
