<svg width="90" height="90" viewBox="0 0 90 90" fill="none" xmlns="http://www.w3.org/2000/svg">
<path fill-rule="evenodd" clip-rule="evenodd" d="M28.2169 70.0541C28.9927 71.4512 28.7735 73.2585 27.5751 74.4211L14.2002 87.3996C12.7689 88.7879 10.462 88.7535 9.07322 87.3223L4.24446 82.346C2.85546 80.9146 2.89058 78.6077 4.32158 77.2188L17.6961 64.2405C18.8536 63.1171 20.5848 62.9252 21.9392 63.6502L27.8349 57.9292C25.3113 53.9461 23.8503 49.2232 23.8503 44.159C23.8503 40.5966 24.5735 37.2031 25.8806 34.1171H9.40357C9.00299 34.1171 8.62128 33.9468 8.3534 33.6488C8.08569 33.3507 7.95722 32.9529 7.99993 32.5546C8.72081 25.8419 13.3 20.2836 19.4749 18.1456C17.1918 16.4286 15.7106 13.697 15.7106 10.6312C15.7106 5.45741 19.9285 1.23535 25.1024 1.23535C30.2809 1.23535 34.4982 5.45759 34.4982 10.6312C34.4982 13.6972 33.0171 16.4289 30.7327 18.146C33.0129 18.9352 35.0751 20.1906 36.8056 21.7981C40.5792 19.6315 44.9532 18.3924 49.6168 18.3924C63.8474 18.3924 75.3836 29.9284 75.3836 44.159C75.3836 48.6355 74.2417 52.8454 72.2338 56.5137L86.0142 80.3773L86.0147 80.378C87.028 82.1379 87.028 84.2072 86.0135 85.9695L86.0121 85.9716C84.9937 87.7261 83.2011 88.7648 81.1694 88.7648H42.9399C40.912 88.7648 39.1135 87.7246 38.0989 85.9681L38.0986 85.9672C37.0853 84.2072 37.0853 82.1379 38.0989 80.3773L44.4344 69.404C40.5192 68.6042 36.9272 66.9168 33.8778 64.5609L28.2169 70.0541ZM24.0273 65.5582L26.3396 67.9412L31.7329 62.7078C30.9355 61.9389 30.1876 61.1189 29.4942 60.2533L24.0273 65.5582ZM28.9819 34.1171C27.5031 37.1499 26.6737 40.5576 26.6737 44.159C26.6737 55.5761 35.013 65.0466 45.9332 66.8081L47.9165 63.3726C38.0333 62.5139 30.283 54.2397 30.283 44.159C30.283 40.4801 31.3152 37.0421 33.1064 34.1171H28.9819ZM25.1024 20.027C18.2317 20.027 12.4862 24.8485 11.0628 31.2936H39.1426C37.7227 24.8485 31.9766 20.027 25.1024 20.027ZM38.7577 23.9431C39.4971 24.9069 40.1368 25.9515 40.6615 27.0609C43.3387 25.6628 46.3851 24.8716 49.617 24.8716C60.297 24.8716 68.9509 33.5067 68.9509 44.159C68.9509 46.0188 68.6868 47.8171 68.1944 49.5188L70.5416 53.5834C71.8385 50.7084 72.5601 47.5179 72.5601 44.159C72.5601 31.4877 62.2881 21.2157 49.6168 21.2157C45.6882 21.2157 41.9903 22.2029 38.7577 23.9431ZM41.6601 29.729C41.9174 30.6426 42.1013 31.5869 42.2047 32.5554C42.2474 32.9536 42.1188 33.3512 41.8509 33.6491C41.5832 33.947 41.2015 34.1171 40.801 34.1171H36.5315C34.3837 36.8958 33.1066 40.3785 33.1066 44.159C33.1066 47.8564 34.3283 51.2685 36.391 54.0163C37.6929 50.0759 40.7135 46.9137 44.5673 45.4155C42.9212 43.9963 41.8759 41.9 41.8759 39.5718C41.8759 35.3229 45.357 31.8472 49.617 31.8472C53.877 31.8472 57.358 35.3229 57.358 39.5718C57.358 41.9 56.3128 43.9961 54.6667 45.4155C55.6565 45.8002 56.5913 46.2946 57.4562 46.8839C58.5003 45.3583 60.1793 44.4728 62.0546 44.4728C63.5876 44.4728 64.9842 45.0615 66.0132 46.1058C66.0886 45.4674 66.1274 44.8178 66.1274 44.159C66.1274 35.0642 58.7354 27.6952 49.617 27.6952C46.732 27.6952 44.0199 28.4325 41.6601 29.729ZM25.1024 17.2035C28.7246 17.2035 31.6747 14.2501 31.6747 10.6312C31.6747 7.01229 28.7246 4.05888 25.1024 4.05888C21.4835 4.05888 18.5342 7.01247 18.5342 10.6312C18.5342 14.2499 21.4835 17.2035 25.1024 17.2035ZM49.5046 60.6223L56.0253 49.3278C54.2149 48.0482 52.0037 47.2963 49.617 47.2963C44.1305 47.2963 39.5702 51.2695 38.6763 56.4901C41.5632 59.0388 45.3519 60.5948 49.5046 60.6223ZM49.617 44.4728C52.3214 44.4728 54.5345 42.2692 54.5345 39.5718C54.5345 36.8743 52.3214 34.6707 49.617 34.6707C46.9124 34.6707 44.6995 36.8743 44.6995 39.5718C44.6995 42.2692 46.9124 44.4728 49.617 44.4728ZM11.0995 85.3561C11.4069 85.6728 11.9176 85.6801 12.2343 85.3728L25.6089 72.3946C25.9255 72.0874 25.933 71.5769 25.6258 71.2603L20.797 66.2838C20.4898 65.9671 19.9791 65.9595 19.6625 66.2667L6.28799 79.2451C5.97122 79.5523 5.96328 80.0628 6.27069 80.3796L11.0995 85.3561ZM64.4492 48.6791C63.9475 47.8081 63.0603 47.2963 62.0546 47.2963C61.0516 47.2963 60.1618 47.8081 59.6598 48.68L40.5453 81.7871C40.0431 82.6596 40.0431 83.6852 40.545 84.5575C41.0469 85.4261 41.9366 85.9412 42.9399 85.9412H81.1694C82.1762 85.9412 83.0636 85.4251 83.569 84.5563C84.0702 83.684 84.0699 82.6591 83.568 81.7873L64.4495 48.68L64.4492 48.6791ZM63.1097 74.3591C64.693 74.8181 65.8558 76.2828 65.8558 78.011C65.8558 80.1052 64.1488 81.8122 62.0546 81.8122C59.9605 81.8122 58.2535 80.1052 58.2535 78.011C58.2535 76.2828 59.4162 74.8183 60.9995 74.3593C59.7452 73.9336 58.8309 72.7695 58.7809 71.3731L58.3062 58.3091L58.306 58.3049C58.2782 57.3848 58.5859 56.5836 59.2228 55.9185L59.2255 55.9158C59.8692 55.2511 60.6603 54.9158 61.584 54.9158H62.5253C63.4502 54.9158 64.2483 55.2537 64.8865 55.9185C65.53 56.5846 65.838 57.3906 65.803 58.313L65.3322 71.372C65.2825 72.7688 64.365 73.9335 63.1097 74.3591ZM62.0546 71.7089C62.2996 71.7089 62.5018 71.5163 62.5106 71.2711L62.9813 58.2099V58.2087C62.9862 58.0818 62.9439 57.9714 62.8528 57.8773L62.85 57.8745C62.7626 57.7832 62.6522 57.7393 62.5253 57.7393H61.584C61.4559 57.7393 61.3463 57.7859 61.2543 57.8796C61.1665 57.9736 61.1248 58.0875 61.1282 58.2172L61.6027 71.2709V71.2712C61.6113 71.5155 61.8104 71.7089 62.0546 71.7089ZM62.0546 78.9886C62.5932 78.9886 63.0323 78.5496 63.0323 78.011C63.0323 77.4724 62.5932 77.0335 62.0546 77.0335C61.516 77.0335 61.077 77.4724 61.077 78.011C61.077 78.5496 61.516 78.9886 62.0546 78.9886Z" fill="black"/>
</svg>
