<svg width="90" height="91" viewBox="0 0 90 91" fill="none" xmlns="http://www.w3.org/2000/svg">
<path d="M69.3621 24.6198L60.9246 15.5255C60.6588 15.2397 60.2876 15.0776 59.8994 15.0776H39.6551C39.2669 15.0776 38.8943 15.2397 38.6299 15.5255L30.1924 24.6198C29.7087 25.1417 29.6834 25.9464 30.1334 26.4981L48.693 49.2481C49.2654 49.9193 50.2905 49.9193 50.8629 49.2481L69.4226 26.4981C69.8726 25.945 69.8459 25.1417 69.3621 24.6198ZM59.2891 17.92L65.0885 24.1705H58.496L55.398 17.92H59.2891ZM52.2523 17.92L55.3502 24.1705H44.2591L47.5329 17.92H52.2523ZM40.2626 17.92H44.3491L41.0768 24.1705H34.4632L40.2626 17.92ZM34.1988 27.0143H40.9235L45.8566 41.3041L34.1988 27.0143ZM49.7744 44.027L43.9019 27.0143H55.6469L49.7744 44.027ZM53.6937 41.3041L58.6268 27.0143H65.3515L53.6937 41.3041Z" fill="#0000FF"/>
<path d="M81.3546 32.7104C80.0299 17.2276 67.9066 4.75209 52.5293 3.04726C43.1735 2.01072 33.8402 5.01514 26.9172 11.2885C20.163 17.4096 16.2522 26.1186 16.1482 35.2314L9.10284 48.1804C8.30269 49.6506 8.3294 51.391 9.17315 52.8356C10.0253 54.2945 11.5399 55.1647 13.2232 55.1647H16.1453V70.4356C16.1453 72.8343 17.2014 75.0866 19.0422 76.6151C20.9027 78.1592 23.3257 78.7721 25.6966 78.3L32.5985 76.9165V86.7303C32.5985 87.5152 33.2285 88.1522 34.0047 88.1522C34.781 88.1522 35.411 87.5152 35.411 86.7303V76.3648C38.3683 75.7051 45.6133 73.396 45.6133 66.6264C45.6133 65.8415 44.9833 65.2045 44.2071 65.2045C43.4308 65.2045 42.8008 65.8415 42.8008 66.6264C42.8008 72.4632 33.9049 73.7628 33.8149 73.7756C33.7207 73.7855 25.2494 75.4932 25.1496 75.5103C23.6055 75.8188 22.0347 75.4193 20.8267 74.4169C19.6385 73.4315 18.9578 71.9798 18.9578 70.4356V53.7428C18.9578 52.9579 18.3278 52.3209 17.5516 52.3209H13.2232C12.5453 52.3209 11.935 51.9726 11.5947 51.3882C11.2558 50.8095 11.246 50.1398 11.5666 49.5497L18.7835 36.285C18.8988 36.076 18.9578 35.84 18.9578 35.5997C18.9578 27.1594 22.5424 19.0704 28.7932 13.4056C35.2155 7.58589 43.5292 4.91134 52.2213 5.87395C66.2683 7.4309 77.3411 18.8201 78.5519 32.955C79.3422 42.1872 75.9503 51.0995 69.2453 57.4098C68.9444 57.6743 68.8432 58.0625 68.7939 58.4464V86.7303C68.7939 87.5152 69.4239 88.1522 70.2002 88.1522C70.9764 88.1522 71.6064 87.5152 71.6064 86.7303V59.0478C78.6475 52.1659 82.2011 42.6081 81.3532 32.709L81.3546 32.7104Z" fill="#0000FF"/>
</svg>
