<svg width="90" height="89" viewBox="0 0 90 89" fill="none" xmlns="http://www.w3.org/2000/svg">
<path d="M50.1625 81.4275H39.9332C39.1576 81.4275 38.5283 80.8052 38.5283 80.0382V75.9138C38.5283 75.1468 39.1576 74.5245 39.9332 74.5245H40.3942V54.6822C40.3942 53.9152 41.0234 53.293 41.7991 53.293H48.2966C49.0722 53.293 49.7015 53.9152 49.7015 54.6822V74.5245H50.1625C50.9381 74.5245 51.5673 75.1468 51.5673 75.9138V80.0382C51.5673 80.8052 50.9381 81.4275 50.1625 81.4275ZM41.3381 78.6489H48.7594V77.3031H48.2984C47.5228 77.3031 46.8936 76.6808 46.8936 75.9138V56.0715H43.2039V75.9138C43.2039 76.6808 42.5747 77.3031 41.7991 77.3031H41.3381V78.6489Z" fill="black"/>
<path d="M45.0478 52.1627C42.5545 52.1627 40.5259 50.1565 40.5259 47.6909C40.5259 45.2254 42.5545 43.2192 45.0478 43.2192C47.5411 43.2192 49.5698 45.2254 49.5698 47.6909C49.5698 50.1565 47.5411 52.1627 45.0478 52.1627ZM45.0478 45.9978C44.1039 45.9978 43.3356 46.7575 43.3356 47.6909C43.3356 48.6244 44.1039 49.3841 45.0478 49.3841C45.9917 49.3841 46.76 48.6244 46.76 47.6909C46.76 46.7575 45.9917 45.9978 45.0478 45.9978Z" fill="black"/>
<path d="M45.0478 86.8129C31.3924 86.8129 20.2832 75.8272 20.2832 62.3235C20.2832 48.8197 31.3924 37.834 45.0478 37.834C58.7033 37.834 69.8125 48.8197 69.8125 62.3235C69.8125 75.8272 58.7033 86.8129 45.0478 86.8129ZM45.0478 40.6125C32.9417 40.6125 23.093 50.3519 23.093 62.3235C23.093 74.295 32.9417 84.0344 45.0478 84.0344C57.1539 84.0344 67.0027 74.295 67.0027 62.3235C67.0027 50.3519 57.1539 40.6125 45.0478 40.6125Z" fill="black"/>
<path d="M62.0508 39.3606C61.716 39.3606 61.3831 39.2431 61.1197 39.0115C60.6587 38.6099 60.516 37.9587 60.7666 37.4034L64.0849 30.0609H63.0825C59.5392 30.0609 56.6562 27.21 56.6562 23.7061V8.80941C56.6562 5.30548 59.5392 2.45459 63.0825 2.45459H81.7337C85.277 2.45459 88.1599 5.30548 88.1599 8.80941V23.7061C88.1599 27.21 85.277 30.0609 81.7337 30.0609H78.0056L62.777 39.1599C62.552 39.2955 62.2995 39.3606 62.0508 39.3606ZM63.0825 5.23313C61.0886 5.23313 59.466 6.83766 59.466 8.80941V23.7061C59.466 25.6778 61.0886 27.2823 63.0825 27.2823H66.2526C66.7282 27.2823 67.1727 27.5211 67.4306 27.9155C67.6886 28.3098 67.7288 28.8091 67.5349 29.2378L65.1623 34.4874L76.8861 27.4831C77.1056 27.3529 77.3563 27.2823 77.6123 27.2823H81.7319C83.7258 27.2823 85.3483 25.6778 85.3483 23.7061V8.80941C85.3483 6.83766 83.7258 5.23313 81.7319 5.23313H63.0825Z" fill="black"/>
<path d="M79.6813 12.3493H65.1368C64.3612 12.3493 63.7319 11.7271 63.7319 10.9601C63.7319 10.1931 64.3612 9.5708 65.1368 9.5708H79.6813C80.4569 9.5708 81.0862 10.1931 81.0862 10.9601C81.0862 11.7271 80.4569 12.3493 79.6813 12.3493Z" fill="black"/>
<path d="M79.6813 17.6477H65.1368C64.3612 17.6477 63.7319 17.0254 63.7319 16.2584C63.7319 15.4914 64.3612 14.8691 65.1368 14.8691H79.6813C80.4569 14.8691 81.0862 15.4914 81.0862 16.2584C81.0862 17.0254 80.4569 17.6477 79.6813 17.6477Z" fill="black"/>
<path d="M79.6813 22.946H65.1368C64.3612 22.946 63.7319 22.3237 63.7319 21.5567C63.7319 20.7898 64.3612 20.1675 65.1368 20.1675H79.6813C80.4569 20.1675 81.0862 20.7898 81.0862 21.5567C81.0862 22.3237 80.4569 22.946 79.6813 22.946Z" fill="black"/>
<path d="M28.0447 39.3606C27.7941 39.3606 27.5435 39.2955 27.3185 39.1599L12.0898 30.0609H8.36177C4.81847 30.0609 1.93555 27.21 1.93555 23.7061V8.80941C1.93555 5.30548 4.81847 2.45459 8.36177 2.45459H27.013C30.5563 2.45459 33.4392 5.30548 33.4392 8.80941V23.7061C33.4392 27.21 30.5563 30.0609 27.013 30.0609H26.0105L29.3288 37.4034C29.5795 37.9569 29.4368 38.6099 28.9758 39.0115C28.7124 39.2431 28.3794 39.3606 28.0447 39.3606ZM8.36177 5.23313C6.36786 5.23313 4.7453 6.83766 4.7453 8.80941V23.7061C4.7453 25.6778 6.36786 27.2823 8.36177 27.2823H12.4813C12.7374 27.2823 12.988 27.3511 13.2075 27.4831L24.9313 34.4874L22.5587 29.2378C22.3648 28.8073 22.4032 28.3098 22.663 27.9155C22.9227 27.5211 23.3654 27.2823 23.841 27.2823H27.0112C29.0051 27.2823 30.6276 25.6778 30.6276 23.7061V8.80941C30.6276 6.83766 29.0051 5.23313 27.0112 5.23313H8.36177Z" fill="black"/>
<path d="M24.9587 12.3493H10.4142C9.63855 12.3493 9.00928 11.7271 9.00928 10.9601C9.00928 10.1931 9.63855 9.5708 10.4142 9.5708H24.9587C25.7343 9.5708 26.3635 10.1931 26.3635 10.9601C26.3635 11.7271 25.7361 12.3493 24.9587 12.3493Z" fill="black"/>
<path d="M24.9587 17.6477H10.4142C9.63855 17.6477 9.00928 17.0254 9.00928 16.2584C9.00928 15.4914 9.63855 14.8691 10.4142 14.8691H24.9587C25.7343 14.8691 26.3635 15.4914 26.3635 16.2584C26.3635 17.0254 25.7361 17.6477 24.9587 17.6477Z" fill="black"/>
<path d="M24.9587 22.946H10.4142C9.63855 22.946 9.00928 22.3237 9.00928 21.5567C9.00928 20.7898 9.63855 20.1675 10.4142 20.1675H24.9587C25.7343 20.1675 26.3635 20.7898 26.3635 21.5567C26.3635 22.3237 25.7361 22.946 24.9587 22.946Z" fill="black"/>
</svg>
