<svg width="90" height="91" viewBox="0 0 90 91" fill="none" xmlns="http://www.w3.org/2000/svg">
<path d="M73.3639 61.2184C72.9548 60.8048 72.273 60.8048 71.7275 61.0805L70.5003 61.9078L68.1821 58.4608C76.0912 52.8078 81.1366 43.4321 81.1366 32.9533C81.1366 15.7184 67.2275 1.65479 50.1821 1.65479C33.1366 1.65479 19.2275 15.7184 19.2275 32.9533C19.2275 50.1881 33.1366 64.2518 50.1821 64.2518C55.9094 64.2518 61.2275 62.5972 65.8639 59.9775L68.1821 63.4245L66.9548 64.2518C66.4094 64.5275 66.273 65.2169 66.4094 65.7684C67.0912 68.1124 73.773 88.6563 82.0912 89.3457H82.3639C84.1366 89.3457 87.6821 87.1396 88.3639 85.2093C91.0912 77.3502 75.273 62.873 73.3639 61.2184ZM50.1821 4.41236C65.7275 4.41236 78.4094 17.2351 78.4094 32.9533C78.4094 39.2957 76.3639 45.0866 72.9548 49.7745C72.8185 49.3608 72.6821 46.6033 69.9548 45.776L58.6366 42.1911L57.0003 38.4684C63.9548 31.9881 65.3185 19.8548 60.5457 14.2018C56.1821 8.96236 43.9094 8.96236 39.4094 14.2018C34.773 19.7169 36.0003 32.2639 43.0912 38.6063L41.5912 42.1911L30.273 45.776C27.5457 46.6033 27.4094 49.3608 27.273 49.7745C23.8639 45.0866 21.8184 39.2957 21.8184 32.9533C21.9548 17.2351 34.6366 4.41236 50.1821 4.41236ZM41.5912 15.9942C45.0003 11.9957 55.2275 11.9957 58.5003 15.9942C60.1366 17.9245 60.8185 21.0957 60.5457 25.0942C57.5457 22.3366 56.5912 18.8896 56.5912 18.8896C56.1821 17.373 54.1366 17.5108 53.8639 19.0275C53.8639 19.0275 52.5003 24.129 39.5457 24.5427C39.4094 20.6821 40.0912 17.7866 41.5912 15.9942ZM55.0912 22.3366C56.0457 24.129 57.5457 26.473 60.1366 28.2654C59.4548 30.7472 56.7275 37.779 50.1821 39.2957C44.8639 38.1927 40.6366 32.126 39.9548 27.3002C48.9548 26.8866 53.1821 24.4048 55.0912 22.3366ZM45.5457 40.2608C46.773 40.9502 48.273 41.6396 49.9094 41.9154H50.1821H50.4548C52.2275 41.6396 53.7275 40.9502 54.9548 40.123L56.3185 43.2942C55.773 44.5351 54.1366 47.9821 50.3185 49.223C46.5003 47.9821 44.8639 44.5351 44.3185 43.2942L45.5457 40.2608ZM29.5912 52.3942L30.4094 49.3608C30.5457 48.9472 30.8184 48.5336 31.3639 48.3957L42.1366 44.9487C43.0912 46.879 45.273 50.6018 49.9094 51.8427H50.3185H50.5912H51.0003C55.5003 50.4639 57.8185 46.879 58.773 44.9487L69.5457 48.3957C69.9548 48.5336 70.3639 48.9472 70.5003 49.3608L70.9094 52.3942C65.7275 58.0472 58.3639 61.4942 50.3185 61.4942C42.1366 61.4942 34.773 58.0472 29.5912 52.3942ZM85.773 84.3821C85.5003 85.0714 83.0457 86.5881 82.3639 86.5881C77.5912 86.1745 72.0003 74.179 69.4094 66.0442L70.9094 65.079L72.4094 64.1139C78.6821 69.7669 87.273 79.8321 85.773 84.3821Z" fill="#0000FF"/>
<path d="M26.3184 71.4213C25.773 71.1455 25.2275 71.2834 24.8184 71.6971L19.2275 77.3501L13.6366 71.6971C13.2275 71.2834 12.682 71.1455 12.1366 71.4213C6.13659 74.041 1.90932 79.694 1.36387 86.4501C1.2275 88.1046 2.45477 89.4834 4.09114 89.4834H34.3639C36.0002 89.4834 37.2275 88.1046 37.0911 86.4501C36.5457 79.694 32.4548 74.041 26.3184 71.4213ZM29.5911 86.588V82.8652C29.5911 82.038 29.0457 81.4864 28.2275 81.4864C27.4093 81.4864 26.8639 82.038 26.8639 82.8652V86.588H11.5911V82.8652C11.5911 82.038 11.0457 81.4864 10.2275 81.4864C9.40932 81.4864 8.86387 82.038 8.86387 82.8652V86.588H4.09114C4.50023 81.2107 7.77296 76.6607 12.4093 74.1789L18.273 80.1077C18.8184 80.6592 19.6366 80.6592 20.182 80.1077L26.0457 74.1789C30.682 76.5228 33.9548 81.2107 34.3639 86.588H29.5911Z" fill="#0000FF"/>
<path d="M19.2275 71.1457C23.3184 71.1457 26.7275 67.6987 26.7275 63.5623C26.7275 59.426 23.3184 55.979 19.2275 55.979C15.1366 55.979 11.7275 59.426 11.7275 63.5623C11.7275 67.8366 15.1366 71.1457 19.2275 71.1457ZM19.2275 58.8745C21.8184 58.8745 24.0003 61.0805 24.0003 63.7002C24.0003 66.3199 21.8184 68.526 19.2275 68.526C16.6366 68.526 14.4548 66.3199 14.4548 63.7002C14.4548 60.9426 16.6366 58.8745 19.2275 58.8745Z" fill="#0000FF"/>
</svg>
