<svg width="90" height="90" viewBox="0 0 90 90" fill="none" xmlns="http://www.w3.org/2000/svg">
<g clip-path="url(#clip0_336_559)">
<path d="M76.5 0C73.83 0 71.2199 0.791761 68.9998 2.27516C66.7797 3.75856 65.0494 5.86697 64.0276 8.33377C63.0059 10.8006 62.7385 13.515 63.2594 16.1337C63.7803 18.7525 65.0661 21.1579 66.9541 23.0459C68.8421 24.934 71.2475 26.2197 73.8663 26.7406C76.485 27.2615 79.1994 26.9942 81.6662 25.9724C84.133 24.9506 86.2414 23.2203 87.7248 21.0002C89.2082 18.7801 90 16.17 90 13.5C89.996 9.9208 88.5724 6.48932 86.0416 3.95844C83.5107 1.42756 80.0792 0.00397028 76.5 0ZM76.5 24C74.4233 24 72.3932 23.3842 70.6665 22.2304C68.9398 21.0767 67.594 19.4368 66.7993 17.5182C66.0046 15.5996 65.7966 13.4884 66.2018 11.4516C66.6069 9.41475 67.6069 7.54383 69.0754 6.07538C70.5438 4.60693 72.4148 3.6069 74.4516 3.20175C76.4884 2.79661 78.5996 3.00454 80.5182 3.79926C82.4368 4.59399 84.0767 5.9398 85.2304 7.66651C86.3842 9.39323 87 11.4233 87 13.5C86.9964 16.2837 85.889 18.9523 83.9207 20.9207C81.9523 22.889 79.2837 23.9964 76.5 24Z" fill="black"/>
<path d="M13.5 27C16.17 27 18.7801 26.2082 21.0002 24.7248C23.2203 23.2414 24.9506 21.133 25.9724 18.6662C26.9942 16.1994 27.2615 13.485 26.7406 10.8663C26.2197 8.24754 24.934 5.84207 23.0459 3.95406C21.1579 2.06606 18.7525 0.780305 16.1337 0.259405C13.515 -0.261496 10.8006 0.00584936 8.33377 1.02763C5.86697 2.04942 3.75856 3.77974 2.27516 5.99981C0.791761 8.21987 0 10.83 0 13.5C0.00397028 17.0792 1.42756 20.5107 3.95844 23.0416C6.48932 25.5724 9.9208 26.996 13.5 27ZM13.5 3.00001C15.5767 3.00001 17.6068 3.61582 19.3335 4.76958C21.0602 5.92333 22.406 7.56321 23.2007 9.48183C23.9955 11.4005 24.2034 13.5117 23.7982 15.5485C23.3931 17.5853 22.3931 19.4562 20.9246 20.9246C19.4562 22.3931 17.5852 23.3931 15.5484 23.7983C13.5116 24.2034 11.4004 23.9955 9.48182 23.2007C7.5632 22.406 5.92332 21.0602 4.76957 19.3335C3.61581 17.6068 3 15.5767 3 13.5C3.00357 10.7163 4.11097 8.04769 6.07932 6.07933C8.04768 4.11097 10.7163 3.00358 13.5 3.00001Z" fill="black"/>
<path d="M13.5 90C16.17 90 18.7801 89.2082 21.0002 87.7248C23.2203 86.2414 24.9506 84.133 25.9724 81.6662C26.9942 79.1994 27.2615 76.485 26.7406 73.8663C26.2197 71.2475 24.934 68.8421 23.0459 66.9541C21.1579 65.0661 18.7525 63.7803 16.1337 63.2594C13.515 62.7385 10.8006 63.0059 8.33377 64.0276C5.86697 65.0494 3.75856 66.7797 2.27516 68.9998C0.791761 71.2199 0 73.83 0 76.5C0.00397028 80.0792 1.42756 83.5107 3.95844 86.0416C6.48932 88.5724 9.9208 89.996 13.5 90ZM13.5 66C15.5767 66 17.6068 66.6158 19.3335 67.7696C21.0602 68.9233 22.406 70.5632 23.2007 72.4818C23.9955 74.4005 24.2034 76.5117 23.7982 78.5485C23.3931 80.5853 22.3931 82.4562 20.9246 83.9246C19.4562 85.3931 17.5852 86.3931 15.5484 86.7983C13.5116 87.2034 11.4004 86.9955 9.48182 86.2007C7.5632 85.406 5.92332 84.0602 4.76957 82.3335C3.61581 80.6068 3 78.5767 3 76.5C3.00357 73.7163 4.11097 71.0477 6.07932 69.0793C8.04768 67.111 10.7163 66.0036 13.5 66Z" fill="black"/>
<path d="M13.5 58.5C16.17 58.5 18.7801 57.7082 21.0002 56.2248C23.2203 54.7414 24.9506 52.633 25.9724 50.1662C26.9942 47.6994 27.2615 44.985 26.7406 42.3663C26.2197 39.7475 24.934 37.3421 23.0459 35.4541C21.1579 33.5661 18.7525 32.2803 16.1337 31.7594C13.515 31.2385 10.8006 31.5058 8.33377 32.5276C5.86697 33.5494 3.75856 35.2797 2.27516 37.4998C0.791761 39.7199 0 42.33 0 45C0.00397028 48.5792 1.42756 52.0107 3.95844 54.5416C6.48932 57.0724 9.9208 58.496 13.5 58.5ZM13.5 34.5C15.5767 34.5 17.6068 35.1158 19.3335 36.2696C21.0602 37.4233 22.406 39.0632 23.2007 40.9818C23.9955 42.9005 24.2034 45.0117 23.7982 47.0485C23.3931 49.0853 22.3931 50.9562 20.9246 52.4246C19.4562 53.8931 17.5852 54.8931 15.5484 55.2983C13.5116 55.7034 11.4004 55.4955 9.48182 54.7007C7.5632 53.906 5.92332 52.5602 4.76957 50.8335C3.61581 49.1068 3 47.0767 3 45C3.00357 42.2163 4.11097 39.5477 6.07932 37.5793C8.04768 35.611 10.7163 34.5036 13.5 34.5Z" fill="black"/>
<path d="M76.5 31.5C73.83 31.5 71.2199 32.2918 68.9998 33.7752C66.7797 35.2586 65.0494 37.367 64.0276 39.8338C63.0059 42.3006 62.7385 45.015 63.2594 47.6337C63.7803 50.2525 65.0661 52.6579 66.9541 54.5459C68.8421 56.434 71.2475 57.7197 73.8663 58.2406C76.485 58.7615 79.1994 58.4942 81.6662 57.4724C84.133 56.4506 86.2414 54.7203 87.7248 52.5002C89.2082 50.2801 90 47.67 90 45C89.996 41.4208 88.5724 37.9893 86.0416 35.4584C83.5107 32.9276 80.0792 31.504 76.5 31.5ZM76.5 55.5C74.4233 55.5 72.3932 54.8842 70.6665 53.7304C68.9398 52.5767 67.594 50.9368 66.7993 49.0182C66.0046 47.0996 65.7966 44.9884 66.2018 42.9516C66.6069 40.9148 67.6069 39.0438 69.0754 37.5754C70.5438 36.1069 72.4148 35.1069 74.4516 34.7018C76.4884 34.2966 78.5996 34.5045 80.5182 35.2993C82.4368 36.094 84.0767 37.4398 85.2304 39.1665C86.3842 40.8932 87 42.9233 87 45C86.9964 47.7837 85.889 50.4523 83.9207 52.4207C81.9523 54.389 79.2837 55.4964 76.5 55.5Z" fill="black"/>
<path d="M76.5 63C73.83 63 71.2199 63.7918 68.9998 65.2752C66.7797 66.7586 65.0494 68.867 64.0276 71.3338C63.0059 73.8006 62.7385 76.515 63.2594 79.1337C63.7803 81.7525 65.0661 84.1579 66.9541 86.0459C68.8421 87.934 71.2475 89.2197 73.8663 89.7406C76.485 90.2615 79.1994 89.9942 81.6662 88.9724C84.133 87.9506 86.2414 86.2203 87.7248 84.0002C89.2082 81.7801 90 79.17 90 76.5C89.996 72.9208 88.5724 69.4893 86.0416 66.9584C83.5107 64.4276 80.0792 63.004 76.5 63ZM76.5 87C74.4233 87 72.3932 86.3842 70.6665 85.2304C68.9398 84.0767 67.594 82.4368 66.7993 80.5182C66.0046 78.5996 65.7966 76.4884 66.2018 74.4516C66.6069 72.4148 67.6069 70.5438 69.0754 69.0754C70.5438 67.6069 72.4148 66.6069 74.4516 66.2018C76.4884 65.7966 78.5996 66.0045 80.5182 66.7993C82.4368 67.594 84.0767 68.9398 85.2304 70.6665C86.3842 72.3932 87 74.4233 87 76.5C86.9964 79.2837 85.889 81.9523 83.9207 83.9207C81.9523 85.889 79.2837 86.9964 76.5 87Z" fill="black"/>
<path d="M79.3004 8.59952L74.3384 15.2175L73.5599 14.439C73.4215 14.2958 73.256 14.1815 73.073 14.1029C72.89 14.0243 72.6932 13.9829 72.494 13.9811C72.2948 13.9794 72.0973 14.0174 71.913 14.0928C71.7286 14.1682 71.5611 14.2796 71.4203 14.4204C71.2795 14.5613 71.1681 14.7287 71.0927 14.9131C71.0172 15.0974 70.9793 15.295 70.981 15.4941C70.9827 15.6933 71.0241 15.8901 71.1027 16.0731C71.1813 16.2561 71.2956 16.4216 71.4389 16.56L73.4399 18.561C73.7211 18.8423 74.1026 19.0004 74.5004 19.0005H74.6069C74.8215 18.9848 75.0303 18.9231 75.219 18.8196C75.4076 18.716 75.5718 18.5731 75.7004 18.4005L81.7004 10.3995C81.9391 10.0813 82.0416 9.68121 81.9853 9.28739C81.929 8.89356 81.7186 8.53821 81.4004 8.29952C81.0821 8.06082 80.6821 7.95833 80.2883 8.01459C79.8944 8.07085 79.5391 8.28126 79.3004 8.59952Z" fill="black"/>
<path d="M8.56062 13.0606C8.6183 13.0028 8.68681 12.957 8.76222 12.9257C8.83764 12.8944 8.91848 12.8783 9.00012 12.8783C9.08177 12.8783 9.16261 12.8944 9.23802 12.9257C9.31344 12.957 9.38194 13.0028 9.43962 13.0606C9.72253 13.3338 10.1014 13.485 10.4947 13.4816C10.888 13.4782 11.2642 13.3204 11.5424 13.0423C11.8205 12.7642 11.9782 12.388 11.9816 11.9947C11.9851 11.6014 11.8339 11.2225 11.5606 10.9396C10.8708 10.281 9.95381 9.91357 9.00012 9.91357C8.04644 9.91357 7.12942 10.281 6.43962 10.9396C6.16639 11.2225 6.01519 11.6014 6.01861 11.9947C6.02203 12.388 6.17978 12.7642 6.4579 13.0423C6.73601 13.3204 7.11223 13.4782 7.50552 13.4816C7.89882 13.485 8.27772 13.3338 8.56062 13.0606Z" fill="black"/>
<path d="M17.5606 13.0606C17.6183 13.0028 17.6868 12.957 17.7622 12.9257C17.8376 12.8944 17.9185 12.8783 18.0001 12.8783C18.0818 12.8783 18.1626 12.8944 18.238 12.9257C18.3134 12.957 18.3819 13.0028 18.4396 13.0606C18.7225 13.3338 19.1014 13.485 19.4947 13.4816C19.888 13.4782 20.2642 13.3204 20.5423 13.0423C20.8205 12.7642 20.9782 12.388 20.9816 11.9947C20.9851 11.6014 20.8339 11.2225 20.5606 10.9396C19.8708 10.281 18.9538 9.91357 18.0001 9.91357C17.0464 9.91357 16.1294 10.281 15.4396 10.9396C15.1664 11.2225 15.0152 11.6014 15.0186 11.9947C15.022 12.388 15.1798 12.7642 15.4579 13.0423C15.736 13.3204 16.1122 13.4782 16.5055 13.4816C16.8988 13.485 17.2777 13.3338 17.5606 13.0606Z" fill="black"/>
<path d="M9.5431 16.8436C9.3911 16.9692 9.26536 17.1235 9.17305 17.2977C9.08075 17.472 9.0237 17.6627 9.00517 17.859C8.98664 18.0553 9.007 18.2533 9.06507 18.4417C9.12314 18.6302 9.21779 18.8053 9.3436 18.9571C9.83409 19.5928 10.4638 20.1075 11.1844 20.4616C11.905 20.8158 12.6972 20.9999 13.5001 20.9999C14.303 20.9999 15.0952 20.8158 15.8158 20.4616C16.5364 20.1075 17.1661 19.5928 17.6566 18.9571C17.9104 18.6504 18.032 18.2554 17.9946 17.859C17.9572 17.4627 17.7638 17.0974 17.4571 16.8436C17.1504 16.5898 16.7554 16.4682 16.359 16.5056C15.9627 16.543 15.5974 16.7364 15.3436 17.0431C15.1298 17.3305 14.8517 17.5638 14.5316 17.7246C14.2115 17.8854 13.8583 17.9691 13.5001 17.9691C13.1419 17.9691 12.7887 17.8854 12.4686 17.7246C12.1485 17.5638 11.8705 17.3305 11.6566 17.0431C11.531 16.8911 11.3767 16.7654 11.2025 16.6731C11.0282 16.5808 10.8375 16.5237 10.6412 16.5052C10.4449 16.4866 10.2469 16.507 10.0585 16.5651C9.87004 16.6231 9.69492 16.7178 9.5431 16.8436Z" fill="black"/>
<path d="M9.00012 75.6211C9.47582 75.6223 9.94702 75.5292 10.3865 75.3471C10.826 75.1651 11.2251 74.8978 11.5606 74.5606C11.8339 74.2777 11.9851 73.8988 11.9816 73.5055C11.9782 73.1122 11.8205 72.736 11.5424 72.4579C11.2642 72.1798 10.888 72.022 10.4947 72.0186C10.1014 72.0152 9.72253 72.1664 9.43962 72.4396C9.38194 72.4974 9.31344 72.5432 9.23802 72.5745C9.16261 72.6058 9.08177 72.6219 9.00012 72.6219C8.91848 72.6219 8.83764 72.6058 8.76222 72.5745C8.68681 72.5432 8.6183 72.4974 8.56062 72.4396C8.27772 72.1664 7.89882 72.0152 7.50552 72.0186C7.11223 72.022 6.73601 72.1798 6.4579 72.4579C6.17978 72.736 6.02203 73.1122 6.01861 73.5055C6.01519 73.8988 6.16639 74.2777 6.43962 74.5606C6.77518 74.8978 7.17424 75.1651 7.61373 75.3471C8.05322 75.5292 8.52443 75.6223 9.00012 75.6211Z" fill="black"/>
<path d="M18.0001 75.6211C18.4758 75.6223 18.947 75.5292 19.3865 75.3471C19.826 75.1651 20.2251 74.8978 20.5606 74.5606C20.8339 74.2777 20.9851 73.8988 20.9816 73.5055C20.9782 73.1122 20.8205 72.736 20.5423 72.4579C20.2642 72.1798 19.888 72.022 19.4947 72.0186C19.1014 72.0152 18.7225 72.1664 18.4396 72.4396C18.3819 72.4974 18.3134 72.5432 18.238 72.5745C18.1626 72.6058 18.0818 72.6219 18.0001 72.6219C17.9185 72.6219 17.8376 72.6058 17.7622 72.5745C17.6868 72.5432 17.6183 72.4974 17.5606 72.4396C17.2777 72.1664 16.8988 72.0152 16.5055 72.0186C16.1122 72.022 15.736 72.1798 15.4579 72.4579C15.1798 72.736 15.022 73.1122 15.0186 73.5055C15.0152 73.8988 15.1664 74.2777 15.4396 74.5606C15.7752 74.8978 16.1742 75.1651 16.6137 75.3471C17.0532 75.5292 17.5244 75.6223 18.0001 75.6211Z" fill="black"/>
<path d="M9.5431 82.1563C9.69492 82.2821 9.87004 82.3768 10.0585 82.4349C10.2469 82.4929 10.4449 82.5133 10.6412 82.4947C10.8375 82.4762 11.0282 82.4192 11.2025 82.3269C11.3767 82.2346 11.531 82.1088 11.6566 81.9568C11.8705 81.6695 12.1485 81.4361 12.4686 81.2753C12.7887 81.1145 13.1419 81.0308 13.5001 81.0308C13.8583 81.0308 14.2115 81.1145 14.5316 81.2753C14.8517 81.4361 15.1298 81.6695 15.3436 81.9568C15.5974 82.2635 15.9627 82.4569 16.359 82.4943C16.7554 82.5317 17.1504 82.4101 17.4571 82.1563C17.7638 81.9025 17.9572 81.5372 17.9946 81.1409C18.032 80.7445 17.9104 80.3495 17.6566 80.0428C17.1661 79.4071 16.5364 78.8924 15.8158 78.5383C15.0952 78.1842 14.303 78 13.5001 78C12.6972 78 11.905 78.1842 11.1844 78.5383C10.4638 78.8924 9.83409 79.4071 9.3436 80.0428C9.21779 80.1946 9.12314 80.3698 9.06507 80.5582C9.007 80.7466 8.98664 80.9446 9.00517 81.1409C9.0237 81.3372 9.08075 81.5279 9.17305 81.7022C9.26536 81.8764 9.3911 82.0307 9.5431 82.1563Z" fill="black"/>
<path d="M7.5 45C7.5 45.3978 7.65804 45.7794 7.93934 46.0607C8.22064 46.342 8.60218 46.5 9 46.5C9.39783 46.5 9.77936 46.342 10.0607 46.0607C10.342 45.7794 10.5 45.3978 10.5 45C10.8978 45 11.2794 44.842 11.5607 44.5607C11.842 44.2794 12 43.8978 12 43.5C12 43.1022 11.842 42.7206 11.5607 42.4393C11.2794 42.158 10.8978 42 10.5 42H7.5C7.10218 42 6.72064 42.158 6.43934 42.4393C6.15804 42.7206 6 43.1022 6 43.5C6 43.8978 6.15804 44.2794 6.43934 44.5607C6.72064 44.842 7.10218 45 7.5 45Z" fill="black"/>
<path d="M16.5 45C16.5 45.3978 16.658 45.7794 16.9393 46.0607C17.2206 46.342 17.6022 46.5 18 46.5C18.3978 46.5 18.7794 46.342 19.0607 46.0607C19.342 45.7794 19.5 45.3978 19.5 45C19.8978 45 20.2794 44.842 20.5607 44.5607C20.842 44.2794 21 43.8978 21 43.5C21 43.1022 20.842 42.7206 20.5607 42.4393C20.2794 42.158 19.8978 42 19.5 42H16.5C16.1022 42 15.7206 42.158 15.4393 42.4393C15.158 42.7206 15 43.1022 15 43.5C15 43.8978 15.158 44.2794 15.4393 44.5607C15.7206 44.842 16.1022 45 16.5 45Z" fill="black"/>
<path d="M10.5 49.5C10.5 49.8978 10.658 50.2794 10.9393 50.5607C11.2206 50.842 11.6022 51 12 51H15C15.3978 51 15.7794 50.842 16.0607 50.5607C16.342 50.2794 16.5 49.8978 16.5 49.5C16.5 49.1022 16.342 48.7206 16.0607 48.4393C15.7794 48.158 15.3978 48 15 48H12C11.6022 48 11.2206 48.158 10.9393 48.4393C10.658 48.7206 10.5 49.1022 10.5 49.5Z" fill="black"/>
<path d="M33 10.5H57C57.3978 10.5 57.7794 10.342 58.0607 10.0607C58.342 9.77936 58.5 9.39782 58.5 9C58.5 8.60218 58.342 8.22064 58.0607 7.93934C57.7794 7.65804 57.3978 7.5 57 7.5H33C32.6022 7.5 32.2206 7.65804 31.9393 7.93934C31.658 8.22064 31.5 8.60218 31.5 9C31.5 9.39782 31.658 9.77936 31.9393 10.0607C32.2206 10.342 32.6022 10.5 33 10.5Z" fill="black"/>
<path d="M33 19.5H52.5C52.8978 19.5 53.2794 19.342 53.5607 19.0607C53.842 18.7794 54 18.3978 54 18C54 17.6022 53.842 17.2206 53.5607 16.9393C53.2794 16.658 52.8978 16.5 52.5 16.5H33C32.6022 16.5 32.2206 16.658 31.9393 16.9393C31.658 17.2206 31.5 17.6022 31.5 18C31.5 18.3978 31.658 18.7794 31.9393 19.0607C32.2206 19.342 32.6022 19.5 33 19.5Z" fill="black"/>
<path d="M33 42H57C57.3978 42 57.7794 41.842 58.0607 41.5607C58.342 41.2794 58.5 40.8978 58.5 40.5C58.5 40.1022 58.342 39.7206 58.0607 39.4393C57.7794 39.158 57.3978 39 57 39H33C32.6022 39 32.2206 39.158 31.9393 39.4393C31.658 39.7206 31.5 40.1022 31.5 40.5C31.5 40.8978 31.658 41.2794 31.9393 41.5607C32.2206 41.842 32.6022 42 33 42Z" fill="black"/>
<path d="M33 51H52.5C52.8978 51 53.2794 50.842 53.5607 50.5607C53.842 50.2794 54 49.8978 54 49.5C54 49.1022 53.842 48.7206 53.5607 48.4393C53.2794 48.158 52.8978 48 52.5 48H33C32.6022 48 32.2206 48.158 31.9393 48.4393C31.658 48.7206 31.5 49.1022 31.5 49.5C31.5 49.8978 31.658 50.2794 31.9393 50.5607C32.2206 50.842 32.6022 51 33 51Z" fill="black"/>
<path d="M33 73.5H57C57.3978 73.5 57.7794 73.342 58.0607 73.0607C58.342 72.7794 58.5 72.3978 58.5 72C58.5 71.6022 58.342 71.2206 58.0607 70.9393C57.7794 70.658 57.3978 70.5 57 70.5H33C32.6022 70.5 32.2206 70.658 31.9393 70.9393C31.658 71.2206 31.5 71.6022 31.5 72C31.5 72.3978 31.658 72.7794 31.9393 73.0607C32.2206 73.342 32.6022 73.5 33 73.5Z" fill="black"/>
<path d="M33 82.5H52.5C52.8978 82.5 53.2794 82.342 53.5607 82.0607C53.842 81.7794 54 81.3978 54 81C54 80.6022 53.842 80.2206 53.5607 79.9393C53.2794 79.658 52.8978 79.5 52.5 79.5H33C32.6022 79.5 32.2206 79.658 31.9393 79.9393C31.658 80.2206 31.5 80.6022 31.5 81C31.5 81.3978 31.658 81.7794 31.9393 82.0607C32.2206 82.342 32.6022 82.5 33 82.5Z" fill="black"/>
</g>
<defs>
<clipPath id="clip0_336_559">
<rect width="90" height="90" fill="white"/>
</clipPath>
</defs>
</svg>
