<svg width="90" height="90" viewBox="0 0 90 90" fill="none" xmlns="http://www.w3.org/2000/svg">
<path d="M49.1568 34.1441C49.3624 36.2263 49.0662 38.3275 48.293 40.2718C47.5199 42.216 46.2922 43.9468 44.7129 45.3192C44.3603 45.6243 44.0777 46.002 43.8845 46.4263C43.6914 46.8507 43.5922 47.3118 43.5937 47.7781V50.6249C43.592 52.1163 42.9988 53.546 41.9443 54.6005C40.8898 55.6551 39.46 56.2482 37.9687 56.2499H35.1562C33.6649 56.2482 32.2351 55.6551 31.1806 54.6005C30.1261 53.546 29.5329 52.1163 29.5312 50.6249V47.7774C29.5367 47.3181 29.4425 46.863 29.2551 46.4436C29.0677 46.0242 28.7915 45.6504 28.4456 45.3481C27.0387 44.1327 25.9063 42.6319 25.1238 40.9454C24.3413 39.2589 23.9265 37.4253 23.9069 35.5662C23.8873 33.7071 24.2633 31.8651 25.0101 30.1624C25.7569 28.4598 26.8573 26.9355 28.2383 25.6907C29.5497 24.5052 31.0999 23.6142 32.7845 23.078C34.469 22.5417 36.2489 22.3724 38.0044 22.5816C40.9032 22.9483 43.5895 24.2948 45.6179 26.3978C47.6463 28.5008 48.895 31.234 49.1568 34.1441ZM40.7812 47.8124H32.3437V49.2187H40.7812V47.8124ZM35.1562 53.4374H37.9687C38.4602 53.4359 38.9426 53.3052 39.3676 53.0584C39.7926 52.8115 40.1452 52.4573 40.3901 52.0312H32.7348C32.9797 52.4573 33.3323 52.8115 33.7573 53.0584C34.1823 53.3052 34.6647 53.4359 35.1562 53.4374ZM37.6872 25.3763C37.3115 25.3334 36.9337 25.3118 36.5556 25.3118C34.1749 25.3093 31.8783 26.1921 30.1122 27.7885C29.0303 28.7659 28.1684 29.962 27.5835 31.2975C26.9986 32.6331 26.7041 34.0776 26.7193 35.5355C26.7346 36.9934 27.0593 38.4315 27.672 39.7545C28.2847 41.0775 29.1715 42.2553 30.2735 43.2099C30.8463 43.7108 31.3155 44.3189 31.6548 44.9999H35.1562V42.1874C35.1561 41.9692 35.2068 41.7538 35.3044 41.5586C35.402 41.3634 35.5438 41.1936 35.7186 41.0627L40.5484 37.4399C40.6205 37.3856 40.679 37.3152 40.7194 37.2345C40.7598 37.1537 40.7809 37.0648 40.7812 36.9745V35.7385C40.7722 35.6276 40.7328 35.5213 40.6673 35.4314C40.6018 35.3414 40.5128 35.2713 40.41 35.2287C40.3072 35.1861 40.1947 35.1727 40.0847 35.1899C39.9748 35.2072 39.8718 35.2544 39.787 35.3265L38.963 36.1504C38.3163 36.7679 37.4566 37.1124 36.5625 37.1124C35.6684 37.1124 34.8087 36.7679 34.162 36.1504L33.338 35.3265C33.2532 35.2544 33.1502 35.2071 33.0403 35.1898C32.9303 35.1725 32.8177 35.1859 32.7149 35.2285C32.6121 35.2711 32.5231 35.3413 32.4576 35.4313C32.3921 35.5213 32.3527 35.6276 32.3438 35.7385V36.9745C32.3441 37.0649 32.3653 37.1541 32.4058 37.235C32.4463 37.3158 32.505 37.3863 32.5772 37.4407L34.5939 38.9533L32.9061 41.2028L30.8901 39.6908C30.4691 39.3738 30.1274 38.9635 29.8916 38.4922C29.6558 38.021 29.5325 37.5014 29.5312 36.9745V35.7385C29.5312 35.0671 29.7303 34.4107 30.1034 33.8525C30.4764 33.2942 31.0066 32.8591 31.6269 32.6022C32.2472 32.3452 32.9298 32.278 33.5883 32.409C34.2468 32.54 34.8517 32.8633 35.3265 33.338L36.1504 34.162C36.2599 34.2708 36.408 34.3319 36.5624 34.3319C36.7168 34.3319 36.8649 34.2708 36.9744 34.162L37.7984 33.338C38.2732 32.8632 38.8781 32.5399 39.5366 32.4089C40.1951 32.2779 40.8777 32.3451 41.498 32.6021C42.1183 32.859 42.6485 33.2941 43.0216 33.8524C43.3946 34.4107 43.5937 35.067 43.5937 35.7385V36.9745C43.5925 37.5013 43.4692 38.0207 43.2336 38.4918C42.9979 38.963 42.6563 39.3732 42.2355 39.6901L37.9687 42.8906V44.9999H41.4781C41.824 44.3115 42.2994 43.6963 42.8782 43.1879C44.1166 42.1089 45.0786 40.7491 45.6838 39.2222C46.289 37.6952 46.5198 36.0456 46.3568 34.4112C46.1363 32.1504 45.1611 30.0296 43.5884 28.3906C42.0157 26.7516 39.937 25.6898 37.6872 25.3763Z" fill="black"/>
<path d="M37.9688 16.875H35.1562V21.0938H37.9688V16.875Z" fill="black"/>
<path d="M22.5 33.75H18.2812V36.5625H22.5V33.75Z" fill="black"/>
<path d="M54.8438 33.75H50.625V36.5625H54.8438V33.75Z" fill="black"/>
<path d="M50.4902 23.2266L48.5015 21.2378L45.5184 24.2209L47.5071 26.2097L50.4902 23.2266Z" fill="black"/>
<path d="M27.6221 24.2227L24.639 21.2395L22.6502 23.2283L25.6333 26.2114L27.6221 24.2227Z" fill="black"/>
<path d="M36.5623 63.0686C30.384 63.0643 24.3984 60.918 19.6251 56.9953C14.8519 53.0727 11.5864 47.6164 10.385 41.5561C9.18356 35.4957 10.1206 29.2063 13.0364 23.7594C15.9522 18.3124 20.6663 14.0449 26.3757 11.684C32.0851 9.32308 38.4365 9.01477 44.3477 10.8116C50.2589 12.6084 55.3643 16.3992 58.7939 21.5381C62.2236 26.677 63.7654 32.8461 63.1566 38.9943C62.5479 45.1425 59.8262 50.8895 55.4553 55.256C52.976 57.7385 50.0306 59.7066 46.7883 61.0473C43.546 62.388 40.0708 63.075 36.5623 63.0686ZM53.4668 19.4584C50.1234 16.115 45.8637 13.8381 41.2262 12.9157C36.5888 11.9932 31.782 12.4667 27.4136 14.2761C23.0453 16.0855 19.3116 19.1497 16.6847 23.0811C14.0578 27.0125 12.6557 31.6346 12.6557 36.3629C12.6557 41.0912 14.0578 45.7133 16.6847 49.6447C19.3116 53.5762 23.0453 56.6403 27.4136 58.4498C31.782 60.2592 36.5888 60.7326 41.2262 59.8102C45.8637 58.8877 50.1234 56.6109 53.4668 53.2675C55.696 51.0527 57.4652 48.419 58.6724 45.5178C59.8797 42.6166 60.5012 39.5053 60.5012 36.3629C60.5012 33.2206 59.8797 30.1093 58.6724 27.2081C57.4652 24.3069 55.696 21.6731 53.4668 19.4584Z" fill="black"/>
<path d="M77.9301 85.6859C77.4021 86.2122 76.687 86.5078 75.9415 86.5078C75.196 86.5078 74.4809 86.2122 73.953 85.6859L58.4389 70.1711C58.1777 69.91 57.9705 69.6 57.8291 69.2588C57.6877 68.9176 57.6149 68.5519 57.6149 68.1826C57.6149 67.8132 57.6877 67.4475 57.8291 67.1063C57.9705 66.7651 58.1777 66.4551 58.4389 66.1941L56.0905 63.8456C49.193 68.7484 40.7053 70.8811 32.3094 69.8211C23.9136 68.7611 16.2224 64.5856 10.7599 58.1222C5.29745 51.6589 2.46244 43.3792 2.81667 34.9242C3.17091 26.4691 6.68855 18.4556 12.6725 12.4718C18.6564 6.48801 26.67 2.97055 35.125 2.61649C43.5801 2.26243 51.8597 5.09763 58.3229 10.5602C64.7862 16.0228 68.9615 23.7141 70.0213 32.11C71.0812 40.5058 68.9483 48.9935 64.0454 55.8909L66.3934 58.239L66.3945 58.2379C66.9225 57.712 67.6375 57.4168 68.3828 57.4169C69.1281 57.417 69.8429 57.7125 70.3708 58.2386L85.8862 73.754C86.4123 74.282 86.7076 74.997 86.7075 75.7423C86.7074 76.4877 86.4118 77.2026 85.8855 77.7304L77.9301 85.6859ZM58.4389 14.4862C54.1122 10.1594 48.5996 7.21284 42.5982 6.01906C36.5969 4.82527 30.3763 5.43792 24.7231 7.77951C19.0699 10.1211 14.2381 14.0865 10.8385 19.1742C7.43903 24.2619 5.62455 30.2434 5.62455 36.3624C5.62455 42.4813 7.43903 48.4629 10.8385 53.5506C14.2381 58.6383 19.0699 62.6037 24.7231 64.9453C30.3763 67.2869 36.5969 67.8995 42.5982 66.7057C48.5996 65.5119 54.1122 62.5654 58.4389 58.2386C61.3233 55.3722 63.6123 51.9638 65.1743 48.2094C66.7363 44.455 67.5405 40.4288 67.5405 36.3624C67.5405 32.296 66.7363 28.2698 65.1743 24.5154C63.6123 20.761 61.3233 17.3526 58.4389 14.4862ZM62.3152 58.1378C61.7125 58.8498 61.0986 59.5559 60.4274 60.2271C59.756 60.8986 59.0497 61.5126 58.3375 62.1156L60.4274 64.2054L64.4049 60.2275L62.3152 58.1378ZM68.3822 60.2271L60.4274 68.1826L75.9402 83.698L83.897 75.7419L68.3822 60.2271Z" fill="black"/>
</svg>
