<svg width="90" height="90" viewBox="0 0 90 90" fill="none" xmlns="http://www.w3.org/2000/svg">
<path d="M68.4141 43.9595C80.3109 43.9595 90 34.2704 90 22.3735C90 10.4767 80.3109 0.787598 68.4141 0.787598C56.5172 0.787598 46.8281 10.4767 46.8281 22.3735C46.8281 34.2704 56.5172 43.9595 68.4141 43.9595ZM68.4141 3.51572C78.8063 3.51572 87.2719 11.9813 87.2719 22.3735C87.2719 32.7657 78.8063 41.2313 68.4141 41.2313C58.0219 41.2313 49.5563 32.7657 49.5563 22.3735C49.5563 11.9813 58.0219 3.51572 68.4141 3.51572Z" fill="#0000FF"/>
<path d="M63.0704 30.6983C63.3376 30.9655 63.6892 31.0921 64.0407 31.0921C64.3923 31.0921 64.7438 30.9655 65.011 30.6983L79.7204 15.989C80.2548 15.4546 80.2548 14.5968 79.7204 14.0624C79.186 13.528 78.3282 13.528 77.7938 14.0624L64.0407 27.8155L59.0485 22.8233C58.5142 22.289 57.6563 22.289 57.122 22.8233C56.5876 23.3577 56.5876 24.2155 57.122 24.7499L63.0704 30.6983Z" fill="#0000FF"/>
<path d="M21.5859 0.787598C9.68906 0.787598 0 10.4767 0 22.3735C0 28.2095 2.33438 33.497 6.10313 37.3782C6.13125 37.4063 6.14531 37.4345 6.17344 37.4626C10.0969 41.4704 15.5531 43.9595 21.5859 43.9595C27.5766 43.9595 32.9906 41.5126 36.9141 37.561C36.9141 37.561 36.9141 37.561 36.9141 37.547C40.7812 33.6517 43.1719 28.2798 43.1719 22.3735C43.1719 10.4767 33.4828 0.787598 21.5859 0.787598ZM21.5859 41.2313C16.5938 41.2313 12.0516 39.2626 8.67656 36.0704C9.01406 34.2985 9.88594 31.8657 12.15 31.1907C14.4281 30.5017 16.9031 29.1798 18.5484 28.2235C19.4766 28.8423 20.5031 29.1798 21.5859 29.1798C22.6688 29.1798 23.6953 28.8423 24.6234 28.2235C26.1281 29.0954 28.6734 30.4735 31.0359 31.1907C33.3141 31.8657 34.1719 34.3126 34.4953 36.0845C31.1063 39.2626 26.5781 41.2313 21.5859 41.2313ZM16.8891 15.6938C16.8328 14.5829 17.1844 13.6126 17.8734 12.8954C18.6328 12.0938 19.7437 11.6579 21.0094 11.6579H22.1625C23.4141 11.6579 24.525 12.0938 25.2984 12.8954C25.9875 13.6267 26.3391 14.597 26.2828 15.7079L26.2266 17.297C26.1984 17.9298 26.6344 18.5063 27.2531 18.661C27.2672 18.661 27.2812 18.661 27.2953 18.6751C27.3094 18.7735 27.3375 18.9704 27.2672 19.3079C27.1125 20.0954 26.7188 20.7563 26.5219 20.9532C26.0719 21.0938 25.7203 21.4595 25.6078 21.9376C24.9469 24.6517 23.3438 26.4798 21.6141 26.4798C19.8844 26.4798 18.2812 24.6517 17.6203 21.9376C17.5078 21.4735 17.1562 21.1079 16.7062 20.9673C16.5094 20.7704 16.1016 20.0954 15.9609 19.322C15.8906 18.9845 15.9047 18.7876 15.9328 18.6892H15.9609C16.5797 18.5345 17.0156 17.9579 16.9875 17.311L16.8891 15.6938ZM36.6609 33.6657C35.9437 31.5985 34.5656 29.4048 31.8234 28.5892C29.9953 28.0267 28.0125 27.0142 26.6063 26.2267C27.2109 25.3688 27.7172 24.3563 28.0687 23.2032C29.1516 22.4157 29.7563 20.7704 29.9391 19.8282C30.2484 18.211 29.7703 17.1001 28.9828 16.4954L29.0109 15.8204C29.0953 13.9782 28.4766 12.2767 27.2672 11.011C25.9875 9.6751 24.1734 8.92978 22.1625 8.92978H21.0094C18.9984 8.92978 17.1844 9.6751 15.9047 11.011C14.6953 12.2767 14.0766 13.9782 14.1609 15.8063L14.1891 16.4954C13.4156 17.1001 12.9234 18.211 13.2328 19.8282C13.4437 20.897 14.0766 22.4438 15.0891 23.1892C15.4406 24.3423 15.9469 25.3548 16.5516 26.2267C15.075 27.0563 13.1062 28.0548 11.3484 28.5892C9.08437 29.2642 7.41094 31.022 6.49687 33.6517C4.13438 30.5017 2.72813 26.6063 2.72813 22.3735C2.72813 11.9673 11.1938 3.51572 21.5859 3.51572C31.9781 3.51572 40.4437 11.9813 40.4437 22.3735C40.4437 26.6063 39.0234 30.5017 36.6609 33.6657Z" fill="#0000FF"/>
<path d="M21.5859 46.0405C9.68906 46.0405 0 55.7296 0 67.6265C0 73.4624 2.33438 78.7499 6.10313 82.6452C6.13125 82.6733 6.14531 82.7015 6.17344 82.7296C10.0969 86.7374 15.5531 89.2265 21.5859 89.2265C27.5766 89.2265 32.9906 86.7796 36.9141 82.828C36.9141 82.828 36.9141 82.828 36.9141 82.814C40.7812 78.9187 43.1719 73.5468 43.1719 67.6405C43.1719 55.7296 33.4828 46.0405 21.5859 46.0405ZM21.5859 86.4843C16.5938 86.4843 12.0516 84.5155 8.67656 81.3233C9.01406 79.5515 9.88594 77.1187 12.15 76.4437C14.4281 75.7546 16.9031 74.4327 18.5484 73.4765C19.4766 74.0952 20.5031 74.4327 21.5859 74.4327C22.6688 74.4327 23.6953 74.0952 24.6234 73.4765C26.1281 74.3483 28.6734 75.7265 31.0359 76.4437C33.3141 77.1187 34.1719 79.5655 34.4953 81.3374C31.1063 84.5155 26.5781 86.4843 21.5859 86.4843ZM16.8891 60.9468C16.8328 59.8358 17.1844 58.8655 17.8734 58.1483C18.6328 57.3468 19.7437 56.9108 21.0094 56.9108H22.1625C23.4141 56.9108 24.525 57.3468 25.2984 58.1483C25.9875 58.8796 26.3391 59.8499 26.2828 60.9608L26.2266 62.5499C26.1984 63.1968 26.6344 63.7593 27.2531 63.914C27.2672 63.914 27.2812 63.914 27.2953 63.928C27.3094 64.0265 27.3375 64.2233 27.2672 64.5608C27.1125 65.3483 26.7188 66.0093 26.5219 66.2062C26.0719 66.3468 25.7203 66.7124 25.6078 67.1905C24.9187 69.9046 23.3016 71.7187 21.5859 71.7187C19.8703 71.7187 18.2531 69.8905 17.5922 67.1765C17.4797 66.7124 17.1281 66.3468 16.6781 66.2062C16.4812 66.0093 16.0734 65.3343 15.9328 64.5608C15.8625 64.2233 15.8766 64.0265 15.9047 63.928H15.9328C16.5516 63.7733 16.9875 63.1968 16.9594 62.5499L16.8891 60.9468ZM36.6609 78.9187C35.9437 76.8515 34.5656 74.6577 31.8234 73.8421C29.9953 73.2796 28.0125 72.2671 26.6063 71.4796C27.2109 70.6218 27.7172 69.6093 28.0687 68.4562C29.1656 67.6687 29.7563 66.0233 29.9391 65.0812C30.2484 63.464 29.7703 62.353 28.9828 61.7483L29.0109 61.0733C29.0953 59.2312 28.4766 57.5296 27.2672 56.264C25.9875 54.928 24.1734 54.1827 22.1625 54.1827H21.0094C18.9984 54.1827 17.1844 54.928 15.9047 56.264C14.6953 57.5296 14.0766 59.2311 14.1609 61.0593L14.1891 61.7483C13.4156 62.353 12.9234 63.464 13.2328 65.0812C13.4437 66.1499 14.0766 67.6968 15.0891 68.4421C15.4406 69.5952 15.9469 70.6077 16.5516 71.4796C15.0609 72.3093 13.1062 73.3077 11.3484 73.8421C9.08437 74.5171 7.41094 76.2749 6.49687 78.9046C4.13438 75.7546 2.72813 71.8593 2.72813 67.6265C2.72813 57.2343 11.1938 48.7687 21.5859 48.7687C31.9781 48.7687 40.4437 57.2343 40.4437 67.6265C40.4437 71.8593 39.0234 75.7687 36.6609 78.9187Z" fill="#0000FF"/>
<path d="M68.4141 46.0405C56.5172 46.0405 46.8281 55.7296 46.8281 67.6265C46.8281 73.4624 49.1625 78.7499 52.9313 82.6311C52.9594 82.6593 52.9734 82.6874 53.0016 82.7155C56.925 86.7233 62.3813 89.2124 68.4141 89.2124C74.4047 89.2124 79.8187 86.7655 83.7422 82.814C83.7422 82.814 83.7422 82.814 83.7563 82.7999C87.6094 78.9046 90 73.5327 90 67.6265C90 55.7296 80.3109 46.0405 68.4141 46.0405ZM68.4141 86.4843C63.4078 86.4843 58.8797 84.5155 55.4906 81.3233C55.8281 79.5515 56.7141 77.1187 58.9641 76.4437C61.2422 75.7546 63.7172 74.4327 65.3625 73.4765C66.2906 74.0952 67.3172 74.4327 68.4 74.4327C69.4828 74.4327 70.5094 74.0952 71.4375 73.4765C72.9422 74.3483 75.4875 75.7265 77.85 76.4437C80.1281 77.1187 80.9859 79.5655 81.3094 81.3374C77.9344 84.5155 73.4063 86.4843 68.4141 86.4843ZM63.7172 60.9468C63.6609 59.8358 64.0125 58.8655 64.7016 58.1483C65.4609 57.3468 66.5719 56.9108 67.8375 56.9108H68.9906C70.2422 56.9108 71.3531 57.3468 72.1266 58.1483C72.8297 58.8796 73.1672 59.8499 73.1109 60.9608L73.0547 62.5499C73.0266 63.1968 73.4625 63.7593 74.0813 63.914C74.0953 63.914 74.1094 63.914 74.1234 63.928C74.1375 64.0265 74.1656 64.2233 74.0953 64.5608C73.9406 65.3483 73.5469 66.0233 73.3359 66.2062C72.8859 66.3468 72.5344 66.7124 72.4219 67.1905C71.7469 69.9046 70.1438 71.7187 68.4141 71.7187C66.6844 71.7187 65.0813 69.8905 64.4203 67.1765C64.3078 66.7124 63.9563 66.3468 63.5063 66.2062C63.3094 66.0093 62.9016 65.3343 62.7609 64.5608C62.6906 64.2233 62.7047 64.0265 62.7328 63.928C62.7469 63.928 62.7609 63.928 62.775 63.914C63.3938 63.7593 63.8156 63.1827 63.8016 62.5499L63.7172 60.9468ZM83.4891 78.9186C82.7719 76.8374 81.3938 74.6577 78.6516 73.8421C76.8234 73.2796 74.8406 72.2671 73.4344 71.4796C74.0391 70.6218 74.5453 69.6093 74.8969 68.4562C75.9937 67.6686 76.5844 66.0233 76.7672 65.0811C77.0766 63.464 76.5984 62.353 75.8109 61.7483L75.8391 61.0733C75.9234 59.2312 75.3047 57.5296 74.0953 56.264C72.8156 54.928 71.0016 54.1827 68.9906 54.1827H67.8375C65.8266 54.1827 64.0125 54.928 62.7328 56.264C61.5234 57.5296 60.9047 59.2311 60.9891 61.0593L61.0172 61.7483C60.2438 62.353 59.7516 63.464 60.0609 65.0811C60.2719 66.1499 60.9047 67.6968 61.9172 68.4421C62.2687 69.5952 62.775 70.6077 63.3797 71.4796C61.8891 72.3093 59.9344 73.3077 58.1625 73.8421C55.8984 74.5171 54.225 76.2749 53.3109 78.9046C50.9484 75.7546 49.5281 71.8593 49.5281 67.6265C49.5281 57.2343 57.9938 48.7687 68.3859 48.7687C78.7781 48.7687 87.2438 57.2343 87.2438 67.6265C87.2719 71.8593 85.8516 75.7686 83.4891 78.9186Z" fill="#0000FF"/>
</svg>
