<svg width="92" height="92" viewBox="0 0 92 92" fill="none" xmlns="http://www.w3.org/2000/svg">
<path d="M91.9445 67.4742L87.1055 44.821C86.8234 43.5093 85.526 42.6648 84.2125 42.9379C84.2089 42.9379 84.2071 42.9397 84.2035 42.9397L74.2794 45.0636L68.0945 46.3825C59.2503 41.1841 49.5113 39.7412 38.3419 41.9712C38.3329 41.973 38.3257 41.973 38.3167 41.9748C34.2971 42.8013 30.4698 44.0016 26.7664 45.1624C25.5607 45.5398 24.4143 45.8991 23.2661 46.2459L17.721 45.0636C17.721 45.0636 17.721 45.0636 17.7192 45.0636L7.80041 42.9397C7.79681 42.9397 7.79322 42.9379 7.78963 42.9379C6.46533 42.6648 5.16798 43.5165 4.89845 44.8246L0.0558754 67.4724C-0.226234 68.7895 0.6165 70.0923 1.939 70.3762L11.8542 72.4947C11.8613 72.4965 11.8667 72.4965 11.8739 72.4983L12.8388 72.7085C12.891 72.7193 12.9431 72.7283 12.9952 72.7337C14.5746 72.899 16.1774 73.226 17.8593 73.7219V73.7291C17.7767 75.0552 18.2133 76.3292 19.0848 77.3175C19.9581 78.3094 21.1692 78.9006 22.4953 78.9832C22.6013 78.9904 22.7073 78.994 22.8133 78.994C23.5392 78.994 24.2436 78.8359 24.8869 78.5358C25.0702 79.2905 25.4331 80.0128 25.9812 80.6345C26.8527 81.6246 28.0638 82.2158 29.3881 82.3002C29.4959 82.3074 29.6019 82.311 29.7079 82.311C30.8813 82.311 31.9989 81.8995 32.8974 81.1413C33.095 81.8151 33.4382 82.4584 33.9324 83.019C34.8056 84.0109 36.0167 84.602 37.3428 84.6847C37.4488 84.6919 37.5549 84.6955 37.6609 84.6955C38.8702 84.6955 40.022 84.2624 40.9312 83.4592L41.7038 82.7782C41.9015 83.4502 42.2429 84.0917 42.7353 84.6523C43.7146 85.7592 45.082 86.3252 46.4584 86.3252C47.6263 86.3252 48.7979 85.9173 49.7395 85.0872L51.0188 83.9552C51.15 83.8402 51.2722 83.7198 51.389 83.594C57.5127 82.6309 64.0013 79.6211 71.1924 74.412L80.1426 72.4983H80.1444L90.0667 70.3798C91.3856 70.0923 92.2284 68.7895 91.9445 67.4742ZM67.0991 49.1335C67.4117 49.324 67.7855 49.3851 68.1431 49.3096L72.4933 48.3824L77.1526 70.1965L71.1636 71.4759C67.365 66.9405 62.2799 64.3818 57.3546 61.9021C51.6442 59.0289 46.2517 56.3156 43.3534 50.7812C43.1413 50.3769 42.7496 50.0966 42.2986 50.0284C41.8476 49.9601 41.3894 50.1092 41.066 50.4309C37.4578 54.0318 32.7303 55.7586 29.9253 55.5987C29.1419 55.5537 28.7843 55.3687 28.6927 55.286C28.6927 55.0758 28.9784 54.3103 30.3314 53.0597L39.2906 44.7114C49.7682 42.6989 58.8694 44.1472 67.0991 49.1335ZM7.61892 45.838L16.7021 47.7823L12.0428 69.5963L2.95424 67.6539L7.61892 45.838ZM14.8747 70.0887L19.5124 48.3824L23.0271 49.1317C23.126 49.1533 23.2266 49.1641 23.3272 49.1641C23.4656 49.1641 23.6039 49.1443 23.7387 49.1048C25.0253 48.7202 26.3478 48.3052 27.6271 47.9045C29.5767 47.2935 31.5641 46.6718 33.5856 46.104L28.3782 50.9573C26.3783 52.8063 25.5445 54.4954 25.9003 55.9796C26.0513 56.6103 26.5688 57.7441 28.3333 58.2437C31.3898 59.108 37.12 57.586 41.7398 53.7084C45.1916 59.0037 50.7098 61.7799 56.0627 64.4716C60.5189 66.7141 65.1135 69.0267 68.506 72.8002C62.783 76.8144 57.5774 79.3228 52.6953 80.4189C52.7438 79.1395 52.3126 77.9123 51.4645 76.9509C50.3648 75.7075 48.7727 75.1469 47.2328 75.305C47.1609 74.2538 46.7585 73.2188 46.011 72.3689C44.2267 70.3438 41.1468 70.1264 39.093 71.8568C38.8917 71.1722 38.5431 70.5343 38.058 69.9827C36.5738 68.3044 34.1965 67.8713 32.2577 68.7644C32.0708 67.9953 31.6988 67.2784 31.1616 66.6674C29.3485 64.6172 26.2094 64.4231 24.1645 66.2308L19.525 70.3205C19.2806 70.5361 19.0596 70.7715 18.8656 71.0266C17.4999 70.6116 16.1774 70.3007 14.8747 70.0887ZM24.1825 75.6015C23.7692 75.9662 23.2338 76.1495 22.6749 76.1136C22.1161 76.0795 21.6058 75.8315 21.2392 75.4146C20.8745 75.0013 20.6912 74.4659 20.7271 73.907C20.7613 73.3482 21.0092 72.8379 21.4243 72.4731L26.0656 68.3816C26.461 68.0331 26.9515 67.8623 27.442 67.8623C28.0206 67.8623 28.5956 68.1013 29.0071 68.5667C29.3737 68.9836 29.557 69.5209 29.521 70.0797C29.4851 70.6385 29.2389 71.1452 28.8238 71.5118L28.0584 72.1856L26.4178 73.6321C26.416 73.6321 26.416 73.6339 26.4142 73.6339L24.1825 75.6015C24.1843 75.6015 24.1843 75.5997 24.1825 75.6015ZM29.5695 79.4306C29.0107 79.3947 28.504 79.1485 28.1392 78.7334C27.3792 77.8709 27.46 76.5484 28.3189 75.7866L30.7267 73.6645L30.7285 73.6627L32.9567 71.6987C33.3538 71.3483 33.8479 71.1776 34.3385 71.1776C34.917 71.1776 35.4938 71.4166 35.9053 71.882C36.2719 72.297 36.4534 72.8361 36.4174 73.3967C36.3815 73.9538 36.1335 74.4623 35.7167 74.827L31.0825 78.9167C30.6656 79.2815 30.1284 79.463 29.5695 79.4306ZM39.0319 81.2994C38.6168 81.6659 38.0813 81.8474 37.5225 81.8133C36.9637 81.7791 36.4534 81.5312 36.0886 81.1161C35.3267 80.2518 35.4094 78.9293 36.2719 78.1674L40.9114 74.0777C41.3067 73.7291 41.7991 73.5584 42.2878 73.5584C42.8664 73.5584 43.4432 73.7974 43.8547 74.2646C44.6148 75.1271 44.5303 76.4478 43.666 77.2097L39.0319 81.2994ZM47.8384 82.9291C46.9741 83.691 45.6498 83.6084 44.8915 82.7495C44.1314 81.8834 44.2141 80.5591 45.0766 79.799L46.3595 78.6688C46.7567 78.3184 47.2508 78.1477 47.7413 78.1477C48.3199 78.1477 48.8967 78.3866 49.3082 78.852C49.6748 79.2671 49.8563 79.8062 49.8203 80.3668C49.7844 80.9238 49.5364 81.4323 49.1177 81.7989L47.8384 82.9291ZM79.9611 69.5963L75.3018 47.7823L84.385 45.838L89.0461 67.6557L79.9611 69.5963ZM48.9255 26.1551C49.4232 26.1551 49.9174 26.1012 50.3971 25.9952V30.6005C50.3971 31.8889 51.4465 32.9383 52.7349 32.9383H59.4642C59.9888 32.9383 60.4722 32.6526 60.7238 32.1908C60.9753 31.7308 60.9556 31.1684 60.6735 30.7263C60.2692 30.0938 60.0553 29.3571 60.0553 28.597C60.0553 26.4066 61.8378 24.6241 64.0282 24.6241C66.2186 24.6241 68.0011 26.4066 68.0011 28.597C68.0011 29.3571 67.7873 30.0938 67.383 30.7263C67.0991 31.1684 67.0811 31.729 67.3327 32.1908C67.5842 32.6508 68.0676 32.9383 68.5923 32.9383H75.3162C76.6081 32.9383 77.6593 31.8889 77.6593 30.6005V8.02281C77.6593 6.73086 76.6081 5.67969 75.3162 5.67969H52.7367C51.4483 5.67969 50.3989 6.73086 50.3989 8.02281V12.6246C49.9192 12.5186 49.425 12.4647 48.9273 12.4647C45.152 12.4647 42.0812 15.5355 42.0812 19.3108C42.0812 23.0842 45.152 26.1551 48.9255 26.1551ZM48.9255 15.3361C49.6856 15.3361 50.4241 15.5517 51.0566 15.9596C51.4986 16.2435 52.061 16.2633 52.521 16.0117C52.9828 15.7602 53.2685 15.2768 53.2685 14.7503V8.55109H74.7861V30.0669H70.7162C70.8204 29.5889 70.8743 29.0966 70.8743 28.6006C70.8743 24.8254 67.8035 21.7545 64.0282 21.7545C60.253 21.7545 57.1821 24.8254 57.1821 28.6006C57.1821 29.0984 57.236 29.5889 57.3402 30.0669H53.2703V23.873C53.2703 23.3484 52.9846 22.8668 52.5246 22.6134C52.0646 22.3601 51.504 22.3798 51.062 22.6602C50.4241 23.0662 49.6838 23.2819 48.9255 23.2819C46.7351 23.2819 44.9526 21.4994 44.9526 19.309C44.9526 17.1186 46.7351 15.3361 48.9255 15.3361ZM16.6842 32.9401H21.2895C21.1835 33.4198 21.1296 33.914 21.1296 34.4117C21.1296 38.187 24.2005 41.2578 27.9757 41.2578C31.751 41.2578 34.8218 38.187 34.8218 34.4117C34.8218 33.914 34.7679 33.4198 34.6619 32.9401H39.2619C40.5538 32.9401 41.605 31.8907 41.605 30.6023V23.873C41.605 23.3484 41.3193 22.8668 40.8593 22.6134C40.3993 22.3601 39.8387 22.3798 39.3967 22.6602C38.7588 23.0662 38.0185 23.2819 37.2584 23.2819C35.0698 23.2819 33.2909 21.4994 33.2909 19.309C33.2909 17.1186 35.0716 15.3361 37.2584 15.3361C38.0185 15.3361 38.757 15.5517 39.3913 15.9596C39.8333 16.2435 40.3957 16.2633 40.8557 16.0117C41.3175 15.7602 41.6032 15.2768 41.6032 14.7503V8.02281C41.6032 6.73086 40.552 5.67969 39.2601 5.67969H16.6842C15.3958 5.67969 14.3464 6.73086 14.3464 8.02281V30.6023C14.3464 31.8907 15.3958 32.9401 16.6842 32.9401ZM17.2196 8.55109H38.7354V12.6228C38.2556 12.5168 37.7615 12.4629 37.2638 12.4629C33.4921 12.4629 30.4231 15.5337 30.4231 19.309C30.4231 23.0842 33.4921 26.1551 37.2638 26.1551C37.7615 26.1551 38.2556 26.1012 38.7354 25.9952V30.0669H32.5416C32.0169 30.0669 31.5353 30.3526 31.282 30.8126C31.0286 31.2726 31.0484 31.8332 31.3287 32.2752C31.7348 32.9131 31.9504 33.6534 31.9504 34.4117C31.9504 36.6021 30.1679 38.3846 27.9775 38.3846C25.7871 38.3846 24.0046 36.6021 24.0046 34.4117C24.0046 33.6516 24.2185 32.9131 24.6263 32.2752C24.9085 31.8332 24.9264 31.2726 24.6731 30.8126C24.4197 30.3526 23.9381 30.0669 23.4135 30.0669H17.2196V8.55109Z" fill="#0000FF"/>
</svg>
