<svg width="90" height="90" viewBox="0 0 90 90" fill="none" xmlns="http://www.w3.org/2000/svg">
<path d="M74.809 61.9363C71.7544 61.9363 68.8635 62.9727 66.5453 64.8818L64.8544 63.1909C68.359 59.3454 70.5953 54.3409 70.8953 48.8045H75.6408C76.2271 51.3272 78.4771 53.209 81.1771 53.209C84.3271 53.209 86.8771 50.6454 86.8771 47.509C86.8771 44.359 84.3135 41.809 81.1771 41.809C78.4771 41.809 76.2271 43.6909 75.6408 46.2136H70.8953C70.5953 40.8409 68.4817 35.9454 65.1408 32.1409L70.1044 27.1772C71.5908 27.75 73.1726 28.0636 74.809 28.0636C78.2862 28.0636 81.559 26.7136 83.9999 24.259C84.5044 23.7545 84.9817 23.209 85.3908 22.6227C85.6226 22.2954 85.8408 21.9681 86.0453 21.6409C89.0453 16.5272 88.1999 10.0363 84.0135 5.84996C81.559 3.39541 78.2862 2.04541 74.809 2.04541C71.3317 2.04541 68.059 3.39541 65.6181 5.84996C61.4317 10.0363 60.5999 16.5272 63.5862 21.6409C63.7771 21.9818 63.9953 22.309 64.2271 22.6227C64.6499 23.2227 65.1135 23.7681 65.6181 24.259C66.259 24.9 66.9544 25.459 67.6908 25.95L63.3408 30.3C59.4953 26.7954 54.4908 24.559 48.9544 24.259V19.5136C51.4771 18.9272 53.359 16.6636 53.359 13.9772C53.359 10.8272 50.7953 8.27723 47.659 8.27723C44.509 8.27723 41.959 10.8409 41.959 13.9772C41.959 16.6772 43.8408 18.9272 46.3635 19.5136V24.259C40.8408 24.559 35.8226 26.7954 31.9771 30.3L25.1453 23.4681C25.3771 23.1954 25.5817 22.9227 25.7862 22.6363C26.0181 22.309 26.2362 21.9818 26.4408 21.6545C29.4408 16.5409 28.5953 10.05 24.409 5.86359C21.9544 3.40905 18.6817 2.05905 15.2044 2.05905C11.7271 2.05905 8.45442 3.40905 5.99987 5.86359C1.79987 10.0363 0.968054 16.5272 3.95442 21.6409C4.14533 21.9818 4.36351 22.309 4.59533 22.609C5.00442 23.1954 5.48169 23.7545 5.98624 24.2454C8.44078 26.7 11.7135 28.0636 15.1908 28.0636C18.1635 28.0636 20.9726 27.0681 23.2635 25.2545L30.1499 32.1409C26.809 35.9454 24.6953 40.8272 24.3953 46.2136H19.6362C19.0499 43.6909 16.7999 41.809 14.0999 41.809C10.9499 41.809 8.39987 44.3727 8.39987 47.509C8.39987 50.659 10.9635 53.209 14.0999 53.209C16.7999 53.209 19.0499 51.3272 19.6362 48.8045H24.3817C24.6817 54.3272 26.9181 59.3454 30.4226 63.1909L25.9635 67.6499C25.4999 66.9681 24.9817 66.3272 24.3953 65.7409C21.9408 63.2863 18.6681 61.9363 15.1908 61.9363C11.7135 61.9363 8.44078 63.2863 5.98624 65.7409C1.79987 69.9272 0.968054 76.4181 3.95442 81.5318C4.14533 81.8727 4.36351 82.2 4.59533 82.4999C5.00442 83.0863 5.48169 83.6454 5.98624 84.1363C8.44078 86.5909 11.7135 87.9545 15.1908 87.9545C18.6681 87.9545 21.9408 86.6045 24.3817 84.1499C24.8862 83.6454 25.3635 83.1 25.7726 82.5272C26.0044 82.2 26.2226 81.8727 26.4271 81.5454C28.5271 77.9727 28.7317 73.7181 27.2453 70.0499L32.2771 65.0181C36.0817 68.359 40.9635 70.4727 46.3499 70.7727V75.5181C43.8271 76.1045 41.9453 78.3681 41.9453 81.0545C41.9453 84.2045 44.509 86.7545 47.6453 86.7545C50.7953 86.7545 53.3453 84.1909 53.3453 81.0545C53.3453 78.3545 51.4635 76.1045 48.9408 75.5181V70.7727C54.3135 70.4727 59.209 68.359 63.0135 65.0181L64.7317 66.7363C61.3362 70.909 60.8181 76.8136 63.5862 81.5454C63.7771 81.8863 63.9953 82.2136 64.2271 82.5272C64.6499 83.1136 65.1135 83.6727 65.6181 84.1636C68.0726 86.6181 71.3453 87.9818 74.8226 87.9818C78.2999 87.9818 81.5726 86.6318 84.0135 84.1772C84.5181 83.6727 84.9953 83.1272 85.4044 82.5545C85.6362 82.2272 85.8544 81.8999 86.059 81.5727C89.059 76.459 88.2135 69.9681 84.0271 65.7818C81.559 63.2863 78.2862 61.9363 74.809 61.9363ZM81.1771 44.4C82.8953 44.4 84.2862 45.7909 84.2862 47.509C84.2862 49.2272 82.8953 50.6181 81.1771 50.6181C79.459 50.6181 78.0681 49.2272 78.0681 47.509C78.0681 45.7909 79.459 44.4 81.1771 44.4ZM67.4453 7.69086C69.409 5.72723 72.0135 4.64996 74.809 4.64996C77.5908 4.64996 80.209 5.72723 82.1726 7.7045C85.3362 10.8681 86.0726 15.6681 84.1362 19.65C84.0953 19.5954 84.0544 19.5409 84.0135 19.5C82.5135 18 80.7135 16.9227 78.7499 16.309C79.3771 15.4772 79.759 14.4545 79.759 13.3363C79.759 10.5954 77.5362 8.37268 74.7953 8.37268C72.0544 8.37268 69.8317 10.5954 69.8317 13.3363C69.8317 14.4545 70.2135 15.4772 70.8408 16.309C68.8771 16.9363 67.0771 18.0136 65.5771 19.5C65.5362 19.5409 65.4953 19.5954 65.4544 19.65C63.5453 15.6545 64.2817 10.8545 67.4453 7.69086ZM74.809 15.6681H74.7953C73.4999 15.6545 72.4499 14.6045 72.4499 13.309C72.4499 12 73.5135 10.95 74.809 10.95C76.1181 10.95 77.1681 12.0136 77.1681 13.309C77.1681 14.6045 76.118 15.6681 74.8226 15.6681C74.8226 15.6818 74.809 15.6681 74.809 15.6681ZM66.9544 21.9C67.118 21.709 67.2681 21.5045 67.4453 21.3136C69.409 19.35 72.0135 18.2727 74.7953 18.2727H74.809H74.8226C77.6044 18.2727 80.209 19.3636 82.1726 21.3136C82.3499 21.4909 82.4999 21.6681 82.6635 21.8454C82.4999 22.0363 82.3499 22.2409 82.1726 22.4181C80.209 24.3818 77.5908 25.4727 74.809 25.4727C72.0271 25.4727 69.409 24.3954 67.4317 22.4045C67.2681 22.2545 67.1044 22.0772 66.9544 21.9ZM7.82714 67.5681C9.79078 65.6045 12.409 64.5272 15.1908 64.5272C17.9726 64.5272 20.5908 65.6045 22.5544 67.5818C25.7181 70.7454 26.4544 75.5454 24.5181 79.5272C24.4771 79.4727 24.4362 79.4181 24.3953 79.3772C22.8953 77.8772 21.0953 76.7999 19.1317 76.1863C19.759 75.3545 20.1408 74.3318 20.1408 73.2136C20.1408 70.4727 17.9181 68.2499 15.1771 68.2499C12.4362 68.2499 10.2271 70.459 10.2271 73.2C10.2271 74.3181 10.609 75.3409 11.2362 76.1727C9.2726 76.7999 7.4726 77.8772 5.9726 79.3636C5.93169 79.4045 5.89078 79.459 5.84987 79.5136C3.92714 75.5318 4.66351 70.7318 7.82714 67.5681ZM15.1908 75.559H15.1771C13.8817 75.5454 12.8317 74.4954 12.8317 73.2C12.8317 71.8909 13.8953 70.8409 15.1908 70.8409C16.4862 70.8409 17.5499 71.9045 17.5499 73.2C17.5499 74.4954 16.4999 75.559 15.2044 75.559H15.1908ZM15.1908 85.3636C12.409 85.3636 9.79078 84.2863 7.81351 82.309C7.64987 82.1454 7.51351 81.9409 7.34987 81.7636C7.51351 81.5863 7.64987 81.3818 7.81351 81.2045C9.77714 79.2409 12.3817 78.1636 15.1635 78.1636H15.1771H15.1908C17.9726 78.1636 20.5771 79.2545 22.5408 81.2045C22.7181 81.3818 22.8544 81.5727 23.0044 81.7636C22.8408 81.9409 22.7044 82.1454 22.5408 82.3227C20.5908 84.2727 17.9726 85.3636 15.1908 85.3636ZM47.6317 68.2363C45.7499 68.2363 43.7726 65.8363 42.2999 61.7999H52.9499C51.5044 65.8499 49.5135 68.2363 47.6317 68.2363ZM26.9726 48.8045H37.5544C37.6362 52.6227 38.0726 56.1545 38.809 59.209H30.5453C28.4862 56.209 27.2181 52.65 26.9726 48.8045ZM30.5453 35.809H38.809C38.0726 38.8636 37.6362 42.3818 37.5544 46.2136H26.9726C27.2181 42.3681 28.4862 38.809 30.5453 35.809ZM47.6317 26.7818C49.5135 26.7818 51.4908 29.1681 52.9635 33.2181H42.3135C43.7726 29.1681 45.7635 26.7818 47.6317 26.7818ZM53.7681 35.809C54.5317 38.7409 55.0362 42.259 55.1317 46.2136H40.1453C40.2408 42.2727 40.7453 38.7409 41.509 35.809H53.7681ZM68.3044 46.2136H57.7226C57.6408 42.3954 57.2044 38.8636 56.4681 35.809H64.7453C66.7908 38.809 68.059 42.3681 68.3044 46.2136ZM39.5453 61.7999C40.2953 64.1045 41.2362 66.0272 42.3135 67.5136C38.5771 66.5181 35.2635 64.5136 32.659 61.7999H39.5453ZM41.509 59.209C40.7453 56.2772 40.2408 52.759 40.1453 48.8045H55.1317C55.0362 52.7454 54.5453 56.2772 53.7681 59.209H41.509ZM57.7226 48.8045H68.3044C68.059 52.65 66.7908 56.209 64.7453 59.209H56.4681C57.2044 56.1545 57.6408 52.6227 57.7226 48.8045ZM62.6181 33.2181H55.7317C54.9817 30.9136 54.0408 28.9909 52.9635 27.5045C56.6999 28.5 60.0135 30.5045 62.6181 33.2181ZM44.5362 13.9772C44.5362 12.259 45.9271 10.8681 47.6453 10.8681C49.3635 10.8681 50.7544 12.259 50.7544 13.9772C50.7544 15.6954 49.3635 17.0863 47.6453 17.0863C45.9271 17.0863 44.5362 15.6818 44.5362 13.9772ZM42.3135 27.5045C41.2362 28.9909 40.2953 30.9272 39.5453 33.2181H32.659C35.2635 30.5045 38.5771 28.5 42.3135 27.5045ZM7.82714 7.69086C9.77714 5.72723 12.3953 4.63632 15.1771 4.63632C17.959 4.63632 20.5771 5.71359 22.5408 7.69086C25.7044 10.8545 26.4408 15.6545 24.5044 19.6363C24.4635 19.5954 24.4226 19.5409 24.3817 19.4863C22.8817 17.9863 21.0817 16.909 19.1181 16.2954C19.7453 15.4636 20.1271 14.4409 20.1271 13.3227C20.1271 10.5818 17.9044 8.35905 15.1635 8.35905C12.4226 8.35905 10.2271 10.5818 10.2271 13.309C10.2271 14.4272 10.609 15.45 11.2362 16.2818C9.2726 16.909 7.4726 17.9863 5.9726 19.4727C5.93169 19.5136 5.89078 19.5681 5.84987 19.6227C3.92714 15.6545 4.66351 10.8545 7.82714 7.69086ZM15.1908 15.6681H15.1771C13.8817 15.6545 12.8317 14.6045 12.8317 13.309C12.8317 12 13.8953 10.95 15.1908 10.95C16.4862 10.95 17.5499 12.0136 17.5499 13.309C17.5499 14.6045 16.4999 15.6681 15.2044 15.6681C15.2044 15.6818 15.1908 15.6681 15.1908 15.6681ZM15.1908 25.4727C12.409 25.4727 9.79078 24.3954 7.81351 22.4181C7.63624 22.2545 7.49987 22.0363 7.33624 21.859C7.48624 21.6818 7.64987 21.5045 7.82714 21.3272C9.79078 19.3636 12.3953 18.2863 15.1771 18.2863H15.1908H15.2044C17.9862 18.2863 20.5908 19.3772 22.5544 21.3272C22.7317 21.5045 22.8817 21.6818 23.0453 21.859C22.8817 22.05 22.7317 22.2545 22.5544 22.4318C20.5908 24.3954 17.9726 25.4727 15.1908 25.4727ZM14.0999 50.6181C12.3817 50.6181 10.9908 49.2272 10.9908 47.509C10.9908 45.7909 12.3817 44.4 14.0999 44.4C15.8181 44.4 17.209 45.7909 17.209 47.509C17.209 49.2272 15.8181 50.6181 14.0999 50.6181ZM50.7408 81.0409C50.7408 82.759 49.3499 84.1499 47.6317 84.1499C45.9135 84.1499 44.5226 82.759 44.5226 81.0409C44.5226 79.3227 45.9135 77.9318 47.6317 77.9318C49.3499 77.9318 50.7408 79.3363 50.7408 81.0409ZM52.9635 67.5136C54.0408 66.0272 54.9817 64.0909 55.7317 61.7999H62.6181C60.0135 64.5136 56.6999 66.5181 52.9635 67.5136ZM74.809 85.3636C72.0271 85.3636 69.409 84.2863 67.4317 82.309C67.2681 82.1454 67.1044 81.9681 66.9544 81.7909C67.118 81.5999 67.2681 81.3954 67.4453 81.2181C69.409 79.2545 72.0135 78.1772 74.7953 78.1772H74.809H74.8226C77.6044 78.1772 80.209 79.2681 82.1726 81.2181C82.3499 81.3954 82.4862 81.5863 82.6362 81.7772C82.4726 81.9545 82.3362 82.159 82.1726 82.3363C80.209 84.2727 77.5908 85.3636 74.809 85.3636ZM72.4362 73.2C72.4362 71.8909 73.4999 70.8409 74.7953 70.8409C76.1044 70.8409 77.1544 71.9045 77.1544 73.2C77.1544 74.4954 76.1044 75.559 74.809 75.559H74.7953H74.7817C73.4862 75.5454 72.4362 74.4954 72.4362 73.2ZM84.1362 79.5136C84.0953 79.4727 84.0544 79.4181 83.9999 79.3636C82.4999 77.8636 80.6999 76.7863 78.7362 76.1727C79.3635 75.3409 79.7453 74.3181 79.7453 73.2C79.7453 70.459 77.5226 68.2363 74.7817 68.2363C72.0408 68.2363 69.8181 70.459 69.8181 73.2C69.8181 74.3181 70.1999 75.3409 70.8271 76.1727C68.8635 76.7999 67.0635 77.8772 65.5771 79.3636C65.5362 79.4045 65.4953 79.459 65.4544 79.5136C63.5181 75.5318 64.2544 70.7318 67.4181 67.5681C69.3817 65.6045 71.9862 64.5272 74.7817 64.5272C77.5635 64.5272 80.1817 65.6045 82.1453 67.5818C85.3362 70.7318 86.0862 75.5318 84.1362 79.5136Z" fill="black"/>
</svg>
