<svg width="90" height="90" viewBox="0 0 90 90" fill="none" xmlns="http://www.w3.org/2000/svg">
<g clip-path="url(#clip0_336_582)">
<path fill-rule="evenodd" clip-rule="evenodd" d="M74.0514 90H15.9486C14.0941 90 12.5859 88.4918 12.5859 86.6373V3.3627C12.5859 1.5082 14.0941 0 15.9486 0H58.1098C58.3893 0 58.6582 0.110742 58.8551 0.309375C59.0537 0.50625 59.1645 0.775195 59.1645 1.05469V16.5779C59.1645 17.383 59.8201 18.0404 60.6269 18.0404H76.3594C76.9412 18.0404 77.4141 18.5115 77.4141 19.0951V86.6373C77.4141 88.4918 75.9059 90 74.0514 90ZM15.9486 2.10938C15.2578 2.10938 14.6953 2.67187 14.6953 3.3627V86.6373C14.6953 87.3281 15.2578 87.8906 15.9486 87.8906H74.0514C74.7422 87.8906 75.3047 87.3281 75.3047 86.6373V20.1498H60.6269C58.6582 20.1498 57.0551 18.5467 57.0551 16.5779V2.10938H15.9486Z" fill="#0000FF"/>
<path fill-rule="evenodd" clip-rule="evenodd" d="M76.3595 20.1496H60.6271C58.6583 20.1496 57.0552 18.5465 57.0552 16.5777V1.05446C57.0552 0.629069 57.3118 0.245866 57.7038 0.0806316C58.0958 -0.0828449 58.5493 0.00504568 58.8517 0.305632L77.1013 18.3443C77.4054 18.6449 77.4968 19.1002 77.3351 19.4957C77.1733 19.8912 76.7866 20.1496 76.3595 20.1496ZM59.1646 3.58044V16.5777C59.1646 17.3828 59.8202 18.0402 60.6271 18.0402H73.7931L59.1646 3.58044Z" fill="#0000FF"/>
<path fill-rule="evenodd" clip-rule="evenodd" d="M49.3331 9.08398H22.4175C21.8356 9.08398 21.3628 8.61113 21.3628 8.0293C21.3628 7.44746 21.8356 6.97461 22.4175 6.97461H49.3331C49.9167 6.97461 50.3878 7.44746 50.3878 8.0293C50.3878 8.61113 49.9167 9.08398 49.3331 9.08398Z" fill="#0000FF"/>
<path fill-rule="evenodd" clip-rule="evenodd" d="M49.3331 14.9429H22.4175C21.8356 14.9429 21.3628 14.47 21.3628 13.8882C21.3628 13.3063 21.8356 12.8335 22.4175 12.8335H49.3331C49.9167 12.8335 50.3878 13.3063 50.3878 13.8882C50.3878 14.47 49.9167 14.9429 49.3331 14.9429Z" fill="#0000FF"/>
<path fill-rule="evenodd" clip-rule="evenodd" d="M59.9678 84.7227H30.0322C28.7473 84.7227 27.7031 83.6785 27.7031 82.3953V60.3137C27.7031 59.0305 28.7473 57.9863 30.0322 57.9863H59.9678C61.2527 57.9863 62.2969 59.0305 62.2969 60.3137V82.3953C62.2969 83.6785 61.2527 84.7227 59.9678 84.7227ZM30.0322 60.0957C29.9127 60.0957 29.8125 60.1959 29.8125 60.3137V82.3953C29.8125 82.5131 29.9127 82.6133 30.0322 82.6133H59.9678C60.0873 82.6133 60.1875 82.5131 60.1875 82.3953V60.3137C60.1875 60.1959 60.0873 60.0957 59.9678 60.0957H30.0322Z" fill="#0000FF"/>
<path fill-rule="evenodd" clip-rule="evenodd" d="M57.5787 60.0958H32.4209C31.8391 60.0958 31.3662 59.6229 31.3662 59.0411V52.5108C31.3662 45.52 37.0545 39.8335 44.0453 39.8335H45.9561C52.9469 39.8335 58.6352 45.52 58.6352 52.5108V59.0411C58.6334 59.6229 58.1623 60.0958 57.5787 60.0958ZM33.4756 57.9864H56.524V52.5108C56.524 46.6837 51.7832 41.9429 45.9561 41.9429H44.0453C38.2164 41.9429 33.4756 46.6837 33.4756 52.5108V57.9864Z" fill="#0000FF"/>
<path fill-rule="evenodd" clip-rule="evenodd" d="M52.4849 60.0959H37.5171C36.9335 60.0959 36.4624 59.623 36.4624 59.0412V52.5109C36.4624 48.3309 39.8638 44.9277 44.0456 44.9277H45.9564C50.1382 44.9277 53.5396 48.3309 53.5396 52.5109V59.0412C53.5396 59.623 53.0667 60.0959 52.4849 60.0959ZM38.5718 57.9865H51.4302V52.5109C51.4302 49.4928 48.9745 47.0371 45.9564 47.0371H44.0456C41.0257 47.0371 38.5718 49.4928 38.5718 52.5109V57.9865Z" fill="#0000FF"/>
<path fill-rule="evenodd" clip-rule="evenodd" d="M48.8568 79.2822C48.8568 79.2822 48.8551 79.2822 48.8533 79.2822H41.1471C40.8342 79.2822 40.5371 79.1451 40.3367 78.9043C40.1363 78.6652 40.0537 78.3488 40.1082 78.0412L41.5074 70.2594C40.9766 69.5281 40.69 68.651 40.69 67.7352C40.69 65.3586 42.6236 63.4268 45.0002 63.4268C47.3767 63.4268 49.3086 65.3586 49.3086 67.7352C49.3086 68.651 49.0221 69.5281 48.493 70.2594L49.8764 77.9551C49.8992 78.043 49.9115 78.1344 49.9115 78.2275C49.9115 78.8111 49.4404 79.2822 48.8568 79.2822ZM42.4074 77.1729H47.593L46.3309 70.1539C46.2711 69.8252 46.3713 69.4877 46.6016 69.2434C46.9883 68.8338 47.201 68.2977 47.201 67.7352C47.201 66.5223 46.2131 65.5344 45.0002 65.5344C43.7873 65.5344 42.8012 66.5223 42.8012 67.7352C42.8012 68.2977 43.0139 68.8338 43.3988 69.2434C43.6291 69.4877 43.7293 69.8252 43.6695 70.1539L42.4074 77.1729Z" fill="#0000FF"/>
<path fill-rule="evenodd" clip-rule="evenodd" d="M68.6198 25.4248H21.3804C20.7968 25.4248 20.3257 24.9537 20.3257 24.3701C20.3257 23.7883 20.7968 23.3154 21.3804 23.3154H68.6198C69.2034 23.3154 69.6745 23.7883 69.6745 24.3701C69.6745 24.9537 69.2034 25.4248 68.6198 25.4248Z" fill="#0000FF"/>
<path fill-rule="evenodd" clip-rule="evenodd" d="M68.6198 31.1465H21.3804C20.7968 31.1465 20.3257 30.6736 20.3257 30.0918C20.3257 29.51 20.7968 29.0371 21.3804 29.0371H68.6198C69.2034 29.0371 69.6745 29.51 69.6745 30.0918C69.6745 30.6736 69.2034 31.1465 68.6198 31.1465Z" fill="#0000FF"/>
<path fill-rule="evenodd" clip-rule="evenodd" d="M68.6198 36.8662H21.3804C20.7968 36.8662 20.3257 36.3951 20.3257 35.8115C20.3257 35.2297 20.7968 34.7568 21.3804 34.7568H68.6198C69.2034 34.7568 69.6745 35.2297 69.6745 35.8115C69.6745 36.3951 69.2034 36.8662 68.6198 36.8662Z" fill="#0000FF"/>
</g>
<defs>
<clipPath id="clip0_336_582">
<rect width="90" height="90" fill="white"/>
</clipPath>
</defs>
</svg>
