<svg width="90" height="91" viewBox="0 0 90 91" fill="none" xmlns="http://www.w3.org/2000/svg">
<path d="M47.3084 37.7611L45.9243 39.1606L47.3084 40.5601C47.8575 41.1153 47.8575 42.0155 47.3084 42.5708C47.0338 42.8484 46.6738 42.9872 46.314 42.9872C45.9542 42.9872 45.5942 42.8484 45.3196 42.5708L43.9355 41.1713L42.5514 42.5708C42.2768 42.8484 41.917 42.9872 41.557 42.9872C41.197 42.9872 40.8372 42.8484 40.5626 42.5708C40.0135 42.0155 40.0135 41.1153 40.5626 40.5601L41.9467 39.1606L40.5626 37.7611C40.0135 37.2059 40.0135 36.3056 40.5626 35.7504C41.1121 35.195 42.0023 35.1952 42.5514 35.7504L43.9355 37.1499L45.3196 35.7504C45.8689 35.1952 46.7591 35.1952 47.3084 35.7504C47.8575 36.3056 47.8575 37.2059 47.3084 37.7611ZM63.79 63.1693C63.79 70.0316 58.2685 75.6144 51.4816 75.6144C44.6947 75.6144 39.1732 70.0316 39.1732 63.1693C39.1732 56.307 44.6947 50.7242 51.4816 50.7242C58.2685 50.7242 63.79 56.307 63.79 63.1693ZM60.9775 63.1693C60.9775 57.8751 56.7178 53.5679 51.4816 53.5679C46.2454 53.5679 41.9857 57.8751 41.9857 63.1693C41.9857 68.4635 46.2456 72.7707 51.4816 72.7707C56.7176 72.7707 60.9775 68.4635 60.9775 63.1693ZM52.7773 13.9221H78.0494C78.826 13.9221 79.4556 13.2855 79.4556 12.5002C79.4556 11.715 78.826 11.0784 78.0494 11.0784H52.7773C52.0007 11.0784 51.3711 11.715 51.3711 12.5002C51.3711 13.2855 52.0007 13.9221 52.7773 13.9221ZM52.7773 43.0565H78.0494C78.826 43.0565 79.4556 42.4199 79.4556 41.6346C79.4556 40.8494 78.826 40.2128 78.0494 40.2128H52.7773C52.0007 40.2128 51.3711 40.8494 51.3711 41.6346C51.3711 42.4199 52.0007 43.0565 52.7773 43.0565ZM41.5547 30.5108C41.8186 30.7774 42.1761 30.9272 42.5491 30.9272C42.9221 30.9272 43.2797 30.7774 43.5435 30.5108L48.4176 25.5826C48.9667 25.0273 48.9667 24.1271 48.4176 23.5719C47.8683 23.0166 46.9781 23.0166 46.4288 23.5719L42.5493 27.4945L41.4422 26.3751C40.8931 25.8198 40.0028 25.8197 39.4536 26.3751C38.9043 26.9303 38.9043 27.8306 39.4536 28.3858L41.5551 30.5108H41.5547ZM41.5547 18.3831C41.8186 18.6497 42.1761 18.7995 42.5491 18.7995C42.9221 18.7995 43.2797 18.6497 43.5435 18.3831L48.4176 13.4549C48.9667 12.8996 48.9667 11.9994 48.4176 11.4442C47.8683 10.8889 46.9781 10.8889 46.4288 11.4442L42.5493 15.3667L41.4422 14.2474C40.8931 13.6921 40.0028 13.692 39.4536 14.2474C38.9043 14.8026 38.9043 15.7028 39.4536 16.2581L41.5551 18.3831H41.5547ZM88.845 2.78564V63.6748C88.845 64.46 88.2153 65.0966 87.4387 65.0966H67.8998C67.6008 67.717 66.7004 70.1546 65.3414 72.2645C69.8304 76.319 74.9257 80.9321 75.3636 81.3745C77.2302 83.262 77.2302 86.3329 75.3636 88.2204C74.4302 89.1642 73.2043 89.6361 71.9782 89.6361C70.7522 89.6361 69.5264 89.1642 68.593 88.2206C68.1499 87.7725 63.5005 82.5216 59.3738 77.8502C57.0272 79.1451 54.3379 79.8817 51.4816 79.8817C50.2995 79.8817 49.1464 79.7546 48.034 79.5148V82.2653C48.034 85.1911 45.6796 87.5715 42.7861 87.5715H6.40322C3.50951 87.5715 1.15527 85.1909 1.15527 82.2653V73.6858C1.15527 65.0718 5.83914 58.9826 14.4104 56.3198C11.8881 53.7167 10.3289 50.1561 10.3289 46.2326C10.3289 38.279 16.7284 31.8082 24.5946 31.8082C27.0602 31.8082 29.3815 32.4444 31.4071 33.5623V2.78564C31.4071 2.00041 32.0367 1.36377 32.8133 1.36377H87.4389C88.2155 1.36377 88.8452 2.00041 88.8452 2.78564H88.845ZM24.5945 57.8133C30.9099 57.8133 36.0479 52.6183 36.0479 46.2328C36.0479 39.8474 30.9099 34.6522 24.5945 34.6522C18.279 34.6522 13.1413 39.8472 13.1413 46.2328C13.1413 52.6185 18.2792 57.8133 24.5945 57.8133ZM45.2215 78.6354C39.2026 76.1356 34.9529 70.1452 34.9529 63.1693C34.9529 61.8176 35.1136 60.5035 35.4145 59.244C34.4396 58.8937 33.3948 58.6006 32.2928 58.3667C30.0701 59.8135 27.4288 60.6568 24.5945 60.6568C21.8627 60.6568 19.3087 59.8752 17.1375 58.5233C11.0549 59.9256 3.96777 63.7029 3.96777 73.6858V82.2653C3.96777 83.6231 5.06043 84.7278 6.40322 84.7278H42.7861C44.129 84.7278 45.2215 83.623 45.2215 82.2653V78.6354ZM65.1977 63.1693C65.1977 55.5223 59.0446 49.3009 51.4816 49.3009C43.9186 49.3009 37.7654 55.5223 37.7654 63.1693C37.7654 70.8163 43.9185 77.0377 51.4816 77.0377C59.0448 77.0377 65.1977 70.8163 65.1977 63.1693ZM63.6082 74.5123C63.0313 75.1424 62.4075 75.7277 61.742 76.2621C66.9943 82.2066 70.273 85.8965 70.582 86.2097C71.3521 86.9884 72.6051 86.988 73.3748 86.2097C74.1449 85.4311 74.1449 84.1642 73.3748 83.3857C73.0677 83.0761 69.4377 79.778 63.6082 74.5123ZM86.0325 4.20752H34.2194V35.5965C37.0697 38.2355 38.8604 42.0264 38.8604 46.2328C38.8604 50.0543 37.3803 53.5308 34.9726 56.1143C35.428 56.2487 35.8731 56.3932 36.307 56.548C38.848 50.6172 44.6929 46.4573 51.4816 46.4573C60.2912 46.4573 67.5129 53.4625 67.985 62.2531H86.0323L86.0325 4.20752ZM52.7773 38.1775H78.0494C78.826 38.1775 79.4556 37.5409 79.4556 36.7557C79.4556 35.9704 78.826 35.3338 78.0494 35.3338H52.7773C52.0007 35.3338 51.3711 35.9704 51.3711 36.7557C51.3711 37.5409 52.0007 38.1775 52.7773 38.1775ZM52.7773 18.8009H78.0494C78.826 18.8009 79.4556 18.1643 79.4556 17.3791C79.4556 16.5938 78.826 15.9572 78.0494 15.9572H52.7773C52.0007 15.9572 51.3711 16.5938 51.3711 17.3791C51.3711 18.1643 52.0007 18.8009 52.7773 18.8009ZM52.7773 26.0498H78.0494C78.826 26.0498 79.4556 25.4132 79.4556 24.628C79.4556 23.8427 78.826 23.2061 78.0494 23.2061H52.7773C52.0007 23.2061 51.3711 23.8427 51.3711 24.628C51.3711 25.4132 52.0007 26.0498 52.7773 26.0498ZM52.7773 30.9288H78.0494C78.826 30.9288 79.4556 30.2922 79.4556 29.5069C79.4556 28.7217 78.826 28.0851 78.0494 28.0851H52.7773C52.0007 28.0851 51.3711 28.7217 51.3711 29.5069C51.3711 30.2922 52.0007 30.9288 52.7773 30.9288Z" fill="black"/>
</svg>
