<svg width="100" height="100" viewBox="0 0 100 100" fill="none" xmlns="http://www.w3.org/2000/svg">
<path d="M87.4501 76.4902C86.1709 75.6574 84.7938 74.9857 83.3501 74.4902C84.9972 73.2479 86.2122 71.5195 86.8234 69.5491C87.4346 67.5787 87.411 65.4661 86.756 63.5098C86.101 61.5535 84.8477 59.8526 83.1733 58.6475C81.4989 57.4423 79.4881 56.7939 77.4251 56.7939C75.3621 56.7939 73.3513 57.4423 71.6769 58.6475C70.0025 59.8526 68.7492 61.5535 68.0942 63.5098C67.4392 65.4661 67.4157 67.5787 68.0268 69.5491C68.638 71.5195 69.853 73.2479 71.5001 74.4902C70.0564 74.9857 68.6793 75.6574 67.4001 76.4902C65.9085 77.4943 64.6501 78.8073 63.7101 80.3401C62.7674 78.8029 61.5014 77.4892 60.0001 76.4902C58.723 75.6536 57.3455 74.9816 55.9001 74.4902C57.5453 73.2491 58.7588 71.5223 59.3691 69.554C59.9794 67.5856 59.9557 65.4753 59.3013 63.5211C58.6469 61.567 57.3949 59.868 55.7222 58.6642C54.0496 57.4604 52.0409 56.8127 49.9801 56.8127C47.9193 56.8127 45.9106 57.4604 44.238 58.6642C42.5653 59.868 41.3133 61.567 40.6589 63.5211C40.0045 65.4753 39.9808 67.5856 40.5911 69.554C41.2014 71.5223 42.4149 73.2491 44.0601 74.4902C42.6147 74.9816 41.2372 75.6536 39.9601 76.4902C38.4685 77.4943 37.2101 78.8073 36.2701 80.3401C35.3331 78.805 34.0742 77.4914 32.5801 76.4902C31.303 75.6536 29.9255 74.9816 28.4801 74.4902C30.1253 73.2491 31.3388 71.5223 31.9491 69.554C32.5594 67.5856 32.5357 65.4753 31.8813 63.5211C31.2269 61.567 29.9749 59.868 28.3022 58.6642C26.6296 57.4604 24.6209 56.8127 22.5601 56.8127C20.4993 56.8127 18.4906 57.4604 16.818 58.6642C15.1453 59.868 13.8933 61.567 13.2389 63.5211C12.5845 65.4753 12.5608 67.5856 13.1711 69.554C13.7814 71.5223 14.9949 73.2491 16.6401 74.4902C15.1947 74.9816 13.8172 75.6536 12.5401 76.4902C10.7513 77.7083 9.29183 79.3503 8.292 81.2697C7.29217 83.1891 6.78306 85.3261 6.81011 87.4902C6.80876 87.6897 6.84723 87.8874 6.92326 88.0719C6.9993 88.2564 7.11137 88.4238 7.25292 88.5644C7.39447 88.7051 7.56264 88.816 7.74761 88.8908C7.93257 88.9657 8.1306 89.0028 8.33011 89.0002H91.6701C92.0679 89.0002 92.4495 88.8421 92.7308 88.5608C93.0121 88.2795 93.1701 87.898 93.1701 87.5002C93.1981 85.3357 92.6906 83.1978 91.6926 81.2769C90.6947 79.356 89.2372 77.7116 87.4501 76.4902ZM15.7501 66.6502C15.7501 65.2997 16.1504 63.9796 16.9005 62.8566C17.6505 61.7337 18.7166 60.8583 19.9641 60.341C21.2115 59.8238 22.5843 59.6879 23.9089 59.9507C25.2335 60.2134 26.4505 60.8629 27.4061 61.8171C28.3617 62.7713 29.013 63.9873 29.2776 65.3116C29.5423 66.6358 29.4085 68.0088 28.8931 69.257C28.3777 70.5051 27.5038 71.5725 26.3819 72.3242C25.26 73.0759 23.9405 73.4782 22.5901 73.4802C20.7778 73.4802 19.0395 72.7609 17.757 71.4803C16.4746 70.1997 15.7528 68.4625 15.7501 66.6502ZM34.3401 86.0002H9.93011C10.1079 84.5971 10.5814 83.2476 11.3191 82.041C12.0569 80.8343 13.0423 79.7979 14.2101 79.0002C16.6852 77.3497 19.5952 76.4726 22.5701 76.4802C25.5679 76.4653 28.5023 77.3425 31.0001 79.0002C32.772 80.2097 34.0995 81.9657 34.7801 84.0002C34.5862 84.6555 34.4391 85.3239 34.3401 86.0002ZM43.1701 66.6301C43.1721 65.2773 43.5752 63.9555 44.3284 62.8317C45.0816 61.708 46.1512 60.8329 47.4018 60.317C48.6524 59.8011 50.0279 59.6677 51.3543 59.9335C52.6808 60.1994 53.8986 60.8526 54.8538 61.8106C55.809 62.7686 56.4586 63.9883 56.7206 65.3156C56.9826 66.6428 56.8451 68.0179 56.3256 69.2669C55.8061 70.516 54.9278 71.583 53.8019 72.333C52.676 73.0829 51.3529 73.4821 50.0001 73.4802C48.1895 73.4775 46.4538 72.7571 45.1735 71.4768C43.8932 70.1965 43.1727 68.4608 43.1701 66.6502V66.6301ZM61.7601 86.0002H37.3501C37.4492 85.2923 37.6167 84.5957 37.8501 83.9202C38.5421 81.9102 39.8732 80.1821 41.6401 79.0002C44.1152 77.3497 47.0252 76.4726 50.0001 76.4802C52.9775 76.4772 55.8893 77.3539 58.3701 79.0002C60.1451 80.2064 61.4734 81.9636 62.1501 84.0002C62.3835 84.6757 62.551 85.3723 62.6501 86.0802L61.7601 86.0002ZM70.5901 66.6301C70.5881 65.2769 70.9876 63.9535 71.738 62.8273C72.4884 61.7012 73.5559 60.8229 74.8056 60.3037C76.0553 59.7845 77.4309 59.6476 78.7584 59.9104C80.0859 60.1732 81.3056 60.8238 82.2632 61.78C83.2208 62.7362 83.8732 63.9549 84.1379 65.2821C84.4027 66.6092 84.2678 67.985 83.7504 69.2354C83.233 70.4858 82.3563 71.5547 81.2312 72.3067C80.1062 73.0587 78.7834 73.4601 77.4301 73.4602C75.6212 73.4602 73.886 72.7437 72.6041 71.4674C71.3222 70.1911 70.598 68.459 70.5901 66.6502V66.6301ZM65.6601 86.0002C65.5862 85.2975 65.4557 84.6019 65.2701 83.9202C65.9621 81.9102 67.2932 80.1821 69.0601 79.0002C71.5324 77.3516 74.4386 76.4745 77.4101 76.4802C80.3909 76.4752 83.3065 77.352 85.7901 79.0002C86.958 79.7979 87.9433 80.8343 88.6811 82.041C89.4189 83.2476 89.8923 84.5971 90.0701 86.0002H65.6601Z" fill="black"/>
<path d="M43.3898 34.2201L40.7298 42.4001C40.6325 42.7009 40.6333 43.0247 40.7322 43.3249C40.8311 43.6251 41.0228 43.8861 41.2798 44.0701C41.5339 44.26 41.8426 44.3626 42.1598 44.3626C42.477 44.3626 42.7857 44.26 43.0398 44.0701L50.0398 39.0701L57.0398 44.0701C57.2928 44.2618 57.6024 44.3638 57.9198 44.3601C58.24 44.3623 58.5523 44.2605 58.8098 44.0701C59.0638 43.8837 59.2526 43.6221 59.3495 43.3224C59.4465 43.0226 59.4466 42.6999 59.3498 42.4001L56.6898 34.2201L63.6898 29.1601C63.951 28.9771 64.1466 28.7151 64.2477 28.4126C64.3489 28.1101 64.3504 27.7831 64.2519 27.4797C64.1533 27.1764 63.9601 26.9126 63.7005 26.7273C63.4409 26.542 63.1287 26.4448 62.8098 26.4501H54.2098L51.5498 18.2601C51.4512 17.96 51.2603 17.6987 51.0044 17.5135C50.7485 17.3282 50.4407 17.2285 50.1248 17.2285C49.8089 17.2285 49.5011 17.3282 49.2452 17.5135C48.9893 17.6987 48.7984 17.96 48.6998 18.2601L46.0398 26.4501H37.3098C36.9979 26.4459 36.6927 26.5404 36.4377 26.7199C36.1827 26.8995 35.9909 27.1551 35.8898 27.4501C35.7923 27.7514 35.7919 28.0757 35.8888 28.3772C35.9857 28.6787 36.175 28.9421 36.4298 29.1301L43.3898 34.2201ZM46.9998 29.4501C47.3113 29.4528 47.6158 29.3578 47.8706 29.1784C48.1253 28.9991 48.3174 28.7444 48.4198 28.4501L49.9998 23.5801L51.5698 28.4101C51.6741 28.7051 51.868 28.9602 52.1244 29.1395C52.3808 29.3188 52.6869 29.4134 52.9998 29.4101H58.0698L53.9698 32.4101C53.712 32.5958 53.5199 32.8586 53.421 33.1605C53.3222 33.4624 53.3217 33.788 53.4198 34.0901L54.9998 38.9301L50.8898 35.9301C50.6351 35.7418 50.3266 35.6401 50.0098 35.6401C49.693 35.6401 49.3845 35.7418 49.1298 35.9301L45.0198 38.9301L46.5898 34.1101C46.6822 33.8037 46.6748 33.4759 46.5688 33.1739C46.4627 32.872 46.2635 32.6115 45.9998 32.4301L41.8898 29.4301L46.9998 29.4501Z" fill="black"/>
<path d="M6.9999 40.14C7.11287 40.4128 7.30436 40.6459 7.55006 40.8097C7.79577 40.9735 8.0846 41.0606 8.3799 41.06H32.3799C34.1311 44.2165 36.695 46.8469 39.8056 48.6785C42.9162 50.51 46.4602 51.4758 50.0699 51.4758C53.6796 51.4758 57.2237 50.51 60.3342 48.6785C63.4448 46.8469 66.0087 44.2165 67.7599 41.06H91.7599C92.0566 41.0613 92.347 40.9746 92.5945 40.8108C92.8419 40.647 93.0352 40.4136 93.1499 40.14C93.2613 39.865 93.2904 39.5636 93.2336 39.2724C93.1767 38.9812 93.0365 38.7129 92.8299 38.5L85.5499 31.23L92.7299 24C92.9394 23.7902 93.0821 23.523 93.1398 23.2322C93.1976 22.9414 93.1679 22.64 93.0545 22.3661C92.941 22.0922 92.749 21.858 92.5026 21.6932C92.2561 21.5283 91.9664 21.4402 91.6699 21.44H67.6699C65.9165 18.2861 63.3519 15.6584 60.2416 13.8289C57.1312 11.9994 53.5884 11.0347 49.9799 11.0347C46.3714 11.0347 42.8286 11.9994 39.7183 13.8289C36.6079 15.6584 34.0433 18.2861 32.2899 21.44H8.2899C7.99236 21.4408 7.70169 21.5295 7.45439 21.6949C7.20709 21.8604 7.01419 22.0952 6.8999 22.37C6.79153 22.6475 6.76886 22.9512 6.83482 23.2417C6.90077 23.5323 7.05233 23.7964 7.2699 24L14.5399 31.28L7.2699 38.5C7.06708 38.7156 6.93307 38.9867 6.88499 39.2788C6.8369 39.5709 6.8769 39.8707 6.9999 40.14ZM68.9999 24.39H87.9999L82.2299 30.17C81.949 30.4512 81.7912 30.8325 81.7912 31.23C81.7912 31.6275 81.949 32.0087 82.2299 32.29L87.9999 38.06H68.9999C70.6132 33.6461 70.6132 28.8038 68.9999 24.39ZM34.3699 24C34.6239 23.7561 34.7833 23.4302 34.8199 23.08C36.2971 20.339 38.4887 18.049 41.1622 16.4529C43.8356 14.8568 46.8912 14.014 50.0049 14.014C53.1186 14.014 56.1742 14.8568 58.8476 16.4529C61.5211 18.049 63.7127 20.339 65.1899 23.08C65.2185 23.4303 65.3752 23.7578 65.6299 24C66.6965 26.2699 67.2494 28.747 67.2494 31.255C67.2494 33.7629 66.6965 36.2401 65.6299 38.51C65.3753 38.7563 65.2189 39.0868 65.1899 39.44C63.7127 42.1809 61.5211 44.4709 58.8476 46.067C56.1742 47.6632 53.1186 48.5059 50.0049 48.5059C46.8912 48.5059 43.8356 47.6632 41.1622 46.067C38.4887 44.4709 36.2971 42.1809 34.8199 39.44C34.7831 39.0869 34.6239 38.7579 34.3699 38.51C33.3034 36.2401 32.7504 33.7629 32.7504 31.255C32.7504 28.747 33.3034 26.2699 34.3699 24ZM17.7299 32.29C18.0108 32.0087 18.1686 31.6275 18.1686 31.23C18.1686 30.8325 18.0108 30.4512 17.7299 30.17L11.9999 24.39H30.9999C29.3866 28.8038 29.3866 33.6461 30.9999 38.06H11.9999L17.7299 32.29Z" fill="black"/>
</svg>
