<svg width="90" height="90" viewBox="0 0 90 90" fill="none" xmlns="http://www.w3.org/2000/svg">
<path d="M28.3484 40.7169H16.9673C15.3728 40.7169 14.0753 42.0142 14.0753 43.6089V54.99C14.0753 56.5847 15.3728 57.882 16.9673 57.882H28.3484C29.9429 57.882 31.2404 56.5847 31.2404 54.99V43.6089C31.2405 42.0144 29.9431 40.7169 28.3484 40.7169ZM28.428 54.9902C28.428 55.031 28.3894 55.0696 28.3486 55.0696H16.9673C16.9265 55.0696 16.8878 55.031 16.8878 54.9902V43.609C16.8878 43.5683 16.9265 43.5296 16.9673 43.5296H28.3484C28.3892 43.5296 28.4279 43.5683 28.4279 43.609L28.428 54.9902ZM26.2005 47.1561L24.4668 49.2996L26.2005 51.4431C26.6888 52.0469 26.5955 52.9323 25.9917 53.4208C25.7315 53.6314 25.4187 53.7337 25.1082 53.7337C24.6983 53.7337 24.2919 53.5555 24.014 53.2118L22.658 51.5355L21.302 53.2118C20.8137 53.8156 19.9283 53.9093 19.3243 53.4206C18.7203 52.9321 18.627 52.0467 19.1155 51.4429L20.8492 49.2994L19.1155 47.156C18.6272 46.5522 18.7205 45.6667 19.3243 45.1782C19.9281 44.6897 20.8135 44.7833 21.302 45.3871L22.658 47.0633L24.014 45.3871C24.5025 44.7833 25.3881 44.6899 25.9917 45.1782C26.5955 45.6667 26.6888 46.5523 26.2005 47.1561ZM56.4539 46.3551C56.4539 47.1317 55.8242 47.7613 55.0476 47.7613H38.903C38.1264 47.7613 37.4968 47.1317 37.4968 46.3551C37.4968 45.5785 38.1264 44.9488 38.903 44.9488H55.0476C55.8242 44.9488 56.4539 45.5785 56.4539 46.3551ZM52.4382 52.2439C52.4382 53.0205 51.8085 53.6502 51.0319 53.6502H38.903C38.1264 53.6502 37.4968 53.0205 37.4968 52.2439C37.4968 51.4673 38.1264 50.8377 38.903 50.8377H51.0319C51.8085 50.8377 52.4382 51.4673 52.4382 52.2439ZM14.0753 12.305C14.0753 11.5284 14.705 10.8988 15.4816 10.8988H47.6921C48.4687 10.8988 49.0983 11.5284 49.0983 12.305C49.0983 13.0816 48.4687 13.7113 47.6921 13.7113H15.4816C14.705 13.7113 14.0753 13.0818 14.0753 12.305ZM84.8876 16.5037L83.1967 15.5276C80.1945 13.7943 76.342 14.8266 74.6088 17.8288L72.0534 22.2548V12.3052C72.0534 11.9322 71.9052 11.5747 71.6416 11.3108L60.7426 0.411855C60.4788 0.148184 60.121 0 59.748 0H3.37744C2.60084 0 1.97119 0.629648 1.97119 1.40625V88.5938C1.97119 89.3704 2.60084 90 3.37744 90H70.647C71.4236 90 72.0532 89.3704 72.0532 88.5938V51.3072L87.1887 25.0919C88.9221 22.0899 87.8897 18.2373 84.8876 16.5037ZM61.1543 4.80129L67.252 10.899H61.1543V4.80129ZM69.2407 87.1875H4.78369V2.8125H58.3418V12.3052C58.3418 13.0818 58.9714 13.7115 59.748 13.7115H69.2407V27.1262L49.8143 60.7741C49.6909 60.9878 49.6258 61.2304 49.6258 61.4772V71.7848H38.9032C38.1266 71.7848 37.4969 72.4145 37.4969 73.1911C37.4969 73.9677 38.1266 74.5973 38.9032 74.5973H51.0321C51.2866 74.5973 51.5246 74.5288 51.7305 74.4105C51.7322 74.4096 51.7335 74.41 51.7352 74.4089L61.8797 68.5519C62.0935 68.4285 62.271 68.2509 62.3944 68.0372L69.2409 56.1786L69.2407 87.1875ZM52.4382 70.7555V63.913L58.3639 67.3342L52.4382 70.7555ZM84.7531 23.6858L60.6617 65.4131L52.953 60.9625L77.0442 19.2352C78.002 17.5762 80.1313 17.0054 81.7905 17.9634L83.4813 18.9396C85.1403 19.8974 85.7111 22.0266 84.7531 23.6858ZM28.3484 19.7699H16.9673C15.3728 19.7699 14.0753 21.0672 14.0753 22.6619V34.0432C14.0753 35.6379 15.3728 36.9352 16.9673 36.9352H28.3484C29.9429 36.9352 31.2404 35.6379 31.2404 34.0432V22.6617C31.2405 21.0672 29.9431 19.7699 28.3484 19.7699ZM28.428 34.043C28.428 34.0838 28.3894 34.1225 28.3486 34.1225H16.9673C16.9265 34.1225 16.8878 34.0838 16.8878 34.043V22.6617C16.8878 22.6216 16.9272 22.5823 16.9673 22.5823H28.3484C28.3892 22.5823 28.4279 22.6208 28.4279 22.6617L28.428 34.043ZM26.7788 27.0364L23.2188 31.4374C22.9679 31.7473 22.5975 31.9363 22.1994 31.9574C22.1746 31.9586 22.15 31.9593 22.1254 31.9593C21.7534 31.9593 21.3955 31.8118 21.131 31.5475L18.6361 29.0526C18.087 28.5035 18.087 27.6131 18.6361 27.064C19.1854 26.5148 20.0756 26.5148 20.6249 27.064L22.0148 28.4539L24.5921 25.2679C25.0806 24.6642 25.966 24.5705 26.5698 25.059C27.1738 25.547 27.2672 26.4326 26.7788 27.0364ZM38.903 24.0019H57.5358C58.3124 24.0019 58.9421 24.6315 58.9421 25.4081C58.9421 26.1847 58.3124 26.8144 57.5358 26.8144H38.903C38.1264 26.8144 37.4968 26.1847 37.4968 25.4081C37.4968 24.6315 38.1264 24.0019 38.903 24.0019ZM37.4968 31.2968C37.4968 30.5202 38.1264 29.8905 38.903 29.8905H51.0319C51.8085 29.8905 52.4382 30.5202 52.4382 31.2968C52.4382 32.0734 51.8085 32.703 51.0319 32.703H38.903C38.1264 32.703 37.4968 32.0734 37.4968 31.2968ZM28.3484 61.6641H16.9673C15.3728 61.6641 14.0753 62.9613 14.0753 64.556V75.9371C14.0753 77.5318 15.3728 78.8291 16.9673 78.8291H28.3484C29.9429 78.8291 31.2404 77.5318 31.2404 75.9371V64.556C31.2405 62.9615 29.9431 61.6641 28.3484 61.6641ZM28.428 75.9373C28.428 75.9781 28.3894 76.0168 28.3486 76.0168H16.9673C16.9265 76.0168 16.8878 75.9781 16.8878 75.9373V64.5562C16.8878 64.5154 16.9265 64.4767 16.9673 64.4767H28.3484C28.3892 64.4767 28.4279 64.5154 28.4279 64.5562L28.428 75.9373ZM26.7788 68.9305L23.2188 73.3315C22.9679 73.6414 22.5975 73.8304 22.1994 73.8515C22.1746 73.8527 22.15 73.8534 22.1254 73.8534C21.7534 73.8534 21.3955 73.706 21.131 73.4416L18.6361 70.9467C18.087 70.3976 18.087 69.5072 18.6361 68.9581C19.1854 68.409 20.0756 68.409 20.6249 68.9581L22.0148 70.348L24.5921 67.162C25.0806 66.5583 25.966 66.4647 26.5698 66.9531C27.1738 67.4413 27.2672 68.3267 26.7788 68.9305ZM48.9909 67.3022C48.9909 68.0788 48.3613 68.7085 47.5847 68.7085H38.903C38.1264 68.7085 37.4968 68.0788 37.4968 67.3022C37.4968 66.5256 38.1264 65.896 38.903 65.896H47.5847C48.3613 65.896 48.9909 66.5256 48.9909 67.3022Z" fill="black"/>
</svg>
