<svg width="90" height="91" viewBox="0 0 90 91" fill="none" xmlns="http://www.w3.org/2000/svg">
<g clip-path="url(#clip0_336_373)">
<path d="M2.12231 83.7442H87.8779C88.1694 83.7442 88.4577 83.6835 88.725 83.5658C88.9922 83.4481 89.2326 83.276 89.4312 83.0602C89.6298 82.8445 89.7822 82.5896 89.8791 82.3116C89.9759 82.0337 90.0151 81.7385 89.9941 81.4445C89.7341 77.8656 88.3539 74.4633 86.0535 71.7306C83.753 68.9978 80.6518 67.0767 77.1992 66.2454C78.1736 65.702 79.0249 64.9587 79.6986 64.0632C80.3722 63.1677 80.8534 62.1397 81.1112 61.0452C81.369 59.9507 81.3978 58.8137 81.1957 57.7073C80.9935 56.6009 80.565 55.5494 79.9375 54.6202C79.31 53.6911 78.4973 52.9047 77.5517 52.3117C76.6061 51.7186 75.5483 51.3319 74.4463 51.1763C73.3442 51.0207 72.2221 51.0996 71.152 51.4081C70.0819 51.7166 69.0873 52.2477 68.2321 52.9676L67.126 51.2791C67.857 49.8834 68.4567 48.4213 68.9173 46.9122L76 45.4556C76.2382 45.4065 76.4523 45.2756 76.6061 45.0851C76.7599 44.8947 76.8438 44.6564 76.8438 44.4105V34.4983C76.8438 34.2525 76.7598 34.0142 76.606 33.8238C76.4523 33.6334 76.2382 33.5026 76 33.4534L68.9174 31.997C68.4572 30.4875 67.8576 29.0251 67.1264 27.6292L71.1166 21.5338C71.2509 21.3288 71.3109 21.0831 71.2866 20.8384C71.2622 20.5938 71.155 20.3651 70.983 20.1912L64.0516 13.1821C63.8796 13.0081 63.6535 12.8997 63.4115 12.875C63.1694 12.8504 62.9264 12.9111 62.7236 13.0468L56.6943 17.0825C55.3139 16.3433 53.8678 15.7369 52.3752 15.2713L50.9347 8.10972C50.886 7.86887 50.7566 7.65241 50.5683 7.49695C50.38 7.34149 50.1443 7.25658 49.9012 7.25659H40.0986C39.8555 7.25654 39.6198 7.34143 39.4314 7.49689C39.2431 7.65236 39.1137 7.86884 39.065 8.10972L37.6247 15.2712C36.132 15.7368 34.6859 16.3431 33.3054 17.0823L27.2761 13.0477C27.0732 12.912 26.8302 12.8513 26.5882 12.8759C26.3462 12.9006 26.12 13.009 25.9481 13.183L19.017 20.1907C18.845 20.3646 18.7378 20.5932 18.7135 20.8379C18.6891 21.0826 18.7492 21.3282 18.8834 21.5333L22.8736 27.6285C22.1424 29.0246 21.5425 30.4871 21.0821 31.9967L14 33.4529C13.7618 33.502 13.5477 33.6329 13.394 33.8233C13.2402 34.0137 13.1563 34.252 13.1563 34.4978V44.4097C13.1562 44.6555 13.2402 44.8938 13.3939 45.0842C13.5477 45.2747 13.7618 45.4056 14 45.4547L21.0826 46.9113C21.5429 48.4207 22.1426 49.8831 22.8736 51.2791L21.7682 52.9676C20.913 52.2477 19.9185 51.7164 18.8484 51.4079C17.7783 51.0993 16.6563 51.0202 15.5542 51.1758C14.4521 51.3313 13.3944 51.718 12.4487 52.311C11.5031 52.904 10.6904 53.6903 10.0629 54.6194C9.43535 55.5485 9.00676 56.6 8.8046 57.7064C8.60244 58.8127 8.63117 59.9496 8.88895 61.0442C9.14674 62.1387 9.62788 63.1666 10.3015 64.0621C10.9752 64.9576 11.8265 65.7009 12.8008 66.2443C9.34812 67.0757 6.24687 68.9971 3.94644 71.73C1.64602 74.4629 0.265909 77.8654 0.00608137 81.4445C-0.0179911 81.7387 0.0196753 82.0346 0.116613 82.313C0.21355 82.5914 0.36757 82.8459 0.568581 83.0599C0.765241 83.2783 1.00533 83.4521 1.2731 83.57C1.54086 83.688 1.83026 83.7473 2.12231 83.7442ZM26.1716 81.5115C26.1404 81.4816 26.1166 81.4446 26.1023 81.4036C26.0879 81.3625 26.0835 81.3186 26.0892 81.2755C26.2774 78.6338 27.0114 76.0614 28.2438 73.7243C29.9782 75.9967 31.0129 78.735 31.2189 81.5979H31.2229L31.2106 81.6114H26.3968C26.3542 81.6139 26.3115 81.6061 26.2724 81.5887C26.2333 81.5714 26.1988 81.5449 26.1716 81.5115ZM23.5384 63.2888L25.9488 65.7262C26.1207 65.9002 26.3469 66.0086 26.5889 66.0333C26.8309 66.0579 27.0739 65.9972 27.2768 65.8615L33.3061 61.8258C34.3072 62.3614 35.3432 62.8274 36.4069 63.2207C33.021 64.7557 30.0936 67.1635 27.918 70.2028C25.8284 68.2691 23.2849 66.907 20.5287 66.2457C21.773 65.5466 22.8115 64.5262 23.5384 63.2888ZM35.9692 48.4629C34.2122 46.6622 33.0211 44.3764 32.5456 41.893C32.07 39.4096 32.3312 36.8395 33.2964 34.5058C34.2616 32.1722 35.8877 30.1792 37.9702 28.7774C40.0526 27.3757 42.4985 26.6278 45.0002 26.6278C47.5019 26.6278 49.9478 27.3757 52.0302 28.7774C54.1127 30.1792 55.7387 32.1722 56.7039 34.5058C57.6691 36.8395 57.9304 39.4096 57.4548 41.893C56.9793 44.3764 55.7881 46.6622 54.0312 48.4629C53.0488 46.2924 51.3376 44.5441 49.2013 43.5283V41.3787H52.706C52.9006 41.3788 53.0913 41.3244 53.2572 41.2216C53.4231 41.1188 53.5576 40.9716 53.6459 40.7963C53.7342 40.621 53.7728 40.4244 53.7575 40.2283C53.7422 40.0322 53.6735 39.8442 53.5591 39.6851L45.8539 28.972C45.756 28.8359 45.6277 28.7252 45.4795 28.6488C45.3312 28.5725 45.1672 28.5327 45.0008 28.5327C44.8344 28.5327 44.6704 28.5725 44.5221 28.6488C44.3739 28.7252 44.2456 28.8359 44.1477 28.972L36.4425 39.6851C36.3281 39.8442 36.2594 40.0322 36.2441 40.2283C36.2288 40.4244 36.2674 40.621 36.3557 40.7963C36.444 40.9716 36.5785 41.1188 36.7444 41.2216C36.9103 41.3244 37.1011 41.3788 37.2956 41.3787H40.8005V43.5283C38.6637 44.5439 36.952 46.2922 35.9692 48.4629ZM41.8545 39.2459H39.366L45.0001 31.4123L50.6342 39.2459H48.1466C47.8669 39.2459 47.5986 39.3583 47.4008 39.5583C47.203 39.7583 47.0919 40.0295 47.0919 40.3123V42.8084C45.7138 42.507 44.288 42.507 42.9099 42.8084V40.3123C42.9099 40.1722 42.8826 40.0335 42.8295 39.9041C42.7765 39.7747 42.6987 39.6571 42.6007 39.558C42.5027 39.459 42.3864 39.3805 42.2583 39.3269C42.1303 39.2734 41.9931 39.2458 41.8545 39.2459ZM45.0001 44.7152C46.546 44.7151 48.0571 45.1786 49.3425 46.047C50.6278 46.9153 51.6296 48.1495 52.2212 49.5936C52.8128 51.0376 52.9676 52.6266 52.6661 54.1596C52.3645 55.6926 51.6201 57.1008 50.527 58.206C49.434 59.3112 48.0413 60.0639 46.5252 60.3689C45.009 60.6738 43.4375 60.5173 42.0093 59.9192C40.5811 59.3211 39.3604 58.3081 38.5016 57.0085C37.6427 55.7089 37.1843 54.181 37.1843 52.618C37.1867 50.5228 38.0109 48.514 39.4761 47.0325C40.9413 45.551 42.9279 44.7176 45.0001 44.7152ZM60.581 71.7791C58.2973 74.5 56.9299 77.8855 56.6769 81.4449C56.6729 81.501 56.673 81.5561 56.673 81.6114H33.3272C33.3272 81.5561 33.3272 81.501 33.3233 81.4449C33.0703 77.8856 31.7029 74.5003 29.4192 71.7797C31.1595 69.2279 33.4867 67.1418 36.2008 65.7007C38.9149 64.2596 41.9346 63.5067 45.0001 63.5067C48.0657 63.5067 51.0853 64.2596 53.7994 65.7007C56.5135 67.1418 58.8407 69.2279 60.581 71.7797V71.7791ZM69.472 66.2452C66.7158 66.9066 64.1723 68.2687 62.0825 70.2025C59.9073 67.1631 56.9802 64.7552 53.5946 63.2202C54.6584 62.827 55.6944 62.361 56.6955 61.8253L62.7236 65.8599C62.9264 65.9956 63.1694 66.0563 63.4115 66.0317C63.6535 66.007 63.8796 65.8986 64.0516 65.7246L66.463 63.2888C67.1898 64.5259 68.2281 65.5461 69.472 66.2452ZM63.9112 81.2755C63.9142 81.3176 63.9087 81.36 63.8951 81.3999C63.8815 81.4399 63.86 81.4767 63.8319 81.508C63.8039 81.5393 63.7698 81.5646 63.7318 81.5822C63.6939 81.5999 63.6527 81.6096 63.6109 81.6107H58.7896L58.7807 81.5984C58.9867 78.7353 60.0216 75.9967 61.7565 73.7243C62.989 76.0616 63.7231 78.6344 63.9112 81.2764V81.2755ZM87.8907 81.5979L87.8967 81.5956L87.8821 81.6114H87.8783H66.0035C66.0231 81.4491 66.027 81.2853 66.0153 81.1223C65.7885 77.9208 64.8454 74.8133 63.2573 72.0342C65.9666 69.4004 69.5777 67.9272 73.336 67.9225C80.9493 67.9225 87.3425 73.9296 87.8907 81.5979ZM73.336 53.2315C74.499 53.2315 75.6359 53.5802 76.6029 54.2335C77.5699 54.8868 78.3236 55.8154 78.7687 56.9018C79.2137 57.9882 79.3302 59.1837 79.1033 60.337C78.8764 61.4903 78.3164 62.5497 77.494 63.3812C76.6716 64.2127 75.6239 64.779 74.4832 65.0084C73.3426 65.2378 72.1602 65.1201 71.0858 64.6701C70.0113 64.2201 69.0929 63.458 68.4468 62.4802C67.8007 61.5025 67.4558 60.353 67.4558 59.1771C67.4576 57.6008 68.0777 56.0895 69.18 54.9749C70.2824 53.8603 71.7771 53.2333 73.336 53.2315ZM22.1252 44.9491L15.2653 43.5386V35.3692L22.1253 33.9585C22.3155 33.9194 22.4914 33.8279 22.6335 33.6943C22.7756 33.5606 22.8785 33.3898 22.9308 33.2008C23.4234 31.4219 24.1257 29.7093 25.0226 28.0999C25.1179 27.9289 25.1646 27.7346 25.1577 27.5384C25.1508 27.3423 25.0905 27.1518 24.9834 26.9881L21.1174 21.0831L26.8303 15.3067L32.6701 19.2156C32.832 19.3241 33.0205 19.3852 33.2146 19.3922C33.4087 19.3993 33.6009 19.352 33.7701 19.2556C35.3619 18.3487 37.0557 17.6386 38.8151 17.1406C39.0019 17.0877 39.1707 16.9838 39.303 16.8402C39.4352 16.6966 39.5256 16.519 39.5644 16.3267L40.9599 9.38905H49.0394L50.4347 16.326C50.4734 16.5184 50.5639 16.6962 50.6961 16.84C50.8284 16.9837 50.9973 17.0877 51.1843 17.1406C52.9436 17.6387 54.6374 18.3488 56.2292 19.2556C56.3983 19.3519 56.5904 19.3992 56.7844 19.3922C56.9783 19.3852 57.1666 19.3242 57.3285 19.216L63.1692 15.3058L68.8821 21.0822L65.0167 26.9872C64.9094 27.151 64.849 27.3416 64.842 27.5379C64.8351 27.7342 64.8819 27.9286 64.9773 28.0997C65.8743 29.7091 66.5766 31.4217 67.0691 33.2007C67.1214 33.3896 67.2242 33.5604 67.3663 33.694C67.5084 33.8277 67.6842 33.9192 67.8743 33.9583L74.7351 35.3692V43.5384L67.8747 44.9491C67.6844 44.9881 67.5084 45.0796 67.3662 45.2133C67.224 45.347 67.121 45.5178 67.0687 45.7069C66.5761 47.4859 65.8738 49.1985 64.9769 50.8079C64.8816 50.979 64.8349 51.1734 64.8419 51.3696C64.8489 51.5658 64.9093 51.7563 65.0165 51.92L66.7646 54.5899C66.1166 55.536 65.6765 56.6114 65.4737 57.7438C65.271 58.8762 65.3104 60.0394 65.5894 61.1551L63.1696 63.6016L57.3305 59.6929C57.1685 59.5844 56.9801 59.5233 56.7859 59.5162C56.5918 59.5091 56.3995 59.5564 56.2302 59.6529C54.6385 60.5597 52.9447 61.2698 51.1853 61.7679C50.9664 61.8305 50.7734 61.963 50.6353 62.1458C50.1171 62.0007 49.593 61.8757 49.0631 61.7707C51.1057 60.8461 52.7788 59.2499 53.8103 57.2417C54.8417 55.2336 55.1709 52.9316 54.7442 50.7103C57.0094 48.706 58.6162 46.0508 59.3499 43.099C60.0837 40.1473 59.9095 37.0395 58.8507 34.1904C57.7919 31.3413 55.8989 28.8866 53.4242 27.1538C50.9495 25.4211 48.011 24.4927 45.0009 24.4927C41.9908 24.4927 39.0523 25.4211 36.5776 27.1538C34.1029 28.8866 32.2099 31.3413 31.1511 34.1904C30.0923 37.0395 29.9181 40.1473 30.6519 43.099C31.3856 46.0508 32.9924 48.706 35.2576 50.7103C34.8309 52.9316 35.1601 55.2336 36.1915 57.2417C37.223 59.2499 38.8961 60.8461 40.9387 61.7707C40.409 61.8753 39.885 62.0002 39.3667 62.1456C39.2285 61.9627 39.0354 61.83 38.8163 61.7675C37.057 61.2693 35.3632 60.5592 33.7714 59.6525C33.6022 59.5561 33.41 59.5088 33.2159 59.5159C33.0218 59.5229 32.8334 59.584 32.6715 59.6923L26.8312 63.6025L24.4115 61.1558C24.6903 60.0401 24.7297 58.877 24.527 57.7446C24.3243 56.6123 23.8842 55.5369 23.2363 54.5908L24.9841 51.9209C25.0912 51.7572 25.1515 51.5668 25.1584 51.3706C25.1653 51.1744 25.1186 50.9802 25.0233 50.8092C24.1264 49.1997 23.4241 47.4871 22.9315 45.7082C22.8793 45.5188 22.7764 45.3477 22.6341 45.2137C22.4918 45.0798 22.3157 44.9882 22.1252 44.9491ZM10.7846 59.1774C10.7846 58.0015 11.1295 56.8519 11.7757 55.8742C12.4218 54.8964 13.3403 54.1343 14.4148 53.6844C15.4893 53.2344 16.6716 53.1167 17.8123 53.3461C18.953 53.5756 20.0007 54.1419 20.8231 54.9735C21.6454 55.8051 22.2054 56.8646 22.4322 58.0179C22.659 59.1713 22.5425 60.3668 22.0973 61.4532C21.6521 62.5396 20.8983 63.4681 19.9312 64.1213C18.9641 64.7746 17.8272 65.1231 16.6642 65.123C15.1053 65.121 13.6108 64.494 12.5086 63.3793C11.4064 62.2647 10.7864 60.7536 10.7846 59.1774ZM2.10948 81.5979C2.65739 73.9292 9.05073 67.9221 16.6642 67.9221C20.4224 67.9267 24.0335 69.3997 26.7428 72.0333C25.1547 74.8124 24.2116 77.92 23.9848 81.1214C23.9731 81.2846 23.9771 81.4485 23.9965 81.6109H2.11686L2.10948 81.6018V81.5979Z" fill="black"/>
</g>
<defs>
<clipPath id="clip0_336_373">
<rect width="90" height="91" fill="white"/>
</clipPath>
</defs>
</svg>
