<svg width="90" height="90" viewBox="0 0 90 90" fill="none" xmlns="http://www.w3.org/2000/svg">
<path fill-rule="evenodd" clip-rule="evenodd" d="M13.82 39.4894H13.6713C12.3465 39.4894 11.0759 38.9632 10.1392 38.0263C9.2025 37.0896 8.67627 35.8192 8.67627 34.4945V34.4941C8.67627 33.1693 9.2025 31.8989 10.1392 30.9622C11.0759 30.0253 12.3465 29.4991 13.6713 29.4991H13.82C16.2312 13.607 29.9662 1.41187 46.5271 1.41187C64.7856 1.41187 79.6095 16.2356 79.6095 34.4943C79.6095 37.5435 79.196 40.4969 78.4222 43.3016C79.6402 43.9445 80.5714 45.0267 81.0239 46.3323C81.4965 47.696 81.4079 49.1916 80.7779 50.4899L79.3478 53.4366C78.7178 54.7351 77.5977 55.73 76.234 56.2026C74.8704 56.675 73.3748 56.5866 72.0763 55.9565L71.8065 55.8255C67.3746 61.0711 61.3411 64.9208 54.4633 66.6169V67.9307H62.5019C62.9872 67.9307 63.4273 68.2146 63.6274 68.6565C63.8274 69.0986 63.7503 69.6167 63.4302 69.9811L47.4552 88.1683C47.2206 88.4353 46.8823 88.5883 46.5271 88.5883C46.1717 88.5883 45.8334 88.4353 45.5989 88.1683L29.6239 69.9811C29.3037 69.6167 29.2266 69.0986 29.4267 68.6565C29.6267 68.2146 30.067 67.9307 30.5521 67.9307H38.5879V66.6162C25.7364 63.4459 15.8327 52.7558 13.82 39.4894ZM13.5394 31.9732C12.9179 32.0057 12.3285 32.2669 11.8863 32.7091C11.4128 33.1826 11.1469 33.8246 11.1469 34.4941V34.4978C11.1477 35.1661 11.4137 35.8069 11.8863 36.2794C12.3285 36.7217 12.9179 36.9829 13.5394 37.0153C13.4766 36.1831 13.4447 35.3424 13.4447 34.4943C13.4447 33.6462 13.4766 32.8053 13.5394 31.9732ZM77.6507 45.7266C76.5986 48.638 75.1492 51.3601 73.3683 53.8272C74.0247 54.0844 74.7541 54.1007 75.425 53.8681C76.1696 53.6101 76.7812 53.0669 77.1252 52.358L78.5553 49.4113C78.8992 48.7025 78.9476 47.8859 78.6896 47.1414C78.4923 46.5719 78.1282 46.0803 77.6507 45.7266ZM70.5218 53.4957C74.6639 48.2738 77.1389 41.6708 77.1389 34.4943C77.1389 17.5992 63.4222 3.88245 46.5271 3.88245C29.632 3.88245 15.9153 17.5992 15.9153 34.4943C15.9153 51.3894 29.632 65.1061 46.5271 65.1061C56.2236 65.1061 64.8733 60.5879 70.4837 53.5437C70.4962 53.5275 70.5089 53.5115 70.5218 53.4957ZM51.9927 67.1263C50.2146 67.4226 48.3887 67.5767 46.5271 67.5767C44.6644 67.5767 42.8374 67.4224 41.0584 67.126V69.166C41.0584 69.8482 40.5054 70.4013 39.8232 70.4013H33.2812L46.5271 85.4812L59.7728 70.4013H53.228C52.5458 70.4013 51.9927 69.8482 51.9927 69.166V67.1263ZM46.5271 9.27398C60.4466 9.27398 71.7474 20.5748 71.7474 34.4943C71.7474 48.4137 60.4466 59.7146 46.5271 59.7146C32.6074 59.7146 21.3066 48.4137 21.3066 34.4943C21.3066 20.5748 32.6074 9.27398 46.5271 9.27398ZM46.5271 11.7446C33.971 11.7446 23.7772 21.9384 23.7772 34.4943C23.7772 47.0502 33.971 57.244 46.5271 57.244C59.083 57.244 69.2768 47.0502 69.2768 34.4943C69.2768 21.9384 59.083 11.7446 46.5271 11.7446ZM47.6897 37.4039C47.33 37.5479 46.9377 37.6272 46.5271 37.6272C44.798 37.6272 43.3942 36.2233 43.3942 34.4943C43.3942 33.2037 44.1762 32.0944 45.2918 31.6148V23.6867C45.2918 23.0048 45.8452 22.4514 46.5271 22.4514C47.2088 22.4514 47.7624 23.0048 47.7624 23.6867V31.6148C48.8779 32.0944 49.6598 33.2037 49.6598 34.4943C49.6598 34.9049 49.5806 35.2974 49.4366 35.6569L56.4227 42.643C56.9048 43.1251 56.9048 43.9077 56.4227 44.3899C55.9406 44.872 55.1577 44.872 54.6756 44.3899L47.6897 37.4039ZM46.5271 33.832C46.1616 33.832 45.8648 34.1288 45.8648 34.4943C45.8648 34.8597 46.1616 35.1566 46.5271 35.1566C46.8926 35.1566 47.1892 34.8597 47.1892 34.4943C47.1892 34.1288 46.8926 33.832 46.5271 33.832ZM28.496 25.5105C27.9056 25.1696 27.703 24.4136 28.0439 23.8231C28.3849 23.2326 29.1409 23.03 29.7313 23.371L31.8571 24.5982C32.4476 24.9391 32.6502 25.6953 32.3092 26.2856C31.9684 26.876 31.2123 27.0786 30.6218 26.7379L28.496 25.5105ZM35.4036 17.6987C35.0627 17.1082 35.2654 16.352 35.8557 16.0111C36.4462 15.6703 37.2024 15.8729 37.5433 16.4634L38.7705 18.5892C39.1114 19.1795 38.9089 19.9356 38.3184 20.2766C37.7279 20.6173 36.9719 20.4147 36.631 19.8245L35.4036 17.6987ZM47.7624 56.005C47.7624 56.6867 47.2088 57.2403 46.5271 57.2403C45.8452 57.2403 45.2918 56.6867 45.2918 56.005V50.7432C45.2918 50.0615 45.8452 49.5079 46.5271 49.5079C47.2088 49.5079 47.7624 50.0615 47.7624 50.7432V56.005ZM29.7313 45.6176C29.1409 45.9585 28.3849 45.7559 28.0439 45.1655C27.703 44.575 27.9056 43.819 28.496 43.478L30.6218 42.2507C31.2123 41.9099 31.9684 42.1125 32.3092 42.7028C32.6502 43.2933 32.4476 44.0494 31.8571 44.3904L29.7313 45.6176ZM25.0164 35.7296C24.3345 35.7296 23.7811 35.176 23.7811 34.4943C23.7811 33.8126 24.3345 33.259 25.0164 33.259H30.278C30.9597 33.259 31.5133 33.8126 31.5133 34.4943C31.5133 35.176 30.9597 35.7296 30.278 35.7296H25.0164ZM37.5433 52.5252C37.2024 53.1156 36.4462 53.3182 35.8557 52.9773C35.2654 52.6365 35.0627 51.8803 35.4036 51.2899L36.631 49.1641C36.9719 48.5738 37.7279 48.371 38.3184 48.712C38.9089 49.0529 39.1114 49.8091 38.7705 50.3994L37.5433 52.5252ZM63.3227 23.371C63.9132 23.03 64.6692 23.2326 65.0101 23.8231C65.351 24.4136 65.1484 25.1696 64.558 25.5105L62.4322 26.7379C61.8417 27.0786 61.0856 26.876 60.7448 26.2856C60.4039 25.6953 60.6064 24.9391 61.1969 24.5982L63.3227 23.371ZM45.2918 12.9836C45.2918 12.3019 45.8452 11.7483 46.5271 11.7483C47.2088 11.7483 47.7624 12.3019 47.7624 12.9836V18.2452C47.7624 18.9271 47.2088 19.4805 46.5271 19.4805C45.8452 19.4805 45.2918 18.9271 45.2918 18.2452V12.9836ZM55.5109 16.4634C55.8516 15.8729 56.6078 15.6703 57.1983 16.0111C57.7887 16.352 57.9913 17.1082 57.6504 17.6987L56.423 19.8245C56.0823 20.4147 55.3261 20.6173 54.7356 20.2766C54.1452 19.9356 53.9426 19.1795 54.2835 18.5892L55.5109 16.4634ZM57.6504 51.2899C57.9913 51.8803 57.7887 52.6365 57.1983 52.9773C56.6078 53.3182 55.8516 53.1156 55.5109 52.5252L54.2835 50.3994C53.9426 49.8091 54.1452 49.0529 54.7356 48.712C55.3261 48.371 56.0823 48.5738 56.423 49.1641L57.6504 51.2899ZM68.0378 33.259C68.7195 33.259 69.2731 33.8126 69.2731 34.4943C69.2731 35.176 68.7195 35.7296 68.0378 35.7296H62.776C62.0943 35.7296 61.5407 35.176 61.5407 34.4943C61.5407 33.8126 62.0943 33.259 62.776 33.259H68.0378ZM64.558 43.478C65.1484 43.819 65.351 44.575 65.0101 45.1655C64.6692 45.7559 63.9132 45.9585 63.3227 45.6176L61.1969 44.3904C60.6064 44.0494 60.4039 43.2933 60.7448 42.7028C61.0856 42.1125 61.8417 41.9099 62.4322 42.2507L64.558 43.478Z" fill="black"/>
</svg>
