<svg width="88" height="88" viewBox="0 0 88 88" fill="none" xmlns="http://www.w3.org/2000/svg">
<path d="M30.25 85.25H33V74.25C33 71.9757 34.8507 70.125 37.125 70.125H50.875C53.1493 70.125 55 71.9757 55 74.25V85.25H57.75V74.25C57.75 70.4591 54.6659 67.375 50.875 67.375H50.1325C51.4442 65.9134 52.25 63.9897 52.25 61.875C52.25 57.3251 48.5499 53.625 44 53.625C39.4501 53.625 35.75 57.3251 35.75 61.875C35.75 63.9897 36.5558 65.9134 37.8675 67.375H37.125C33.3341 67.375 30.25 70.4591 30.25 74.25V85.25ZM38.5 61.875C38.5 58.8417 40.9668 56.375 44 56.375C47.0333 56.375 49.5 58.8417 49.5 61.875C49.5 64.9082 47.0333 67.375 44 67.375C40.9668 67.375 38.5 64.9082 38.5 61.875Z" fill="black"/>
<path d="M35.75 74.25H38.5V85.25H35.75V74.25Z" fill="black"/>
<path d="M49.5 74.25H52.25V85.25H49.5V74.25Z" fill="black"/>
<path d="M57.6786 36.5173C57.515 36.0291 57.0915 35.6716 56.5827 35.5946L48.7576 34.3997L45.2445 26.917C45.0176 26.433 44.5336 26.125 44.0001 26.125C43.4666 26.125 42.9826 26.433 42.7557 26.9156L39.2426 34.3984L31.4175 35.5932C30.9087 35.6716 30.4852 36.0277 30.3216 36.5159C30.158 37.004 30.2817 37.5444 30.6406 37.9129L36.3427 43.7566L34.9939 52.0273C34.9086 52.547 35.13 53.0695 35.559 53.3734C35.9894 53.6773 36.5572 53.7061 37.0165 53.4531L44.0001 49.5935L50.9837 53.4531C51.19 53.5672 51.4196 53.625 51.6479 53.625C51.9256 53.625 52.2034 53.5398 52.4399 53.3734C52.8689 53.0695 53.0902 52.547 53.005 52.0273L51.6561 43.7566L57.3582 37.9129C57.7199 37.5457 57.8422 37.0068 57.6786 36.5173ZM49.2031 42.3349C48.8979 42.647 48.7604 43.0856 48.8305 43.516L49.8356 49.676L44.6642 46.8187C44.458 46.7046 44.2297 46.6469 44.0001 46.6469C43.7705 46.6469 43.5422 46.7046 43.336 46.8187L38.1646 49.676L39.1697 43.516C39.2399 43.0856 39.101 42.647 38.7971 42.3349L34.4782 37.9087L40.3839 37.0067C40.8362 36.9366 41.2254 36.6465 41.4206 36.2313L44.0001 30.7368L46.5796 36.2326C46.7749 36.6479 47.164 36.938 47.6164 37.0081L53.522 37.9101L49.2031 42.3349Z" fill="black"/>
<path d="M44 2.75C35.156 2.75 26.7974 5.50962 19.7257 10.692C18.8182 10.0293 17.7086 9.625 16.5 9.625C13.4668 9.625 11 12.0918 11 15.125C11 16.2305 11.3341 17.2549 11.8965 18.1184C5.995 25.432 2.75 34.5744 2.75 44C2.75 52.8426 5.50962 61.2012 10.692 68.2742C10.0293 69.1831 9.625 70.2914 9.625 71.5C9.625 74.5332 12.0918 77 15.125 77C16.2346 77 17.2659 76.6631 18.1307 76.0952C20.8409 78.2815 23.7875 80.1322 26.9294 81.565L28.0706 79.0625C25.1818 77.7466 22.4703 76.0485 19.9705 74.0465C20.3748 73.282 20.625 72.424 20.625 71.5C20.625 68.4668 18.1582 66 15.125 66C14.2986 66 13.5217 66.1966 12.8191 66.5239C8.04513 59.9514 5.5 52.2005 5.5 44C5.5 35.2536 8.51675 26.7836 13.9645 19.9774C14.7276 20.3775 15.5815 20.625 16.5 20.625C19.5333 20.625 22 18.1582 22 15.125C22 14.2986 21.8034 13.5231 21.4761 12.8191C28.0473 8.04513 35.7981 5.5 44 5.5C65.2286 5.5 82.5 22.7714 82.5 44C82.5 49.918 81.1882 55.5514 78.6321 60.775C78.1124 60.6128 77.572 60.5 77 60.5C73.9668 60.5 71.5 62.9668 71.5 66C71.5 67.3406 72.0019 68.5547 72.8021 69.5104C69.2491 73.5295 64.8299 76.8254 59.9294 79.0625L61.0706 81.5636C66.4029 79.1285 71.2044 75.5246 75.0434 71.1233C75.6525 71.357 76.3084 71.5 77 71.5C80.0332 71.5 82.5 69.0332 82.5 66C82.5 64.5356 81.9156 63.2115 80.9792 62.2243C83.765 56.6115 85.25 50.3401 85.25 44C85.25 21.2547 66.7453 2.75 44 2.75ZM17.875 71.5C17.875 73.0166 16.6416 74.25 15.125 74.25C13.6084 74.25 12.375 73.0166 12.375 71.5C12.375 69.9834 13.6084 68.75 15.125 68.75C16.6416 68.75 17.875 69.9834 17.875 71.5ZM16.5 17.875C14.9834 17.875 13.75 16.6416 13.75 15.125C13.75 13.6084 14.9834 12.375 16.5 12.375C18.0166 12.375 19.25 13.6084 19.25 15.125C19.25 16.6416 18.0166 17.875 16.5 17.875ZM77 68.75C75.4834 68.75 74.25 67.5166 74.25 66C74.25 64.4834 75.4834 63.25 77 63.25C78.5166 63.25 79.75 64.4834 79.75 66C79.75 67.5166 78.5166 68.75 77 68.75Z" fill="black"/>
<path d="M61.875 17.875C60.599 17.875 59.4385 18.3301 58.5035 19.0616C54.1214 16.4945 49.1356 15.125 44 15.125C28.0789 15.125 15.125 28.0775 15.125 44C15.125 53.7323 19.9815 62.7495 28.1174 68.123L29.6326 65.8281C22.2695 60.9661 17.875 52.8055 17.875 44C17.875 29.5941 29.5941 17.875 44 17.875C48.5238 17.875 52.9183 19.0465 56.804 21.2506C56.529 21.9051 56.375 22.6215 56.375 23.375C56.375 26.4082 58.8418 28.875 61.875 28.875C62.9021 28.875 63.8536 28.5739 64.6772 28.0816C68.1862 32.6233 70.125 38.2168 70.125 44C70.125 53.0956 65.505 61.3979 57.7665 66.2076L59.2199 68.5424C67.7696 63.228 72.875 54.054 72.875 44C72.875 37.4811 70.6475 31.1781 66.6215 26.1044C67.0876 25.2973 67.375 24.3733 67.375 23.375C67.375 20.3417 64.9082 17.875 61.875 17.875ZM61.875 26.125C60.3584 26.125 59.125 24.8916 59.125 23.375C59.125 21.8584 60.3584 20.625 61.875 20.625C63.3916 20.625 64.625 21.8584 64.625 23.375C64.625 24.8916 63.3916 26.125 61.875 26.125Z" fill="black"/>
</svg>
