<svg width="120" height="120" viewBox="0 0 120 120" fill="none" xmlns="http://www.w3.org/2000/svg">
<g clip-path="url(#clip0_225_1768)">
<path d="M119.782 108.73L112.876 94.9154C117.541 88.2679 119.999 80.5156 119.999 72.4136C119.999 50.7373 102.366 33.1037 80.6895 33.1037H75.8213C70.0386 18.5818 55.8684 8.27637 39.3106 8.27637C17.6343 8.27637 0.000699412 25.91 0.000699412 47.5863C0.000699412 55.6883 2.4586 63.4406 7.12407 70.0881L0.217938 83.9025C-0.179299 84.699 -0.024128 85.6611 0.6069 86.29C1.00414 86.6872 1.53379 86.8962 2.06964 86.8962C2.38412 86.8962 2.70067 86.8259 2.99446 86.679L16.8088 79.7728C23.4563 84.4383 31.2086 86.8962 39.3106 86.8962C40.9223 86.8962 42.5051 86.7679 44.0671 86.5797C49.8933 101.673 64.4048 111.724 80.6895 111.724C88.7915 111.724 96.5438 109.266 103.191 104.6L117.006 111.506C117.299 111.653 117.616 111.724 117.93 111.724C118.466 111.724 118.996 111.515 119.393 111.117C120.024 110.486 120.179 109.524 119.782 108.73ZM39.3106 82.7583C31.6804 82.7583 24.3997 80.319 18.2488 75.7053C17.8826 75.4301 17.446 75.2915 17.0053 75.2915C16.6909 75.2915 16.3722 75.3639 16.0805 75.5088L6.69373 80.2032L11.3882 70.8164C11.7378 70.115 11.6633 69.2771 11.1916 68.6481C6.57787 62.4972 4.13859 55.2166 4.13859 47.5863C4.13859 28.192 19.9163 12.4143 39.3106 12.4143C58.7049 12.4143 74.4826 28.192 74.4826 47.5863C74.4826 66.9806 58.7049 82.7583 39.3106 82.7583ZM103.92 100.336C103.216 99.9885 102.378 100.061 101.751 100.533C95.6003 105.146 88.3177 107.586 80.6895 107.586C66.3869 107.586 53.6112 98.9271 48.2133 85.8411C65.609 81.7901 78.6205 66.1964 78.6205 47.5863C78.6205 44.0008 78.0971 40.5436 77.193 37.2416H80.6895C100.084 37.2416 115.862 53.0193 115.862 72.4136C115.862 80.0439 113.422 87.3245 108.808 93.4754C108.337 94.1044 108.262 94.9423 108.612 95.6437L113.306 105.03L103.92 100.336Z" fill="url(#paint0_linear_225_1768)"/>
<path d="M22.7596 41.3799C19.3375 41.3799 16.5527 44.1647 16.5527 47.5867C16.5527 51.0087 19.3375 53.7935 22.7596 53.7935C26.1816 53.7935 28.9664 51.0087 28.9664 47.5867C28.9664 44.1647 26.1816 41.3799 22.7596 41.3799ZM22.7596 49.6557C21.6175 49.6557 20.6906 48.7288 20.6906 47.5867C20.6906 46.4447 21.6175 45.5178 22.7596 45.5178C23.9016 45.5178 24.8285 46.4447 24.8285 47.5867C24.8285 48.7288 23.9016 49.6557 22.7596 49.6557Z" fill="url(#paint1_linear_225_1768)"/>
<path d="M39.3103 41.3799C35.8883 41.3799 33.1035 44.1647 33.1035 47.5867C33.1035 51.0087 35.8883 53.7935 39.3103 53.7935C42.7324 53.7935 45.5172 51.0087 45.5172 47.5867C45.5172 44.1647 42.7324 41.3799 39.3103 41.3799ZM39.3103 49.6557C38.1683 49.6557 37.2414 48.7288 37.2414 47.5867C37.2414 46.4447 38.1683 45.5178 39.3103 45.5178C40.4524 45.5178 41.3793 46.4447 41.3793 47.5867C41.3793 48.7288 40.4524 49.6557 39.3103 49.6557Z" fill="url(#paint2_linear_225_1768)"/>
<path d="M55.8621 41.3799C52.4401 41.3799 49.6553 44.1647 49.6553 47.5867C49.6553 51.0087 52.4401 53.7935 55.8621 53.7935C59.2841 53.7935 62.0689 51.0087 62.0689 47.5867C62.0689 44.1647 59.2841 41.3799 55.8621 41.3799ZM55.8621 49.6557C54.72 49.6557 53.7932 48.7288 53.7932 47.5867C53.7932 46.4447 54.72 45.5178 55.8621 45.5178C57.0042 45.5178 57.931 46.4447 57.931 47.5867C57.931 48.7288 57.0042 49.6557 55.8621 49.6557Z" fill="url(#paint3_linear_225_1768)"/>
<path d="M80.6893 66.207C77.2672 66.207 74.4824 68.9918 74.4824 72.4139C74.4824 75.8359 77.2672 78.6207 80.6893 78.6207C84.1113 78.6207 86.8961 75.8359 86.8961 72.4139C86.8961 68.9918 84.1113 66.207 80.6893 66.207ZM80.6893 74.4828C79.5472 74.4828 78.6203 73.5559 78.6203 72.4139C78.6203 71.2718 79.5472 70.3449 80.6893 70.3449C81.8313 70.3449 82.7582 71.2718 82.7582 72.4139C82.7582 73.5559 81.8313 74.4828 80.6893 74.4828Z" fill="url(#paint4_linear_225_1768)"/>
<path d="M97.241 66.207C93.819 66.207 91.0342 68.9918 91.0342 72.4139C91.0342 75.8359 93.819 78.6207 97.241 78.6207C100.663 78.6207 103.448 75.8359 103.448 72.4139C103.448 68.9918 100.663 66.207 97.241 66.207ZM97.241 74.4828C96.099 74.4828 95.1721 73.5559 95.1721 72.4139C95.1721 71.2718 96.099 70.3449 97.241 70.3449C98.3831 70.3449 99.31 71.2718 99.31 72.4139C99.31 73.5559 98.3831 74.4828 97.241 74.4828Z" fill="url(#paint5_linear_225_1768)"/>
</g>
<defs>
<linearGradient id="paint0_linear_225_1768" x1="60" y1="8.27637" x2="60" y2="111.724" gradientUnits="userSpaceOnUse">
<stop stop-color="#0000FF"/>
<stop offset="1" stop-color="#00DDE2"/>
</linearGradient>
<linearGradient id="paint1_linear_225_1768" x1="22.7596" y1="41.3799" x2="22.7596" y2="53.7935" gradientUnits="userSpaceOnUse">
<stop stop-color="#0000FF"/>
<stop offset="1" stop-color="#00DDE2"/>
</linearGradient>
<linearGradient id="paint2_linear_225_1768" x1="39.3103" y1="41.3799" x2="39.3103" y2="53.7935" gradientUnits="userSpaceOnUse">
<stop stop-color="#0000FF"/>
<stop offset="1" stop-color="#00DDE2"/>
</linearGradient>
<linearGradient id="paint3_linear_225_1768" x1="55.8621" y1="41.3799" x2="55.8621" y2="53.7935" gradientUnits="userSpaceOnUse">
<stop stop-color="#0000FF"/>
<stop offset="1" stop-color="#00DDE2"/>
</linearGradient>
<linearGradient id="paint4_linear_225_1768" x1="80.6893" y1="66.207" x2="80.6893" y2="78.6207" gradientUnits="userSpaceOnUse">
<stop stop-color="#0000FF"/>
<stop offset="1" stop-color="#00DDE2"/>
</linearGradient>
<linearGradient id="paint5_linear_225_1768" x1="97.241" y1="66.207" x2="97.241" y2="78.6207" gradientUnits="userSpaceOnUse">
<stop stop-color="#0000FF"/>
<stop offset="1" stop-color="#00DDE2"/>
</linearGradient>
<clipPath id="clip0_225_1768">
<rect width="120" height="120" fill="white"/>
</clipPath>
</defs>
</svg>
