<svg width="120" height="120" viewBox="0 0 120 120" fill="none" xmlns="http://www.w3.org/2000/svg">
<path fill-rule="evenodd" clip-rule="evenodd" d="M51.6967 72.8307C51.7899 72.7374 51.8926 72.6543 52.0033 72.5825C53.6154 67.8142 56.3024 63.4805 59.8567 59.9164C63.4109 56.3522 67.7372 53.6532 72.501 52.0278L84.8434 39.6831C85.0422 39.4843 85.2386 39.264 85.2315 39.0306L84.3667 10.4415C84.3315 9.27948 83.9123 8.86018 82.7495 8.82432L54.1605 7.95854C53.9045 7.95081 53.6947 8.1601 53.508 8.34667L8.35514 53.5009C8.10717 53.7511 7.96805 54.0891 7.96805 54.4413C7.96805 54.7936 8.10717 55.1316 8.35514 55.3817L37.81 84.8366C38.0602 85.0845 38.3982 85.2237 38.7504 85.2237C39.1027 85.2237 39.4407 85.0845 39.6908 84.8366L51.6967 72.8307ZM92.3647 77.7922C92.3647 78.2895 92.1672 78.7664 91.8156 79.118C91.4639 79.4697 90.987 79.6672 90.4897 79.6672C89.9925 79.6672 89.5156 79.4697 89.1639 79.118C88.8123 78.7664 88.6147 78.2895 88.6147 77.7922C88.6147 74.9169 82.4352 73.0895 78.8481 75.6146C77.9931 76.2165 77.4641 76.9899 77.4641 77.7922C77.4641 80.1906 80.4058 80.691 83.3469 81.1907C87.8556 81.9575 92.3645 82.7244 92.3645 88.281C92.3645 92.15 88.6694 94.6778 84.9142 95.2574V97.8107C84.9142 98.3079 84.7167 98.7848 84.365 99.1365C84.0134 99.4881 83.5365 99.6857 83.0392 99.6857C82.5419 99.6857 82.065 99.4881 81.7134 99.1365C81.3617 98.7848 81.1642 98.3079 81.1642 97.8107V95.2578C77.4093 94.6782 73.7139 92.1505 73.7139 88.2814C73.7139 87.7841 73.9114 87.3072 74.2631 86.9556C74.6147 86.604 75.0916 86.4064 75.5889 86.4064C76.0862 86.4064 76.5631 86.604 76.9147 86.9556C77.2663 87.3072 77.4639 87.7841 77.4639 88.2814C77.4639 91.1567 83.6437 92.9839 87.2308 90.459C88.0858 89.8571 88.6136 89.0835 88.6136 88.2814C88.6136 85.8831 85.6722 85.3827 82.7308 84.883C78.2221 84.1161 73.713 83.3493 73.713 77.7927C73.713 73.9234 77.4081 71.3959 81.1633 70.8163V68.2625C81.1633 67.7652 81.3608 67.2883 81.7124 66.9367C82.0641 66.5851 82.541 66.3875 83.0383 66.3875C83.5355 66.3875 84.0125 66.5851 84.3641 66.9367C84.7157 67.2883 84.9133 67.7652 84.9133 68.2625V70.8158C88.6684 71.3954 92.3636 73.9229 92.3636 77.7922H92.3647ZM50.5075 79.3232L42.343 87.4878C41.3896 88.439 40.0978 88.9731 38.7511 88.9731C37.4044 88.9731 36.1126 88.439 35.1592 87.4878L5.70389 58.0332C4.75284 57.0798 4.21875 55.7881 4.21875 54.4414C4.21875 53.0948 4.75284 51.8031 5.70389 50.8496L50.8574 5.69542C51.759 4.79378 52.9391 4.18346 54.2638 4.22354L82.8526 5.08932C86.0401 5.18565 88.0056 7.15182 88.1026 10.3393L88.9684 38.9279C89.0087 40.2592 88.3956 41.4357 87.4966 42.3343L79.3267 50.5039C98.7674 48.3092 115.781 63.4841 115.781 83.0368C115.781 91.7206 112.331 100.049 106.191 106.189C100.051 112.329 91.7225 115.779 83.0387 115.779C63.4853 115.779 48.3107 98.7634 50.5061 79.3241L50.5075 79.3232ZM83.0387 54.0456C88.7728 54.0456 94.3782 55.7459 99.1459 58.9316C103.914 62.1173 107.63 66.6453 109.824 71.9429C112.018 77.2406 112.593 83.0699 111.474 88.6939C110.355 94.3178 107.594 99.4837 103.539 103.538C99.4847 107.593 94.3188 110.354 88.6948 111.473C83.0709 112.592 77.2415 112.017 71.9439 109.823C66.6463 107.629 62.1183 103.913 58.9326 99.145C55.7469 94.3772 54.0465 88.7719 54.0465 83.0378C54.0464 79.2304 54.7962 75.4603 56.2531 71.9427C57.7101 68.4252 59.8456 65.229 62.5378 62.5368C65.23 59.8446 68.4262 57.7091 71.9437 56.2522C75.4613 54.7952 79.2314 54.0454 83.0387 54.0456ZM74.3669 21.5185C73.8342 21.5191 73.3134 21.3616 72.8703 21.0661C72.4272 20.7705 72.0818 20.3501 71.8777 19.8582C71.6736 19.3662 71.6201 18.8247 71.7238 18.3023C71.8276 17.7799 72.084 17.3 72.4607 16.9234C72.8373 16.5467 73.3172 16.2903 73.8396 16.1865C74.362 16.0828 74.9035 16.1363 75.3954 16.3404C75.8874 16.5445 76.3078 16.8899 76.6034 17.333C76.8989 17.7761 77.0564 18.2969 77.0558 18.8296C77.0489 19.5406 76.7634 20.2205 76.2606 20.7233C75.7578 21.2261 75.0779 21.5116 74.3669 21.5185ZM74.3669 25.254C73.0954 25.2546 71.8524 24.878 70.795 24.172C69.7376 23.466 68.9134 22.4622 68.4266 21.2877C67.9398 20.1131 67.8122 18.8206 68.0601 17.5735C68.3081 16.3265 68.9202 15.181 69.8193 14.282C70.7183 13.3829 71.8638 12.7708 73.1108 12.5228C74.3579 12.2749 75.6504 12.4025 76.825 12.8893C77.9995 13.3761 79.0033 14.2003 79.7093 15.2577C80.4153 16.3151 80.7919 17.5581 80.7913 18.8296C80.7922 19.6735 80.6266 20.5093 80.304 21.2891C79.9815 22.069 79.5083 22.7775 78.9116 23.3743C78.3148 23.971 77.6063 24.4442 76.8264 24.7667C76.0466 25.0893 75.2108 25.2549 74.3669 25.254Z" fill="url(#paint0_linear_225_1723)"/>
<defs>
<linearGradient id="paint0_linear_225_1723" x1="4.21875" y1="60.0003" x2="115.781" y2="60.0003" gradientUnits="userSpaceOnUse">
<stop stop-color="#0000FF"/>
<stop offset="1" stop-color="#00DDE2"/>
</linearGradient>
</defs>
</svg>
