<svg width="120" height="121" viewBox="0 0 120 121" fill="none" xmlns="http://www.w3.org/2000/svg">
<path fill-rule="evenodd" clip-rule="evenodd" d="M73.9837 28.0402L86.6677 13.9233V10.2213C86.6646 9.64292 86.4355 9.08914 86.0299 8.68019C85.6243 8.27124 85.0751 8.04015 84.5016 8.03711H10.1363C9.5627 8.04015 9.01349 8.27124 8.60792 8.68019C8.20236 9.08914 7.97317 9.64292 7.97016 10.2213V13.9233L21.2559 28.7097C28.6814 30.5478 36.5025 28.9153 44.2657 27.2941C54.345 25.1891 64.3334 23.104 73.9845 28.0402H73.9837ZM61.8169 69.2258C62.4788 66.8264 63.6764 64.6116 65.3182 62.7509C66.9599 60.8903 69.0021 59.4331 71.2884 58.491C70.1144 57.2822 69.3204 55.7509 69.0059 54.0889C68.6915 52.427 68.8706 50.7084 69.5208 49.1487C70.171 47.589 71.2633 46.2575 72.6609 45.3212C74.0585 44.3848 75.6991 43.8854 77.377 43.8854C79.055 43.8854 80.6956 44.3848 82.0932 45.3212C83.4907 46.2575 84.5831 47.589 85.2333 49.1487C85.8835 50.7084 86.0626 52.427 85.7481 54.0889C85.4337 55.7509 84.6397 57.2822 83.4656 58.491C85.752 59.4332 87.7942 60.8904 89.4359 62.7511C91.0777 64.6118 92.2753 66.8266 92.9372 69.226C95.1003 66.3132 96.4165 62.8508 96.7385 59.2265C97.0606 55.6021 96.3757 51.9589 94.7605 48.7048C93.1454 45.4507 90.6638 42.7142 87.5936 40.8017C84.5234 38.8893 80.9858 37.8763 77.377 37.8763C73.7682 37.8763 70.2307 38.8893 67.1605 40.8017C64.0903 42.7142 61.6087 45.4507 59.9935 48.7048C58.3784 51.9589 57.6935 55.6021 58.0155 59.2265C58.3376 62.8508 59.6538 66.3132 61.8169 69.226V69.2258ZM89.7471 72.596C86.265 75.493 81.8915 77.0775 77.3771 77.0775C72.8628 77.0775 68.4893 75.493 65.0072 72.596C65.2538 69.4586 66.664 66.5301 68.9566 64.3943C71.2492 62.2585 74.2559 61.0724 77.3771 61.0724C80.4984 61.0724 83.5051 62.2585 85.7977 64.3943C88.0903 66.5301 89.5005 69.4586 89.7471 72.596ZM80.7518 49.0753C81.195 49.5221 81.5466 50.0527 81.7865 50.6366C82.0264 51.2205 82.1498 51.8464 82.1498 52.4784C82.1498 53.1104 82.0264 53.7362 81.7865 54.3201C81.5466 54.9041 81.195 55.4346 80.7518 55.8815C77.7539 58.9041 72.6049 56.7536 72.6049 52.4784C72.6049 48.2032 77.7537 46.0529 80.7518 49.0753ZM60.9797 40.9408C64.7733 37.1157 69.765 34.7352 75.1041 34.205C80.4432 33.6748 85.7995 35.0278 90.2603 38.0333C94.7211 41.0388 98.0103 45.5109 99.5676 50.6876C101.125 55.8644 100.854 61.4254 98.8008 66.4233C96.7477 71.4212 93.0395 75.5466 88.308 78.0966C83.5765 80.6467 78.1145 81.4636 72.8526 80.4082C67.5907 79.3528 62.8546 76.4903 59.4511 72.3086C56.0476 68.1268 54.1875 62.8845 54.1875 57.4748C54.1836 54.4036 54.7817 51.3619 55.9473 48.5245C57.1129 45.6871 58.8231 43.1097 60.9797 40.9408ZM62.9419 32.2565C59.6559 34.1673 56.7756 36.7123 54.4656 39.7461C52.1555 42.7798 50.4611 46.2429 49.479 49.9373C48.497 53.6318 48.2466 57.4851 48.7422 61.2772C49.2378 65.0692 50.4696 68.7256 52.3673 72.0374C52.8347 72.8538 53.3347 73.6384 53.8673 74.3912V74.6122L40.7709 82.2363V51.1455H40.7627C40.7634 50.6786 40.5914 50.2283 40.2802 49.8825L25.2708 33.1779C40.0214 34.4198 54.9427 25.9401 68.298 29.8268C66.4359 30.452 64.6415 31.2661 62.9423 32.2565H62.9419ZM78.7153 28.3807C84.4698 28.6512 90.0128 30.6504 94.6319 34.1215C99.2511 37.5925 102.736 42.3768 104.638 47.8598C106.54 53.3428 106.773 59.2741 105.307 64.8916C103.841 70.5091 100.742 75.5563 96.4097 79.3848L99.9403 85.5506C100.637 85.1921 101.444 85.117 102.195 85.3406C102.945 85.5643 103.582 86.0698 103.973 86.7528L115.369 106.604C115.774 107.311 115.885 108.152 115.676 108.941C115.467 109.73 114.955 110.403 114.254 110.812L104.776 116.33C104.074 116.739 103.241 116.849 102.458 116.639C101.675 116.428 101.007 115.913 100.601 115.206C96.7992 108.584 92.9299 101.97 89.1848 95.3185C88.8026 94.6327 88.6955 93.8252 88.8855 93.0622C89.0755 92.2991 89.5482 91.6385 90.2065 91.2161L86.6745 85.0479C81.4399 86.8412 75.8051 87.0828 70.4385 85.7442C65.0718 84.4056 60.1986 81.5428 56.397 77.4956L39.9445 87.0733C39.6626 87.2657 39.3339 87.377 38.9939 87.3953C38.6539 87.4136 38.3154 87.3381 38.0148 87.1769C37.7142 87.0157 37.4628 86.775 37.2876 86.4806C37.1125 86.1862 37.0202 85.8493 37.0207 85.5059V51.8623L18.9738 31.7775C18.9017 31.7088 18.835 31.6345 18.7744 31.5553L4.82813 16.0342C4.63594 15.8573 4.48247 15.642 4.37755 15.4019C4.27262 15.1618 4.21853 14.9023 4.21875 14.6399V10.2205C4.22253 8.63941 4.84726 7.12416 5.95625 6.00633C7.06524 4.8885 8.56819 4.2591 10.1363 4.25586H84.5016C86.0695 4.25948 87.5722 4.88914 88.6809 6.00708C89.7896 7.12503 90.4141 8.64025 90.4177 10.2213V14.6406H90.4095C90.41 15.1074 90.238 15.5576 89.9269 15.9033L78.7158 28.3814L78.7153 28.3807ZM93.4191 81.6914C92.3728 82.3927 91.2829 83.0256 90.1561 83.586L93.4453 89.3319L96.7062 87.4334L93.4191 81.6914ZM83.8845 32.9912C88.6764 34.2865 92.9812 36.9826 96.2566 40.7398C99.532 44.4971 101.632 49.1477 102.291 54.1058C102.95 59.0639 102.14 64.1079 99.9621 68.6026C97.7842 73.0973 94.336 76.8417 90.0518 79.3642C89.9667 79.4068 89.8849 79.4557 89.8071 79.5105C89.0208 80.012 87.5892 80.6364 86.7291 81.0086C83.032 82.5022 79.0359 83.0886 75.0701 82.7197C71.1042 82.3508 67.2819 81.0371 63.9183 78.8868C60.5546 76.7365 57.7457 73.8111 55.723 70.3517C53.7002 66.8923 52.5216 62.9977 52.2841 58.989C52.0466 54.9802 52.7571 50.9719 54.357 47.2943C55.9569 43.6166 58.4005 40.3749 61.4864 37.8361C64.5723 35.2973 68.2122 33.5341 72.1063 32.6918C76.0005 31.8495 80.0374 31.9521 83.8845 32.9912ZM101.076 89.2373L92.786 94.0636L103.497 112.721L111.787 107.894L101.076 89.2373Z" fill="url(#paint0_linear_225_1719)"/>
<defs>
<linearGradient id="paint0_linear_225_1719" x1="4.21875" y1="60.4995" x2="115.779" y2="60.4995" gradientUnits="userSpaceOnUse">
<stop stop-color="#0000FF"/>
<stop offset="1" stop-color="#00DDE2"/>
</linearGradient>
</defs>
</svg>
