<svg width="120" height="120" viewBox="0 0 120 120" fill="none" xmlns="http://www.w3.org/2000/svg">
<g clip-path="url(#clip0_225_1828)">
<path d="M103.368 49.6039H103.071V42.3267C103.071 18.9503 84.1213 0 60.7446 0C37.368 0 18.4179 18.9503 18.4179 42.3267V49.6039H16.6359C10.1011 49.6039 5.05171 55.3959 5.05171 62.0793V80.6436C4.88712 87.1212 10.0051 92.5057 16.4826 92.6703C16.5338 92.6717 16.5847 92.6726 16.6359 92.6732H27.6259C29.1825 92.6001 30.3853 91.2786 30.3119 89.7219C30.3094 89.6659 30.3051 89.6099 30.2991 89.5542V53.1681C30.2991 51.386 29.2596 49.6037 27.6259 49.6037H24.3585V42.3264C24.3585 22.2311 40.6493 5.94032 60.7446 5.94032C80.84 5.94032 97.1308 22.2311 97.1308 42.3264V49.6037H93.8634C92.2297 49.6037 91.1902 51.3857 91.1902 53.1681V89.5542C91.0244 91.1037 92.1462 92.4944 93.6957 92.6601C93.7514 92.6661 93.8074 92.6703 93.8634 92.6729H97.2792L96.9821 93.1183C92.5257 99.041 85.5327 102.51 78.1207 102.475C76.4981 94.5183 68.7325 89.3836 60.7762 91.0065C53.9723 92.394 49.0667 98.3528 49.0118 105.297C49.0931 113.441 55.7188 120 63.8633 119.999C67.8951 119.934 71.7381 118.28 74.5563 115.395C76.4578 113.448 77.7037 110.956 78.1207 108.267C87.4026 108.302 96.156 103.953 101.734 96.5341L104.556 92.3755C110.942 91.9301 114.952 87.9202 114.952 82.128V63.5637C114.953 57.1782 110.2 49.6039 103.368 49.6039ZM24.3585 86.7326H16.6359C13.4379 86.6547 10.9085 83.9993 10.9863 80.8013C10.9878 80.7488 10.9898 80.6962 10.9923 80.6433V62.079C10.9923 58.6632 13.3685 55.5443 16.6359 55.5443H24.3585V86.7326ZM70.2497 111.237C68.6038 113.022 66.2913 114.044 63.8636 114.059C59.0317 113.983 55.1105 110.127 54.9527 105.297C54.9507 100.458 58.8722 96.5329 63.7115 96.531C68.5509 96.529 72.4755 100.45 72.4775 105.29C72.4775 105.292 72.4775 105.295 72.4775 105.297C72.6011 107.502 71.7927 109.658 70.2497 111.237ZM109.012 82.1286C109.012 86.1385 105.151 86.7326 103.368 86.7326H97.1308V55.5445H103.368C106.636 55.5445 109.012 60.1485 109.012 63.5643V82.1286Z" fill="url(#paint0_linear_225_1828)"/>
</g>
<defs>
<linearGradient id="paint0_linear_225_1828" x1="5.04785" y1="59.9997" x2="114.952" y2="59.9997" gradientUnits="userSpaceOnUse">
<stop stop-color="#0000FF"/>
<stop offset="1" stop-color="#00DDE2"/>
</linearGradient>
<clipPath id="clip0_225_1828">
<rect width="120" height="120" fill="white"/>
</clipPath>
</defs>
</svg>
